<?xml version="1.0" encoding="UTF-8"?>
<svg height="16px" viewBox="0 0 16 16" width="16px" xmlns="http://www.w3.org/2000/svg">
    <g fill="#241f31" fill-rule="evenodd">
        <path d="m 8.570312 3.402344 c -1.609374 0.09375 -3.15625 1.035156 -3.644531 2.730468 c -0.21875 0.761719 -0.15625 1.574219 0.171875 2.285157 c 0.324219 0.710937 0.953125 1.328125 1.8125 1.546875 l 0.367188 -1.457032 c -0.386719 -0.097656 -0.648438 -0.347656 -0.820313 -0.714843 c -0.167969 -0.371094 -0.203125 -0.847657 -0.089843 -1.242188 c 0.386718 -1.347656 2.015624 -1.941406 3.34375 -1.523437 c 2.070312 0.652344 2.949218 3.125 2.269531 5.140625 c -1.003907 2.960937 -4.539063 4.1875 -7.40625 3.160156 c -1.015625 -0.363281 -1.945313 -0.980469 -2.691407 -1.769531 l -1.089843 1.03125 c 0.90625 0.957031 2.027343 1.703125 3.277343 2.152344 c 3.589844 1.285156 8.027344 -0.253907 9.328126 -4.09375 c 0.929687 -2.738282 -0.269532 -6.113282 -3.234376 -7.050782 c -0.515624 -0.160156 -1.058593 -0.226562 -1.59375 -0.195312 z m 0 0"/>
        <path d="m 7.550781 12.597656 c 1.609375 -0.09375 3.15625 -1.035156 3.644531 -2.730468 c 0.21875 -0.761719 0.15625 -1.574219 -0.171874 -2.285157 c -0.324219 -0.710937 -0.957032 -1.328125 -1.8125 -1.546875 l -0.371094 1.457032 c 0.390625 0.097656 0.652344 0.347656 0.820312 0.714843 c 0.171875 0.371094 0.207032 0.847657 0.09375 1.242188 c -0.390625 1.347656 -2.015625 1.941406 -3.347656 1.523437 c -2.066406 -0.652344 -2.945312 -3.125 -2.265625 -5.140625 c 1.003906 -2.960937 4.539063 -4.1875 7.402344 -3.160156 c 1.019531 0.363281 1.945312 0.980469 2.695312 1.769531 l 1.089844 -1.03125 c -0.90625 -0.957031 -2.027344 -1.703125 -3.277344 -2.152344 c -3.59375 -1.2851558 -8.03125 0.253907 -9.332031 4.09375 c -0.925781 2.738282 0.273438 6.113282 3.238281 7.050782 c 0.511719 0.160156 1.054688 0.226562 1.59375 0.195312 z m 0 0"/>
    </g>
</svg>
