<?xml version="1.0" encoding="UTF-8" standalone="no"?>
<!-- Generator: Adobe Illustrator 16.0.0, SVG Export Plug-In . SVG Version: 6.00 Build 0)  -->

<svg
   xmlns:dc="http://purl.org/dc/elements/1.1/"
   xmlns:cc="http://creativecommons.org/ns#"
   xmlns:rdf="http://www.w3.org/1999/02/22-rdf-syntax-ns#"
   xmlns:svg="http://www.w3.org/2000/svg"
   xmlns="http://www.w3.org/2000/svg"
   xmlns:sodipodi="http://sodipodi.sourceforge.net/DTD/sodipodi-0.dtd"
   xmlns:inkscape="http://www.inkscape.org/namespaces/inkscape"
   version="1.1"
   id="Layer_1"
   x="0px"
   y="0px"
   width="998.836"
   height="894.16901"
   viewBox="0 0 998.836 894.16901"
   enable-background="new 0 0 1200 1200"
   xml:space="preserve"
   sodipodi:docname="siril_symbolic.svg"
   inkscape:export-xdpi="96"
   inkscape:export-ydpi="96"
   inkscape:version="0.92.3 (2405546, 2018-03-11)"><metadata
   id="metadata41"><rdf:RDF><cc:Work
       rdf:about=""><dc:format>image/svg+xml</dc:format><dc:type
         rdf:resource="http://purl.org/dc/dcmitype/StillImage" /><dc:title></dc:title></cc:Work></rdf:RDF></metadata><defs
   id="defs39" /><sodipodi:namedview
   pagecolor="#ffffff"
   bordercolor="#666666"
   borderopacity="1"
   objecttolerance="10"
   gridtolerance="10"
   guidetolerance="10"
   inkscape:pageopacity="0"
   inkscape:pageshadow="2"
   inkscape:window-width="1724"
   inkscape:window-height="831"
   id="namedview37"
   showgrid="false"
   fit-margin-top="10"
   fit-margin-left="10"
   fit-margin-right="10"
   fit-margin-bottom="10"
   inkscape:zoom="0.19666667"
   inkscape:cx="1427.9265"
   inkscape:cy="145.73944"
   inkscape:window-x="74"
   inkscape:window-y="36"
   inkscape:window-maximized="0"
   inkscape:current-layer="Layer_1" />
<path
   d="m 297.47,824.626 c -18.032,-27.013 -53.75,-43.793 -93.216,-43.793 -37.576,0 -72.473,15.608 -91.071,40.736 -1.336,1.807 -1.141,4.32 0.459,5.897 0.874,0.86 2.019,1.3 3.169,1.3 0.959,0 1.923,-0.307 2.736,-0.927 22.336,-17.04 52.137,-26.424 83.912,-26.424 33.2,0 65.048,10.638 87.376,29.185 0.838,0.696 1.86,1.042 2.883,1.042 1.082,0 2.162,-0.389 3.019,-1.16 1.666,-1.497 1.978,-3.99 0.733,-5.856 z"
   id="path2"
   style="fill:#d7d7db;fill-opacity:1"
   inkscape:connector-curvature="0" />
<path
   d="m 646.215,776.475 c -21.143,-31.674 -63.062,-51.351 -109.398,-51.351 -44.118,0 -85.076,18.308 -106.889,47.771 -1.336,1.807 -1.141,4.321 0.459,5.897 0.873,0.861 2.019,1.3 3.169,1.3 0.959,0 1.923,-0.305 2.736,-0.923 26.522,-20.235 61.889,-31.377 99.585,-31.377 39.392,0 77.189,12.631 103.702,34.656 0.838,0.696 1.86,1.041 2.884,1.041 1.082,0 2.162,-0.388 3.019,-1.159 1.666,-1.497 1.978,-3.992 0.733,-5.855 z"
   id="path4"
   style="fill:#d7d7db;fill-opacity:1"
   inkscape:connector-curvature="0" />
<path
   d="m 811.581,877.152 c -23.603,-35.359 -70.423,-57.325 -122.193,-57.325 -49.292,0 -95.041,20.438 -119.392,53.337 -1.337,1.806 -1.141,4.321 0.46,5.896 0.872,0.861 2.018,1.3 3.168,1.3 0.959,0 1.923,-0.305 2.735,-0.923 29.827,-22.757 69.595,-35.288 111.977,-35.288 44.285,0 86.788,14.207 116.609,38.978 0.838,0.696 1.86,1.042 2.883,1.042 1.082,0 2.162,-0.389 3.019,-1.16 1.667,-1.499 1.98,-3.992 0.734,-5.857 z"
   id="path6"
   style="fill:#d7d7db;fill-opacity:1"
   inkscape:connector-curvature="0" />
<path
   d="m 699.635,475.772 c -7.938,-1.728 -15.086,-5.472 -21.854,-11.446 -2.297,-2.027 -2.275,-4.152 -1.379,-5.691 -1.458,0.892 -3.373,0.444 -4.806,-1.237 -0.473,-0.551 -1.161,-1.399 -1.674,-2.388 -1.788,-3.435 -3.552,-6.881 -5.353,-10.398 -0.523,0.931 -1.035,1.88 -1.479,2.84 -1.868,4.028 -2.825,7.449 -1.433,11.057 1.801,4.662 0.562,8.928 -0.636,13.057 -0.641,2.208 -0.154,3.9 1.579,5.484 3.982,3.64 6.169,7.417 6.878,11.885 0.657,4.121 2.601,4.944 4.004,5.206 6.395,1.193 10.773,4.946 14.212,8.462 1.786,1.825 4.141,2.005 6.931,0.653 0.94,-0.455 1.972,-0.706 2.9,-0.706 0.188,0 0.373,0.01 0.556,0.031 l 0.563,0.062 c 3.019,0.334 6.14,0.678 9.192,1.32 2.565,0.536 4.146,0.124 5.539,-1.517 0.278,-0.331 0.583,-0.579 0.828,-0.779 0.115,-0.095 0.238,-0.179 0.33,-0.291 3.441,-4.088 8.176,-5.476 12.342,-6.456 1.672,-0.393 2.599,-1.042 3.102,-2.17 0.614,-1.38 1.062,-2.608 1.363,-3.752 1.059,-4.013 2.635,-6.768 5.112,-8.932 l 0.425,-0.369 c 1.29,-1.118 2.629,-2.274 3.1,-3.464 1.13,-2.855 1.737,-6.032 1.893,-9.993 -0.592,0.462 -1.184,0.91 -1.8,1.341 -12.254,8.59 -25.906,11.355 -40.435,8.191 z"
   id="path8"
   style="fill:#d7d7db;fill-opacity:1"
   inkscape:connector-curvature="0" />
<path
   d="m 706.621,457.167 c 0.453,0 0.886,-0.036 1.285,-0.108 2.961,-0.53 5.919,-2.835 7.726,-6.011 1.442,-2.542 1.865,-5.223 1.133,-7.176 l -0.09,-0.237 -0.025,-0.254 c -0.446,-4.828 -6.473,-8.573 -11.359,-8.573 -0.626,0 -1.228,0.062 -1.784,0.181 -6.089,1.306 -9.463,8.611 -8.766,12.898 0.931,5.749 7.548,9.28 11.88,9.28 z"
   id="path10"
   style="fill:#d7d7db;fill-opacity:1"
   inkscape:connector-curvature="0" />
<path
   d="m 351.86,225.816 c 11.292,-2.191 19.355,-7.198 24.654,-15.31 1.607,-2.459 2.754,-5.676 3.967,-9.082 0.641,-1.798 1.303,-3.659 2.082,-5.563 0.185,-0.453 0.427,-0.868 0.699,-1.262 -2.641,-1.572 -5.851,-2.347 -9.769,-2.347 -2.514,0 -5.246,0.311 -8.356,0.948 -11.125,2.283 -18.932,7.185 -23.869,14.987 -1.374,2.171 -2.414,4.854 -3.514,7.695 -0.467,1.2 -0.947,2.441 -1.469,3.682 -0.078,0.187 -0.221,0.825 -0.326,1.292 -0.118,0.527 -0.246,1.088 -0.403,1.694 -0.202,0.777 -0.55,1.486 -0.99,2.125 2.506,1.357 5.514,2.029 9.12,2.029 2.421,0.001 5.096,-0.289 8.174,-0.888 z"
   id="path12"
   style="fill:#d7d7db;fill-opacity:1"
   inkscape:connector-curvature="0" />
<path
   d="m 335.548,204.57 c 6.528,-10.319 16.644,-15.622 28.228,-17.998 3.202,-0.658 6.486,-1.086 9.716,-1.086 5.456,0 10.759,1.226 15.244,4.647 0.821,0.626 1.593,1.265 2.324,1.917 1.402,0.491 2.635,1.428 3.465,2.723 0.6,0.936 1.111,1.924 1.578,2.935 5.789,8.44 5.391,18.219 -0.866,27.905 -2.741,4.242 -5.988,7.867 -9.595,11.018 -2.518,2.445 -5.391,4.744 -8.631,6.882 -10.684,7.048 -22.921,11.749 -36.514,14.077 -10.497,3.203 -21.116,6.053 -31.714,8.894 -8.496,2.275 -17.31,3.373 -25.988,4.966 -6.934,1.273 -13.879,2.489 -20.819,3.729 0.056,0.164 0.114,0.327 0.169,0.488 0.322,-0.002 0.642,-0.003 0.962,-0.003 3.76,0 7.526,0.091 11.286,0.091 3.017,0 6.029,-0.059 9.031,-0.27 12.399,-0.872 24.879,-1.546 37.108,-3.609 17.29,-2.919 34.391,-6.769 51.042,-12.692 16.618,-5.912 32.83,-12.325 47.208,-22.768 9.757,-7.088 18.53,-14.963 23.89,-26.124 3.918,-8.163 2.316,-21.014 -3.036,-27.142 -10.414,-11.93 -24.021,-16.233 -39.27,-16.707 -1.146,-0.036 -2.29,-0.053 -3.431,-0.053 -7.997,0 -15.898,0.889 -23.646,2.703 -1.76,0.609 -3.513,1.227 -5.234,1.896 -11.709,4.553 -22.93,8.922 -31.714,16.497 -2.456,2.468 -4.716,5.23 -6.72,8.382 -4.254,6.694 -5.241,15.526 -2.067,22.394 0.485,0.635 1.032,1.268 1.615,1.9 0.295,-1.246 0.483,-2.283 0.875,-3.217 1.752,-4.168 3.115,-8.6 5.504,-12.375 z"
   id="path14"
   style="fill:#d7d7db;fill-opacity:1"
   inkscape:connector-curvature="0" />
<path
   d="M 499.418,10 C 229.121,10 10,229.119 10,499.418 c 0,65.051 12.723,127.121 35.765,183.905 24.956,-33.086 60.868,-53.844 100.785,-53.844 36.755,0 70.11,17.602 94.647,46.215 16.124,-4.408 33.22,-6.786 50.932,-6.786 37.088,0 71.488,10.398 99.856,28.138 18.079,-17.186 45.435,-28.138 76.053,-28.138 21.443,0 41.269,5.388 57.446,14.512 26.976,-40.774 72.682,-67.588 124.528,-67.588 56.447,0 105.61,31.787 131.25,78.77 21.662,-16.109 48.69,-25.693 78.021,-25.693 33.128,0 63.33,12.211 86.159,32.269 27.871,-61.519 43.394,-129.825 43.394,-201.759 C 988.836,229.12 769.719,10 499.418,10 Z M 168.373,423.298 c -0.238,1.113 -1.223,1.909 -2.363,1.909 -1.139,0 -2.125,-0.796 -2.362,-1.909 l -5.702,-26.551 -26.552,-5.7 c -1.113,-0.239 -1.909,-1.223 -1.909,-2.363 0,-1.14 0.796,-2.124 1.909,-2.363 l 26.552,-5.701 5.702,-26.55 c 0.238,-1.115 1.223,-1.91 2.362,-1.91 1.14,0 2.125,0.795 2.363,1.91 l 5.702,26.55 26.552,5.701 c 1.113,0.239 1.909,1.223 1.909,2.363 0,1.14 -0.796,2.124 -1.909,2.363 l -26.552,5.7 z m 125.959,94.673 -39.825,8.551 -8.552,39.825 c -0.357,1.671 -1.835,2.865 -3.544,2.865 -1.708,0 -3.187,-1.194 -3.544,-2.865 l -8.552,-39.825 -39.825,-8.551 c -1.671,-0.359 -2.865,-1.835 -2.865,-3.544 0,-1.709 1.194,-3.186 2.865,-3.545 l 39.825,-8.551 8.552,-39.825 c 0.357,-1.671 1.836,-2.864 3.544,-2.864 1.708,0 3.187,1.193 3.544,2.864 l 8.552,39.825 39.825,8.551 c 1.671,0.359 2.865,1.836 2.865,3.545 0,1.709 -1.194,3.185 -2.865,3.544 z M 456.039,150.602 c -3.356,0.554 -6.718,1.083 -10.079,1.614 -7.514,1.185 -15.283,2.409 -22.809,3.883 -5.705,1.116 -11.61,2.431 -17.621,3.887 16.626,1.453 29.493,7.589 39.202,18.712 7.21,8.255 9.061,24.065 4.04,34.522 -6.35,13.225 -16.712,21.915 -26.012,28.671 -15.604,11.333 -33.432,18.158 -48.918,23.668 -15.253,5.425 -31.835,9.553 -52.185,12.988 -11.011,1.859 -22.222,2.624 -33.065,3.364 -1.565,0.107 -3.13,0.213 -4.692,0.323 -2.778,0.196 -5.8,0.288 -9.507,0.288 -1.907,0 -3.817,-0.023 -5.726,-0.047 -1.854,-0.021 -3.708,0.582 -5.56,0.582 l -0.933,0.628 c -0.009,0 -0.019,0 -0.03,0 -2.883,0 -5.451,-2.454 -6.395,-5.178 l -0.068,-0.51 -0.106,-0.458 c -0.644,-1.87 -0.437,-4.005 0.564,-5.711 1.001,-1.704 2.698,-2.924 4.645,-3.272 l 6.186,-1.121 c 4.869,-0.866 9.738,-1.741 14.602,-2.633 2.627,-0.482 5.282,-0.927 7.85,-1.353 6.143,-1.02 11.947,-1.984 17.608,-3.501 l 0.277,-0.076 c 1.501,-0.402 3.011,-0.808 4.521,-1.215 -5.038,-0.577 -10.002,-1.482 -14.864,-2.375 l -0.264,-0.049 c -14.49,-2.661 -28.598,-17.433 -30.805,-32.257 -1.452,-9.738 1.41,-19.193 8.504,-28.1 10.825,-13.593 24.625,-23.918 41.015,-30.689 3.312,-1.369 6.688,-2.864 9.953,-4.31 6.592,-2.92 13.407,-5.94 20.49,-8.291 7.921,-2.63 16.058,-4.578 23.93,-6.461 3.357,-0.804 6.83,-1.635 10.2,-2.5 16.593,-4.261 33.557,-5.443 49.962,-6.586 l 2.31,-0.162 c 3.068,-0.214 6.328,-0.311 10.57,-0.311 1.727,0 3.454,0.015 5.181,0.031 1.688,0.015 3.375,0.063 5.061,0.063 0.584,0 1.171,0.025 1.755,0.025 0.017,0 0.034,0 0.051,0 3.417,0 6.303,2.519 6.717,5.918 l 0.036,0.28 0.028,0.231 c 0.437,3.6 -2.041,6.898 -5.619,7.488 z m 99.533,261.137 -26.552,5.7 -5.701,26.551 c -0.238,1.114 -1.224,1.91 -2.363,1.91 -1.139,0 -2.125,-0.796 -2.362,-1.91 l -5.701,-26.551 -26.552,-5.7 c -1.113,-0.239 -1.909,-1.223 -1.909,-2.363 0,-1.14 0.796,-2.124 1.909,-2.363 l 26.552,-5.701 5.701,-26.55 c 0.237,-1.115 1.224,-1.91 2.362,-1.91 1.14,0 2.125,0.795 2.363,1.91 l 5.701,26.55 26.552,5.701 c 1.113,0.239 1.909,1.223 1.909,2.363 0,1.14 -0.796,2.123 -1.909,2.363 z m 92.051,-169.491 c 0,-1.709 1.193,-3.186 2.864,-3.544 l 39.825,-8.552 8.552,-39.825 c 0.357,-1.671 1.836,-2.864 3.544,-2.864 1.708,0 3.187,1.193 3.544,2.864 l 8.553,39.825 39.824,8.552 c 1.671,0.359 2.865,1.835 2.865,3.544 0,1.709 -1.194,3.186 -2.865,3.545 l -39.824,8.551 -8.553,39.825 c -0.357,1.671 -1.836,2.865 -3.544,2.865 -1.708,0 -3.187,-1.194 -3.544,-2.865 l -8.552,-39.825 -39.825,-8.551 c -1.671,-0.358 -2.864,-1.836 -2.864,-3.545 z M 757.536,430.78 c 3.105,7.809 0.157,14.438 -3.412,21.105 -0.614,1.149 -1.372,2.159 -2.104,3.137 -0.655,0.877 -1.277,1.708 -1.753,2.573 -0.326,0.595 -0.474,1.601 -0.378,2.561 0.58,5.828 0.015,11.797 -1.682,17.739 -0.707,2.47 -2.562,4.581 -3.996,5.917 -3.09,2.88 -4.878,5.93 -5.625,9.598 -1.063,5.226 -4.749,8.527 -10.956,9.814 -3.119,0.646 -5.55,2.041 -7.885,4.521 -2.897,3.073 -6.23,4.631 -9.908,4.631 -1.42,0 -2.888,-0.243 -4.364,-0.72 -3.72,-1.201 -6.662,-1.303 -9.58,-0.353 -6.239,2.033 -11.609,0.517 -15.585,-4.353 -1.898,-2.324 -4.525,-3.777 -8.516,-4.708 -5.437,-1.271 -8.862,-5.018 -9.907,-10.833 -0.541,-3.017 -1.952,-5.521 -4.445,-7.881 -4.602,-4.358 -5.992,-9.294 -4.138,-14.672 1.153,-3.343 1.669,-5.934 0.675,-8.519 -2.586,-6.729 -0.268,-12.732 2.342,-17.715 0.882,-1.684 1.922,-3.265 2.929,-4.794 0.812,-1.231 1.577,-2.394 2.27,-3.608 0.294,-0.519 0.447,-1.382 0.36,-2.054 -0.774,-5.987 -0.118,-12.287 1.957,-18.716 0.609,-1.888 1.997,-3.822 4.125,-5.75 2.576,-2.334 4.166,-5.038 4.862,-8.261 0.962,-4.438 3.082,-7.383 6.486,-9.003 1.868,-0.889 3.712,-1.707 5.72,-1.963 2.7,-0.345 4.561,-2.007 6.719,-3.933 l 0.885,-0.785 c 1.246,-1.089 2.604,-1.978 3.918,-2.836 0.554,-0.362 1.105,-0.725 1.642,-1.096 l 0.573,-0.401 0.701,0.072 c 0.696,0.071 1.357,0.108 1.988,0.144 1.438,0.079 2.795,0.157 4.143,0.583 3.948,1.25 7.652,1.283 11.683,0.101 4.15,-1.214 8.065,-0.536 11.205,1.948 l 0.364,0.286 c 1.059,0.83 2.262,1.772 3.16,2.992 1.48,2.003 3.643,3.286 6.424,3.81 6.688,1.262 10.587,5.322 11.586,12.067 0.485,3.286 2.562,5.611 4.736,7.633 4.2,3.908 5.395,8.73 3.551,14.331 l -0.044,0.133 c -0.844,2.555 -1.639,4.965 -0.726,7.258 z m 108.415,140.127 -26.552,5.7 -5.702,26.551 c -0.237,1.112 -1.224,1.908 -2.362,1.908 -1.14,0 -2.125,-0.796 -2.363,-1.908 l -5.701,-26.551 -26.552,-5.7 c -1.113,-0.239 -1.909,-1.223 -1.909,-2.363 0,-1.14 0.796,-2.124 1.909,-2.363 l 26.552,-5.701 5.701,-26.55 c 0.238,-1.115 1.224,-1.91 2.363,-1.91 1.139,0 2.125,0.795 2.362,1.91 l 5.702,26.55 26.552,5.701 c 1.112,0.239 1.908,1.223 1.908,2.363 0,1.14 -0.796,2.124 -1.908,2.363 z"
   id="path16"
   style="fill:#d7d7db;fill-opacity:1"
   inkscape:connector-curvature="0" />
<path
   d="m 750.253,422.157 c 0.281,-0.798 0.602,-1.703 0.53,-2.253 l -0.022,-0.185 c -0.172,-1.358 -0.405,-3.222 -1.064,-3.935 -3,-3.237 -6.729,-7.266 -7.565,-13.178 -0.416,-2.939 -2.213,-4.73 -5.346,-5.32 -0.497,-0.094 -0.996,-0.206 -1.484,-0.343 -3.83,-1.065 -6.581,-2.712 -8.657,-5.186 -2.981,-3.555 -5.711,-4.402 -9.334,-3.011 -1.688,0.647 -3.509,0.976 -5.408,0.976 -2.394,0 -4.916,-0.49 -7.937,-1.543 -2.32,-0.808 -3.614,-0.636 -4.908,0.728 -2.892,3.042 -7.494,7.19 -14.054,8.075 -2.11,0.285 -3.318,1.458 -4.04,3.92 -0.127,0.438 -0.252,0.881 -0.376,1.326 -0.957,3.434 -2.044,7.327 -5.415,9.88 -4.528,3.424 -4.956,8.142 -5.282,13.605 9.542,-7.237 19.744,-10.902 30.381,-10.902 4.462,0 9.079,0.646 13.725,1.922 15.633,4.293 26.746,14.594 33.077,30.646 0.557,-0.989 1.056,-1.916 1.503,-2.87 1.972,-4.208 2.905,-7.552 1.462,-11.213 -1.299,-3.293 -1.276,-6.797 0.068,-10.716 z"
   id="path18"
   style="fill:#d7d7db;fill-opacity:1"
   inkscape:connector-curvature="0" />
<path
   d="m 679.773,456.499 c 1.456,0 2.614,0.906 3.359,1.588 5.359,4.909 11.565,8.199 18.45,9.782 8.354,1.918 16.413,1.387 23.954,-1.578 6.097,-2.398 11.164,-5.829 15.493,-10.489 0.016,-0.04 0.077,-0.283 0.068,-0.39 -0.799,-2.708 -1.628,-5.111 -2.512,-7.27 -3.856,-9.393 -10.511,-16.419 -19.784,-20.883 -10.636,-5.12 -21.476,-5.712 -32.094,-1.749 -5.149,1.921 -9.691,4.655 -13.888,8.358 l -0.175,0.154 c -2.106,1.857 -2.544,2.521 -1.845,4.002 0.399,0.852 0.693,1.71 0.978,2.54 0.307,0.887 0.594,1.725 0.978,2.464 0.748,1.433 1.573,2.877 2.372,4.273 1.009,1.761 2.05,3.581 2.977,5.451 0.639,1.298 0.349,3.133 -0.317,4.378 0.736,-0.506 1.453,-0.631 1.986,-0.631 z m 21.85,-29.367 c 1.646,-0.372 3.292,-0.56 4.891,-0.56 9.037,0 16.013,5.792 18.209,15.115 2.542,10.8 -3.491,20.381 -14.668,23.3 l -0.152,0.033 c -1.382,0.241 -2.763,0.362 -4.105,0.362 -9.478,0 -16.874,-5.977 -18.85,-15.229 -2.369,-11.079 3.667,-20.547 14.675,-23.021 z"
   id="path20"
   style="fill:#d7d7db;fill-opacity:1"
   inkscape:connector-curvature="0" />
<path
   d="m 381.567,231.157 c 5.254,-5.308 8.922,-11.785 9.968,-19.821 0.446,-3.434 0.028,-7.042 -1.346,-10.289 -0.485,-0.662 -1.03,-1.315 -1.623,-1.958 -2.116,5.335 -3.508,10.717 -6.389,15.122 -6.765,10.356 -17.068,15.928 -29.028,18.25 -3.143,0.609 -6.336,1.011 -9.466,1.011 -5.831,0 -11.44,-1.395 -16.097,-5.437 -0.318,-0.276 -0.604,-0.561 -0.911,-0.841 -1.301,-0.477 -2.455,-1.348 -3.266,-2.542 -0.666,-0.978 -1.242,-2.007 -1.76,-3.066 -6.009,-8.433 -6.266,-18.088 0.959,-28.799 2.675,-3.965 5.756,-7.326 9.127,-10.251 10.181,-10.13 22.828,-15.071 33.415,-18.281 2.036,-0.617 4.1,-1.156 6.18,-1.652 6.982,-2.404 14.132,-4.394 21.266,-6.312 9.667,-2.601 19.431,-4.914 29.255,-6.836 10.969,-2.146 22.052,-3.713 33.086,-5.532 -0.022,-0.179 -0.042,-0.357 -0.064,-0.537 -0.602,0.005 -1.203,0.006 -1.805,0.006 -3.413,0 -6.83,-0.061 -10.242,-0.061 -3.372,0 -6.741,0.059 -10.097,0.294 -17.136,1.201 -34.313,2.25 -51.062,6.551 -11.244,2.886 -22.688,5.181 -33.68,8.829 -10.243,3.4 -19.984,8.299 -29.99,12.433 -15.224,6.289 -28.087,15.818 -38.306,28.65 -5.207,6.538 -8.395,14.23 -7.105,22.886 1.775,11.917 13.483,24.422 25.333,26.599 7.846,1.439 15.872,2.929 23.791,2.929 0.588,0 1.177,-0.008 1.765,-0.025 5.174,-0.149 10.288,-0.622 15.312,-1.449 5.322,-1.627 10.607,-3.337 15.792,-5.184 8.652,-3.078 18.816,-7.412 26.988,-14.687 z"
   id="path22"
   style="fill:#d7d7db;fill-opacity:1"
   inkscape:connector-curvature="0" />

</svg>
