<?xml version="1.0" encoding="UTF-8" standalone="no"?>
<svg
   xmlns:dc="http://purl.org/dc/elements/1.1/"
   xmlns:cc="http://creativecommons.org/ns#"
   xmlns:rdf="http://www.w3.org/1999/02/22-rdf-syntax-ns#"
   xmlns:svg="http://www.w3.org/2000/svg"
   xmlns="http://www.w3.org/2000/svg"
   xmlns:xlink="http://www.w3.org/1999/xlink"
   xmlns:sodipodi="http://sodipodi.sourceforge.net/DTD/sodipodi-0.dtd"
   xmlns:inkscape="http://www.inkscape.org/namespaces/inkscape"
   inkscape:export-ydpi="96"
   inkscape:export-xdpi="96"
   inkscape:export-filename="Template.png"
   width="192"
   height="152"
   id="svg11300"
   sodipodi:version="0.32"
   inkscape:version="1.0.1 (3bc2e813f5, 2020-09-07)"
   sodipodi:docname="org.free_astro.siril.Source.svg"
   inkscape:output_extension="org.inkscape.output.svg.inkscape"
   version="1.0"
   style="display:inline;enable-background:new"
   viewBox="0 0 192 152">
  <title
     id="title4162">Adwaita Icon Template</title>
  <defs
     id="defs3">
    <linearGradient
       id="linearGradient1329"
       gradientUnits="userSpaceOnUse"
       x1="93.903297"
       y1="187.2495"
       x2="93.903297"
       y2="13.0833"
       gradientTransform="translate(177.01576,331.2197)">
      <stop
         offset="0.0306"
         style="stop-color:#8765A9"
         id="stop1323" />
      <stop
         offset="0.51529998"
         style="stop-color:#485BA6"
         id="stop1325" />
      <stop
         offset="1"
         style="stop-color:#003952"
         id="stop1327" />
    </linearGradient>
    <linearGradient
       inkscape:collect="always"
       id="linearGradient1947">
      <stop
         style="stop-color:#deddda;stop-opacity:1"
         offset="0"
         id="stop1943" />
      <stop
         style="stop-color:#ffffff;stop-opacity:0;"
         offset="1"
         id="stop1945" />
    </linearGradient>
    <linearGradient
       inkscape:collect="always"
       id="linearGradient1420">
      <stop
         style="stop-color:#033a55;stop-opacity:1"
         offset="0"
         id="stop1416" />
      <stop
         style="stop-color:#7362a8;stop-opacity:1"
         offset="1"
         id="stop1418" />
    </linearGradient>
    <linearGradient
       id="SVGID_98_"
       gradientUnits="userSpaceOnUse"
       x1="93.903297"
       y1="187.2495"
       x2="93.903297"
       y2="13.0833"
       gradientTransform="translate(177.01576,331.2197)">
      <stop
         offset="0.0306"
         style="stop-color:#8765A9"
         id="stop4254" />
      <stop
         offset="0.41836002"
         style="stop-color:#485BA6"
         id="stop4256" />
      <stop
         offset="1"
         style="stop-color:#003952"
         id="stop4258" />
    </linearGradient>
    <clipPath
       clipPathUnits="userSpaceOnUse"
       id="clipPath1549">
      <path
         style="display:inline;fill:url(#linearGradient1553);fill-opacity:1;stroke:none;stroke-width:0.0112982px;stroke-linecap:butt;stroke-linejoin:miter;stroke-miterlimit:4;stroke-dasharray:none;stroke-dashoffset:0;stroke-opacity:1;marker:none;marker-start:none;marker-mid:none;marker-end:none;paint-order:normal;enable-background:new"
         d="M 64,294.99999 A 59.999995,59.999995 0 0 1 4.00001,235 59.999995,59.999995 0 0 1 64,175 a 59.999995,59.999995 0 0 1 60,60 59.999995,59.999995 0 0 1 -60,59.99999 z"
         id="path1551"
         inkscape:connector-curvature="0" />
    </clipPath>
    <linearGradient
       inkscape:collect="always"
       xlink:href="#linearGradient1420"
       id="linearGradient1553"
       gradientUnits="userSpaceOnUse"
       gradientTransform="rotate(90,64,235)"
       x1="4.00001"
       y1="235"
       x2="89.000008"
       y2="235" />
    <linearGradient
       inkscape:collect="always"
       xlink:href="#linearGradient1947"
       id="linearGradient1949"
       x1="35.892578"
       y1="274"
       x2="47.892578"
       y2="274"
       gradientUnits="userSpaceOnUse"
       gradientTransform="translate(230.10742,-322)" />
    <linearGradient
       inkscape:collect="always"
       xlink:href="#linearGradient1947"
       id="linearGradient1953"
       gradientUnits="userSpaceOnUse"
       gradientTransform="matrix(0.72222222,0,0,0.72222222,234.07758,-292.88889)"
       x1="35.892578"
       y1="274"
       x2="46.969505"
       y2="274" />
    <linearGradient
       inkscape:collect="always"
       xlink:href="#linearGradient1947"
       id="linearGradient1964"
       gradientUnits="userSpaceOnUse"
       gradientTransform="matrix(0.52777778,0,0,0.52777778,240.05669,-172.61111)"
       x1="35.892578"
       y1="274"
       x2="46.969505"
       y2="274" />
    <linearGradient
       inkscape:collect="always"
       xlink:href="#linearGradient1947"
       id="linearGradient1968"
       gradientUnits="userSpaceOnUse"
       gradientTransform="matrix(0.52777778,0,0,0.52777778,238.05669,-207.61111)"
       x1="35.892578"
       y1="274"
       x2="46.969505"
       y2="274" />
    <linearGradient
       inkscape:collect="always"
       xlink:href="#linearGradient1947"
       id="linearGradient1972"
       gradientUnits="userSpaceOnUse"
       gradientTransform="matrix(0.72222222,0,0,0.72222222,249.07758,-276.88889)"
       x1="35.892578"
       y1="274"
       x2="46.969505"
       y2="274" />
    <linearGradient
       inkscape:collect="always"
       xlink:href="#SVGID_98_"
       id="linearGradient1242"
       x1="161.3741"
       y1="233.73611"
       x2="191.96703"
       y2="233.73611"
       gradientUnits="userSpaceOnUse"
       gradientTransform="translate(-532.1875,-15.641722)" />
    <linearGradient
       inkscape:collect="always"
       xlink:href="#linearGradient1329"
       id="linearGradient1242-3"
       x1="165.66393"
       y1="233.73611"
       x2="191.96703"
       y2="233.73611"
       gradientUnits="userSpaceOnUse"
       gradientTransform="matrix(2.2794516,0,0,2.2794516,-630.1376,-468.79013)" />
  </defs>
  <sodipodi:namedview
     stroke="#ef2929"
     fill="#f57900"
     id="base"
     pagecolor="#ffffff"
     bordercolor="#666666"
     borderopacity="0.25490196"
     inkscape:pageopacity="0.0"
     inkscape:pageshadow="2"
     inkscape:zoom="1.3858027"
     inkscape:cx="79.447272"
     inkscape:cy="50.187046"
     inkscape:current-layer="layer1"
     showgrid="false"
     inkscape:grid-bbox="true"
     inkscape:document-units="px"
     inkscape:showpageshadow="false"
     inkscape:window-width="1920"
     inkscape:window-height="1016"
     inkscape:window-x="0"
     inkscape:window-y="0"
     width="400px"
     height="300px"
     inkscape:snap-nodes="true"
     inkscape:snap-bbox="false"
     objecttolerance="7"
     gridtolerance="12"
     guidetolerance="13"
     inkscape:window-maximized="1"
     inkscape:pagecheckerboard="false"
     showguides="false"
     inkscape:guide-bbox="true"
     inkscape:locked="false"
     inkscape:measure-start="0,0"
     inkscape:measure-end="0,0"
     inkscape:object-nodes="true"
     inkscape:bbox-nodes="true"
     inkscape:snap-global="true"
     inkscape:object-paths="true"
     inkscape:snap-intersection-paths="true"
     inkscape:snap-bbox-edge-midpoints="true"
     inkscape:snap-bbox-midpoints="true"
     showborder="true"
     inkscape:snap-center="true"
     inkscape:snap-object-midpoints="true"
     inkscape:snap-midpoints="true"
     inkscape:snap-smooth-nodes="true"
     inkscape:snap-text-baseline="true"
     borderlayer="true"
     inkscape:document-rotation="0">
    <inkscape:grid
       type="xygrid"
       id="grid5883"
       spacingx="2"
       spacingy="2"
       enabled="true"
       visible="true"
       empspacing="4"
       originx="8"
       originy="8" />
    <sodipodi:guide
       position="72,16"
       orientation="0,1"
       id="guide1073"
       inkscape:locked="false"
       inkscape:label=""
       inkscape:color="rgb(0,0,255)" />
    <sodipodi:guide
       position="20,72"
       orientation="1,0"
       id="guide1075"
       inkscape:locked="false"
       inkscape:label=""
       inkscape:color="rgb(0,0,255)" />
    <sodipodi:guide
       position="72,112"
       orientation="0,1"
       id="guide1099"
       inkscape:locked="false"
       inkscape:label=""
       inkscape:color="rgb(0,0,255)" />
    <sodipodi:guide
       position="72,136"
       orientation="0,1"
       id="guide993"
       inkscape:locked="false"
       inkscape:label=""
       inkscape:color="rgb(0,0,255)" />
    <sodipodi:guide
       position="112,72"
       orientation="1,0"
       id="guide995"
       inkscape:locked="false"
       inkscape:label=""
       inkscape:color="rgb(0,0,255)" />
    <sodipodi:guide
       position="8.0000001,72"
       orientation="1,0"
       id="guide867"
       inkscape:locked="false"
       inkscape:label=""
       inkscape:color="rgb(0,0,255)" />
    <sodipodi:guide
       position="128,72"
       orientation="1,0"
       id="guide869"
       inkscape:locked="false"
       inkscape:label=""
       inkscape:color="rgb(0,0,255)" />
    <sodipodi:guide
       position="72,124"
       orientation="0,1"
       id="guide871"
       inkscape:locked="false"
       inkscape:label=""
       inkscape:color="rgb(0,0,255)" />
    <inkscape:grid
       type="xygrid"
       id="grid873"
       spacingx="1"
       spacingy="1"
       empspacing="8"
       color="#000000"
       opacity="0.49019608"
       empcolor="#000000"
       empopacity="0.08627451"
       dotted="true"
       originx="8"
       originy="8" />
    <sodipodi:guide
       position="32,72"
       orientation="1,0"
       id="guide877"
       inkscape:locked="false"
       inkscape:label=""
       inkscape:color="rgb(0,0,255)" />
    <sodipodi:guide
       position="124,72"
       orientation="1,0"
       id="guide879"
       inkscape:locked="false"
       inkscape:label=""
       inkscape:color="rgb(0,0,255)" />
    <sodipodi:guide
       position="72,128"
       orientation="0,1"
       id="guide881"
       inkscape:locked="false"
       inkscape:label=""
       inkscape:color="rgb(0,0,255)" />
    <sodipodi:guide
       position="72,20"
       orientation="0,1"
       id="guide883"
       inkscape:locked="false"
       inkscape:label=""
       inkscape:color="rgb(0,0,255)" />
    <sodipodi:guide
       position="16,72"
       orientation="1,0"
       id="guide885"
       inkscape:locked="false"
       inkscape:label=""
       inkscape:color="rgb(0,0,255)" />
    <sodipodi:guide
       position="136,72"
       orientation="1,0"
       id="guide887"
       inkscape:locked="false"
       inkscape:label=""
       inkscape:color="rgb(0,0,255)" />
    <sodipodi:guide
       position="72,8"
       orientation="0,1"
       id="guide897"
       inkscape:locked="false"
       inkscape:label=""
       inkscape:color="rgb(0,0,255)" />
    <sodipodi:guide
       position="72,32"
       orientation="0,1"
       id="guide899"
       inkscape:locked="false"
       inkscape:label=""
       inkscape:color="rgb(0,0,255)" />
    <sodipodi:guide
       position="264,264"
       orientation="-0.70710678,0.70710678"
       id="guide950"
       inkscape:locked="false"
       inkscape:label=""
       inkscape:color="rgb(0,0,255)" />
    <sodipodi:guide
       position="72,72"
       orientation="0.70710678,0.70710678"
       id="guide952"
       inkscape:locked="false"
       inkscape:label=""
       inkscape:color="rgb(0,0,255)" />
  </sodipodi:namedview>
  <metadata
     id="metadata4">
    <rdf:RDF>
      <cc:Work
         rdf:about="">
        <dc:format>image/svg+xml</dc:format>
        <dc:type
           rdf:resource="http://purl.org/dc/dcmitype/StillImage" />
        <dc:creator>
          <cc:Agent>
            <dc:title>GNOME Design Team</dc:title>
          </cc:Agent>
        </dc:creator>
        <dc:source />
        <cc:license
           rdf:resource="http://creativecommons.org/licenses/by-sa/4.0/" />
        <dc:title>Adwaita Icon Template</dc:title>
        <dc:subject>
          <rdf:Bag />
        </dc:subject>
        <dc:date />
        <dc:rights>
          <cc:Agent>
            <dc:title />
          </cc:Agent>
        </dc:rights>
        <dc:publisher>
          <cc:Agent>
            <dc:title />
          </cc:Agent>
        </dc:publisher>
        <dc:identifier />
        <dc:relation />
        <dc:language />
        <dc:coverage />
        <dc:description />
        <dc:contributor>
          <cc:Agent>
            <dc:title />
          </cc:Agent>
        </dc:contributor>
      </cc:Work>
      <cc:License
         rdf:about="http://creativecommons.org/licenses/by-sa/4.0/">
        <cc:permits
           rdf:resource="http://creativecommons.org/ns#Reproduction" />
        <cc:permits
           rdf:resource="http://creativecommons.org/ns#Distribution" />
        <cc:requires
           rdf:resource="http://creativecommons.org/ns#Notice" />
        <cc:requires
           rdf:resource="http://creativecommons.org/ns#Attribution" />
        <cc:permits
           rdf:resource="http://creativecommons.org/ns#DerivativeWorks" />
        <cc:requires
           rdf:resource="http://creativecommons.org/ns#ShareAlike" />
      </cc:License>
    </rdf:RDF>
  </metadata>
  <g
     id="layer1"
     inkscape:label="App Icon"
     inkscape:groupmode="layer"
     style="display:inline"
     transform="translate(8,-156)">
    <g
       inkscape:groupmode="layer"
       id="layer4"
       inkscape:label="template"
       style="display:inline"
       sodipodi:insensitive="true">
      <rect
         inkscape:label="0"
         y="172"
         x="9.2651362e-08"
         height="128"
         width="128"
         id="hicolor"
         style="display:inline;overflow:visible;visibility:visible;fill:#f0f0f0;fill-opacity:0;fill-rule:nonzero;stroke:none;stroke-width:0.5;marker:none;enable-background:accumulate" />
      <rect
         style="display:inline;overflow:visible;visibility:visible;fill:#f0f0f0;fill-opacity:0;fill-rule:nonzero;stroke:none;stroke-width:0.5;marker:none;enable-background:accumulate"
         id="symbolic"
         width="16"
         height="16"
         x="160"
         y="172"
         inkscape:label="0" />
    </g>
    <g
       inkscape:groupmode="layer"
       id="layer2"
       inkscape:label="baseplate"
       style="display:none"
       sodipodi:insensitive="true">
      <g
         style="display:inline;fill:#000000;enable-background:new"
         transform="matrix(7.9911709,0,0,8.0036407,-167.7909,-4846.0776)"
         id="g12027"
         inkscape:export-xdpi="12"
         inkscape:export-ydpi="12" />
      <rect
         style="display:inline;overflow:visible;visibility:visible;fill:#f0f0f0;fill-opacity:1;fill-rule:nonzero;stroke:none;stroke-width:0.5;marker:none;enable-background:accumulate"
         id="128"
         width="128"
         height="128"
         x="9.2651362e-08"
         y="172"
         inkscape:label="0" />
      <g
         id="g883"
         style="fill:none;fill-opacity:0.25098;stroke:#a579b3;stroke-opacity:1"
         transform="translate(-24,24)" />
      <g
         id="g900"
         style="fill:none;fill-opacity:0.25098;stroke:#a579b3;stroke-opacity:1"
         transform="translate(-24,24)" />
      <rect
         inkscape:label=""
         y="172"
         x="160"
         height="16"
         width="16"
         id="16"
         style="display:inline;overflow:visible;visibility:visible;fill:#f0f0f0;fill-opacity:1;fill-rule:nonzero;stroke:none;stroke-width:0.5;marker:none;enable-background:accumulate" />
      <text
         xml:space="preserve"
         style="font-style:normal;font-variant:normal;font-weight:bold;font-stretch:normal;font-size:4px;line-height:125%;font-family:Cantarell;-inkscape-font-specification:'Cantarell, Bold';text-align:start;writing-mode:lr-tb;text-anchor:start;display:inline;fill:#000000;fill-opacity:1;stroke:none;stroke-width:0.332649;enable-background:new"
         x="0"
         y="167"
         id="text863"
         inkscape:label="icon-name"><tspan
           style="font-size:4px;stroke-width:0.332649"
           sodipodi:role="line"
           id="tspan861"
           x="0"
           y="167">Hicolor</tspan></text>
      <text
         inkscape:label="icon-name"
         id="text867"
         y="167"
         x="160"
         style="font-style:normal;font-variant:normal;font-weight:bold;font-stretch:normal;font-size:4px;line-height:125%;font-family:Cantarell;-inkscape-font-specification:'Cantarell, Bold';text-align:start;writing-mode:lr-tb;text-anchor:start;display:inline;fill:#000000;fill-opacity:1;stroke:none;stroke-width:0.332649;enable-background:new"
         xml:space="preserve"><tspan
           y="167"
           x="160"
           id="tspan865"
           sodipodi:role="line"
           style="font-size:4px;stroke-width:0.332649">Symbolic</tspan></text>
    </g>
    <g
       inkscape:groupmode="layer"
       id="layer9"
       inkscape:label="icons"
       style="display:inline" />
    <g
       inkscape:groupmode="layer"
       id="layer3"
       inkscape:label="grid"
       style="display:none"
       sodipodi:insensitive="true">
      <circle
         cx="64.000031"
         cy="236"
         r="59.504131"
         id="circle2892"
         style="display:inline;opacity:0.1;vector-effect:none;fill:none;fill-opacity:1;stroke:#000000;stroke-width:0.99;stroke-linecap:butt;stroke-linejoin:miter;stroke-miterlimit:4;stroke-dasharray:0.99, 0.99;stroke-dashoffset:0;stroke-opacity:1;marker:none;marker-start:none;marker-mid:none;marker-end:none;paint-order:normal;enable-background:new" />
      <rect
         ry="7.9292889"
         rx="8.701004"
         y="180.49496"
         x="20.495007"
         height="111.01005"
         width="87.009987"
         id="rect2894"
         style="display:inline;opacity:0.1;vector-effect:none;fill:none;fill-opacity:1;stroke:#000000;stroke-width:0.99;stroke-linecap:butt;stroke-linejoin:miter;stroke-miterlimit:4;stroke-dasharray:0.99, 0.99;stroke-dashoffset:0;stroke-opacity:1;marker:none;marker-start:none;marker-mid:none;marker-end:none;paint-order:normal;enable-background:new" />
      <rect
         ry="7.9238095"
         rx="7.9238095"
         y="184.49524"
         x="12.495266"
         height="103.00952"
         width="103.00952"
         id="rect2896"
         style="display:inline;opacity:0.1;vector-effect:none;fill:none;fill-opacity:1;stroke:#000000;stroke-width:0.99;stroke-linecap:butt;stroke-linejoin:miter;stroke-miterlimit:4;stroke-dasharray:0.99, 0.99;stroke-dashoffset:0;stroke-opacity:1;marker:none;marker-start:none;marker-mid:none;marker-end:none;paint-order:normal;enable-background:new" />
      <rect
         ry="8.701005"
         rx="7.9292889"
         y="200.49496"
         x="8.4950066"
         height="87.010048"
         width="111.01004"
         id="rect2898"
         style="display:inline;opacity:0.1;vector-effect:none;fill:none;fill-opacity:1;stroke:#000000;stroke-width:0.99;stroke-linecap:butt;stroke-linejoin:miter;stroke-miterlimit:4;stroke-dasharray:0.99, 0.99;stroke-dashoffset:0;stroke-opacity:1;marker:none;marker-start:none;marker-mid:none;marker-end:none;paint-order:normal;enable-background:new" />
      <path
         inkscape:connector-curvature="0"
         id="path2900"
         d="M 2.6203015e-5,288.99999 H 128.00003"
         style="display:inline;fill:none;stroke:#62a0ea;stroke-width:2;stroke-linecap:butt;stroke-linejoin:miter;stroke-miterlimit:4;stroke-dasharray:none;stroke-opacity:1;enable-background:new" />
    </g>
    <circle
       style="display:inline;fill:#deddda;fill-opacity:1;stroke-width:2;stroke-linecap:square;stroke-linejoin:round;stroke-dasharray:8.00001, 8.00001;enable-background:new"
       id="path1286"
       transform="rotate(-90)"
       cx="-237"
       cy="64.000008"
       r="60" />
    <path
       id="path1335"
       style="fill:#543d6c;stroke:none;stroke-width:1px;stroke-linecap:butt;stroke-linejoin:miter;stroke-opacity:1;fill-opacity:1"
       d="M 12.189453 76.25 A 60 60 0 0 0 12 81 A 60 60 0 0 0 15.675781 101.67383 L 15.675781 99.679688 L 128.92188 97.972656 L 128.99023 99.759766 A 60 60 0 0 0 132 81 A 60 60 0 0 0 131.81055 76.25 L 12.189453 76.25 z "
       transform="translate(-8,156)" />
    <rect
       style="display:inline;fill:#d5d3cf;fill-opacity:1;stroke:none;stroke-width:0.0112982px;stroke-linecap:butt;stroke-linejoin:miter;stroke-miterlimit:4;stroke-dasharray:none;stroke-dashoffset:0;stroke-opacity:1;marker:none;marker-start:none;marker-mid:none;marker-end:none;paint-order:normal;enable-background:new"
       id="rect978-5"
       width="112"
       height="114"
       x="8.0000992"
       y="179"
       rx="56"
       ry="56" />
    <path
       style="display:inline;fill:url(#linearGradient1242-3);fill-opacity:1;stroke-width:2;stroke-linecap:square;stroke-linejoin:round;stroke-dasharray:8.00001, 8.00001;enable-background:new"
       id="path411-3"
       transform="rotate(-90)"
       sodipodi:type="arc"
       sodipodi:cx="-235"
       sodipodi:cy="64.000008"
       sodipodi:rx="60"
       sodipodi:ry="60"
       sodipodi:start="4.3527968"
       sodipodi:end="1.8994391"
       sodipodi:open="true"
       sodipodi:arc-type="arc"
       d="m -256.11355,7.837583 a 60,60 0 0 1 68.74101,19.670981 60,60 0 0 1 1.1064,71.491605 60,60 0 0 1 -68.09938,21.788711" />
    <path
       fill="url(#SVGID_95_)"
       d="m 97.5085,199.432 -5.016999,1.0775 -1.077502,5.0175 c -0.04498,0.21 -0.230513,0.36099 -0.4475,0.36099 -0.215017,0 -0.401,-0.1505 -0.4455,-0.36099 l -1.077997,-5.0175 -5.017501,-1.0775 c -0.20999,-0.045 -0.36,-0.231 -0.36,-0.4465 0,-0.21551 0.15001,-0.4015 0.36,-0.447 l 5.017501,-1.077 1.077997,-5.0175 c 0.04452,-0.21052 0.230513,-0.36049 0.4455,-0.36049 0.216983,0 0.402501,0.14997 0.4475,0.36049 l 1.077502,5.0175 5.016999,1.077 c 0.21101,0.0455 0.36151,0.2315 0.36151,0.447 0,0.21502 -0.1505,0.401 -0.36151,0.4465 z"
       id="path1665-8"
       style="display:inline;fill:#ffffff;fill-opacity:1;stroke-width:0.999999;enable-background:new"
       sodipodi:nodetypes="cccscccscccscccsc" />
    <g
       id="g1545"
       clip-path="url(#clipPath1549)">
      <circle
         style="opacity:1;fill:#ffffff;fill-opacity:1;stroke-width:2;stroke-linecap:square;stroke-linejoin:round;stroke-dasharray:8, 8"
         id="path1518"
         cx="13"
         cy="263"
         r="9" />
      <circle
         style="opacity:1;fill:#ffffff;fill-opacity:1;stroke-width:2;stroke-linecap:square;stroke-linejoin:round;stroke-dasharray:8, 8"
         id="circle1520"
         cx="32"
         cy="267.5"
         r="18.5" />
      <circle
         style="opacity:1;fill:#ffffff;fill-opacity:1;stroke-width:2;stroke-linecap:square;stroke-linejoin:round;stroke-dasharray:8, 8"
         id="circle1522"
         cx="50"
         cy="260"
         r="10" />
      <circle
         style="opacity:1;fill:#ffffff;fill-opacity:1;stroke-width:2.00001;stroke-linecap:square;stroke-linejoin:round;stroke-dasharray:8.00001, 8.00001"
         id="circle1524"
         cx="70"
         cy="264"
         r="18" />
      <circle
         style="opacity:1;fill:#ffffff;fill-opacity:1;stroke-width:2;stroke-linecap:square;stroke-linejoin:round;stroke-dasharray:8.00001, 8.00001"
         id="circle1526"
         cx="112"
         cy="262"
         r="12" />
      <circle
         style="opacity:1;fill:#ffffff;fill-opacity:1;stroke-width:1.99999;stroke-linecap:square;stroke-linejoin:round;stroke-dasharray:8.00005, 8.00005"
         id="circle1528"
         cx="94"
         cy="267"
         r="17" />
      <path
         id="path1531"
         style="display:inline;opacity:1;fill:#ffffff;fill-opacity:1;stroke:none;stroke-width:0.0112982px;stroke-linecap:butt;stroke-linejoin:miter;stroke-miterlimit:4;stroke-dasharray:none;stroke-dashoffset:0;stroke-opacity:1;marker:none;marker-start:none;marker-mid:none;marker-end:none;paint-order:normal;enable-background:new"
         d="M 6.458984,264 A 59.999995,59.999995 0 0 0 64,307 59.999995,59.999995 0 0 0 121.54102,264 Z" />
      <circle
         style="opacity:1;fill:url(#linearGradient1949);fill-opacity:1;stroke-width:2.00001;stroke-linecap:square;stroke-linejoin:round;stroke-dasharray:8.00001, 8.00001"
         id="circle1941"
         cx="284"
         cy="-48"
         r="18"
         transform="rotate(90)" />
      <circle
         style="opacity:1;fill:url(#linearGradient1953);fill-opacity:1;stroke-width:2.00001;stroke-linecap:square;stroke-linejoin:round;stroke-dasharray:8, 8"
         id="circle1951"
         cx="273"
         cy="-95"
         r="13"
         transform="rotate(90)" />
      <circle
         style="opacity:1;fill:url(#linearGradient1964);fill-opacity:1;stroke-width:2.00001;stroke-linecap:square;stroke-linejoin:round;stroke-dasharray:8.00002, 8.00002"
         id="circle1962"
         cx="268.5"
         cy="-28"
         r="9.5"
         transform="rotate(90)" />
      <circle
         style="opacity:1;fill:url(#linearGradient1968);fill-opacity:1;stroke-width:2.00001;stroke-linecap:square;stroke-linejoin:round;stroke-dasharray:8.00002, 8.00002"
         id="circle1966"
         cx="266.5"
         cy="-63"
         r="9.5"
         transform="rotate(90)" />
      <circle
         style="opacity:1;fill:url(#linearGradient1972);fill-opacity:1;stroke-width:2.00001;stroke-linecap:square;stroke-linejoin:round;stroke-dasharray:8, 8"
         id="circle1970"
         cx="288"
         cy="-79"
         r="13"
         transform="rotate(90)" />
    </g>
    <path
       fill="url(#SVGID_95_)"
       d="m 38.5085,232.432 -5.016999,1.0775 -1.077502,5.0175 c -0.04498,0.21 -0.230513,0.36099 -0.4475,0.36099 -0.215017,0 -0.401,-0.1505 -0.4455,-0.36099 l -1.077997,-5.0175 -5.017501,-1.0775 c -0.20999,-0.045 -0.36,-0.231 -0.36,-0.4465 0,-0.21551 0.15001,-0.4015 0.36,-0.447 l 5.017501,-1.077 1.077997,-5.0175 c 0.04452,-0.21052 0.230513,-0.36049 0.4455,-0.36049 0.216983,0 0.402501,0.14997 0.4475,0.36049 l 1.077502,5.0175 5.016999,1.077 c 0.21101,0.0455 0.36151,0.2315 0.36151,0.447 0,0.21502 -0.1505,0.401 -0.36151,0.4465 z"
       id="path1760"
       style="display:inline;fill:#ffffff;fill-opacity:1;stroke-width:0.999999;enable-background:new"
       sodipodi:nodetypes="cccscccscccscccsc" />
    <path
       fill="url(#SVGID_95_)"
       d="m 23.78724,215.75789 -2.508589,0.53877 -0.53877,2.50884 c -0.0225,0.105 -0.115261,0.1805 -0.223758,0.1805 -0.107512,0 -0.200508,-0.0752 -0.222758,-0.1805 l -0.539018,-2.50884 -2.50884,-0.53877 c -0.104998,-0.0225 -0.180006,-0.11551 -0.180006,-0.22325 0,-0.10777 0.07501,-0.20077 0.180006,-0.22352 l 2.50884,-0.53852 0.539018,-2.50884 c 0.02226,-0.10525 0.11526,-0.18025 0.222758,-0.18025 0.108495,0 0.201257,0.075 0.223758,0.18025 l 0.53877,2.50884 2.508589,0.53852 c 0.105508,0.0228 0.180761,0.11576 0.180761,0.22352 0,0.10751 -0.07525,0.2005 -0.180761,0.22325 z"
       id="path1762"
       style="display:inline;fill:#ffffff;fill-opacity:1;stroke-width:1;enable-background:new"
       sodipodi:nodetypes="cccscccscccscccsc" />
    <path
       fill="url(#SVGID_95_)"
       d="m 64.78724,226.75789 -2.508589,0.53877 -0.53877,2.50884 c -0.0225,0.105 -0.115261,0.1805 -0.223758,0.1805 -0.107512,0 -0.200508,-0.0752 -0.222758,-0.1805 l -0.539018,-2.50884 -2.50884,-0.53877 c -0.104998,-0.0225 -0.180006,-0.11551 -0.180006,-0.22325 0,-0.10777 0.07501,-0.20077 0.180006,-0.22352 l 2.50884,-0.53852 0.539018,-2.50884 c 0.02226,-0.10525 0.11526,-0.18025 0.222758,-0.18025 0.108495,0 0.201257,0.075 0.223758,0.18025 l 0.53877,2.50884 2.508589,0.53852 c 0.105508,0.0228 0.180761,0.11576 0.180761,0.22352 0,0.10751 -0.07525,0.2005 -0.180761,0.22325 z"
       id="path1764"
       style="display:inline;fill:#ffffff;fill-opacity:1;stroke-width:1;enable-background:new"
       sodipodi:nodetypes="cccscccscccscccsc" />
    <path
       fill="url(#SVGID_95_)"
       d="m 113.78724,235.75789 -2.50859,0.53877 -0.53877,2.50884 c -0.0225,0.105 -0.11526,0.1805 -0.22376,0.1805 -0.10751,0 -0.20051,-0.0752 -0.22276,-0.1805 l -0.53901,-2.50884 -2.50884,-0.53877 c -0.105,-0.0225 -0.18001,-0.11551 -0.18001,-0.22325 0,-0.10777 0.075,-0.20077 0.18001,-0.22352 l 2.50884,-0.53852 0.53901,-2.50884 c 0.0223,-0.10525 0.11527,-0.18025 0.22276,-0.18025 0.1085,0 0.20126,0.075 0.22376,0.18025 l 0.53877,2.50884 2.50859,0.53852 c 0.10551,0.0228 0.18076,0.11576 0.18076,0.22352 0,0.10751 -0.0752,0.2005 -0.18076,0.22325 z"
       id="path1766"
       style="display:inline;fill:#ffffff;fill-opacity:1;stroke-width:1;enable-background:new"
       sodipodi:nodetypes="cccscccscccscccsc" />
    <path
       sodipodi:type="spiral"
       style="display:inline;fill:none;fill-rule:evenodd;stroke:#ffffff;stroke-width:2.60581;enable-background:new"
       id="path1785-7"
       sodipodi:cx="51.911522"
       sodipodi:cy="201.97768"
       sodipodi:expansion="3.22"
       sodipodi:revolution="2.8893099"
       sodipodi:radius="22.4011"
       sodipodi:argument="-15.595445"
       sodipodi:t0="0.62832493"
       transform="matrix(0.57558644,0,0,0.57568763,21.120447,85.700125)"
       d="m 49.403146,206.32231 c -3.505381,-0.88934 -5.011654,-4.88838 -4.073862,-8.14489 1.462447,-5.0784 7.312541,-7.21178 12.072503,-5.70917 7.079979,2.235 10.001533,10.46421 7.739014,17.14735 -3.23901,9.56755 -14.450147,13.45884 -23.533471,10.20947 -3.187003,-1.14009 -6.071064,-3.06103 -8.396974,-5.5155" />
    <path
       sodipodi:type="spiral"
       style="display:inline;fill:none;fill-rule:evenodd;stroke:#ffffff;stroke-width:2.60581;enable-background:new"
       id="path1789-9"
       sodipodi:cx="-52.328533"
       sodipodi:cy="-201.9706"
       sodipodi:expansion="3.22"
       sodipodi:revolution="2.8893099"
       sodipodi:radius="22.4011"
       sodipodi:argument="-15.595445"
       sodipodi:t0="0.62832493"
       transform="matrix(-0.57558644,0,0,-0.57568763,21.120447,86.700125)"
       d="m -54.836909,-197.62596 c -3.505381,-0.88935 -5.011654,-4.88838 -4.073862,-8.14489 1.462447,-5.0784 7.312541,-7.21178 12.072503,-5.70917 7.079979,2.235 10.001533,10.46421 7.739014,17.14735 -3.23901,9.56755 -14.450147,13.45884 -23.533471,10.20946 -3.187003,-1.14008 -6.071064,-3.06103 -8.396974,-5.51549" />
    <g
       id="g1857"
       transform="rotate(15,89,234.09576)">
      <circle
         style="opacity:1;fill:none;fill-opacity:1;stroke:#ffffff;stroke-width:1.5;stroke-linecap:round;stroke-linejoin:round;stroke-miterlimit:4;stroke-dasharray:none"
         id="path1835"
         cx="88"
         cy="223.5"
         r="6.5" />
      <circle
         style="opacity:1;fill:none;fill-opacity:1;stroke:#ffffff;stroke-width:1.5;stroke-linecap:round;stroke-linejoin:round;stroke-miterlimit:4;stroke-dasharray:none"
         id="circle1839"
         cx="88"
         cy="229.5"
         r="6.5" />
      <circle
         style="opacity:1;fill:none;fill-opacity:1;stroke:#ffffff;stroke-width:1.5;stroke-linecap:round;stroke-linejoin:round;stroke-miterlimit:4;stroke-dasharray:none"
         id="path1841"
         cx="88"
         cy="226.5"
         r="1.5" />
    </g>
    <g
       id="g2008"
       transform="translate(0,0.036095)">
      <path
         style="color:#000000;font-style:normal;font-variant:normal;font-weight:normal;font-stretch:normal;font-size:medium;line-height:normal;font-family:sans-serif;font-variant-ligatures:normal;font-variant-position:normal;font-variant-caps:normal;font-variant-numeric:normal;font-variant-alternates:normal;font-variant-east-asian:normal;font-feature-settings:normal;font-variation-settings:normal;text-indent:0;text-align:start;text-decoration:none;text-decoration-line:none;text-decoration-style:solid;text-decoration-color:#000000;letter-spacing:normal;word-spacing:normal;text-transform:none;writing-mode:lr-tb;direction:ltr;text-orientation:mixed;dominant-baseline:auto;baseline-shift:baseline;text-anchor:start;white-space:normal;shape-padding:0;shape-margin:0;inline-size:0;clip-rule:nonzero;display:inline;overflow:visible;visibility:visible;opacity:1;isolation:auto;mix-blend-mode:normal;color-interpolation:sRGB;color-interpolation-filters:linearRGB;solid-color:#000000;solid-opacity:1;vector-effect:none;fill:#241f31;fill-opacity:1;fill-rule:evenodd;stroke:none;stroke-width:1.5;stroke-linecap:butt;stroke-linejoin:miter;stroke-miterlimit:4;stroke-dasharray:none;stroke-dashoffset:0;stroke-opacity:1;color-rendering:auto;image-rendering:auto;shape-rendering:auto;text-rendering:auto;enable-background:new;stop-color:#000000;stop-opacity:1"
         d="m 168.56986,175.36623 c -1.60967,0.092 -3.15683,1.03546 -3.64561,2.73208 -0.21886,0.7597 -0.15499,1.57269 0.17152,2.28299 0.32651,0.7103 0.95568,1.3282 1.81377,1.54582 l 0.36873,-1.4535 c -0.38818,-0.0985 -0.64992,-0.34976 -0.81939,-0.71842 -0.16947,-0.36867 -0.20691,-0.84415 -0.0924,-1.2418 0.3882,-1.34749 2.01593,-1.94111 3.34563,-1.52152 2.06958,0.65306 2.94805,3.12627 2.26652,5.13862 -1.00279,2.96094 -4.53743,4.18738 -7.4037,3.16244 -1.01661,-0.36353 -1.94519,-0.98058 -2.69358,-1.77002 l -1.08882,1.03216 c 0.90548,0.95516 2.02731,1.70358 3.27687,2.15041 3.59258,1.28466 8.02962,-0.25442 9.32998,-4.09396 0.92727,-2.73794 -0.27116,-6.11402 -3.23591,-7.04956 -0.51374,-0.16211 -1.0571,-0.22641 -1.59365,-0.19574 z"
         id="path2000" />
      <path
         style="color:#000000;font-style:normal;font-variant:normal;font-weight:normal;font-stretch:normal;font-size:medium;line-height:normal;font-family:sans-serif;font-variant-ligatures:normal;font-variant-position:normal;font-variant-caps:normal;font-variant-numeric:normal;font-variant-alternates:normal;font-variant-east-asian:normal;font-feature-settings:normal;font-variation-settings:normal;text-indent:0;text-align:start;text-decoration:none;text-decoration-line:none;text-decoration-style:solid;text-decoration-color:#000000;letter-spacing:normal;word-spacing:normal;text-transform:none;writing-mode:lr-tb;direction:ltr;text-orientation:mixed;dominant-baseline:auto;baseline-shift:baseline;text-anchor:start;white-space:normal;shape-padding:0;shape-margin:0;inline-size:0;clip-rule:nonzero;display:inline;overflow:visible;visibility:visible;opacity:1;isolation:auto;mix-blend-mode:normal;color-interpolation:sRGB;color-interpolation-filters:linearRGB;solid-color:#000000;solid-opacity:1;vector-effect:none;fill:#241f31;fill-opacity:1;fill-rule:evenodd;stroke:none;stroke-width:1.5;stroke-linecap:butt;stroke-linejoin:miter;stroke-miterlimit:4;stroke-dasharray:none;stroke-dashoffset:0;stroke-opacity:1;color-rendering:auto;image-rendering:auto;shape-rendering:auto;text-rendering:auto;enable-background:new;stop-color:#000000;stop-opacity:1"
         d="m 167.54978,184.56089 c 1.60966,-0.092 3.15614,-1.03477 3.64491,-2.73139 0.21886,-0.7597 0.15569,-1.57338 -0.17082,-2.28368 -0.32651,-0.7103 -0.95568,-1.3282 -1.81377,-1.54582 l -0.36873,1.4542 c 0.38818,0.0984 0.64992,0.34906 0.81939,0.71772 0.16947,0.36867 0.20691,0.84484 0.0924,1.24249 -0.3882,1.34749 -2.01593,1.94111 -3.34563,1.52153 -2.06958,-0.65307 -2.94805,-3.12628 -2.26652,-5.13862 1.00279,-2.96095 4.53743,-4.18809 7.4037,-3.16314 1.01661,0.36352 1.94519,0.98058 2.69358,1.77002 l 1.08882,-1.03147 c -0.90548,-0.95515 -2.02731,-1.70358 -3.27687,-2.15041 -3.59258,-1.28466 -8.02962,0.25442 -9.32998,4.09396 -0.92727,2.73794 0.27116,6.11402 3.23591,7.04956 0.51374,0.16211 1.0571,0.22572 1.59365,0.19505 z"
         id="path2004" />
    </g>
    <g
       id="g1333">
      <path
         sodipodi:type="spiral"
         style="display:inline;fill:none;fill-rule:evenodd;stroke:#241f31;stroke-width:4.21985;enable-background:new"
         id="path1992"
         sodipodi:cx="51.911522"
         sodipodi:cy="201.97768"
         sodipodi:expansion="3.22"
         sodipodi:revolution="2.8893099"
         sodipodi:radius="22.4011"
         sodipodi:argument="-15.595445"
         sodipodi:t0="0.62832493"
         d="m 49.403146,206.32231 c -3.505381,-0.88934 -5.011654,-4.88838 -4.073862,-8.14489 1.462447,-5.0784 7.312541,-7.21178 12.072503,-5.70917 7.079979,2.235 10.001533,10.46421 7.739014,17.14735 -3.23901,9.56755 -14.450147,13.45884 -23.533471,10.20947 -3.187003,-1.14009 -6.071064,-3.06103 -8.396974,-5.5155"
         transform="matrix(0.35553335,0,0,0.35539298,199.52938,108.15906)" />
      <path
         sodipodi:type="spiral"
         style="display:inline;fill:none;fill-rule:evenodd;stroke:#241f31;stroke-width:4.21985;enable-background:new"
         id="path1994"
         sodipodi:cx="-52.328533"
         sodipodi:cy="-201.9706"
         sodipodi:expansion="3.22"
         sodipodi:revolution="2.8893099"
         sodipodi:radius="22.4011"
         sodipodi:argument="-15.595445"
         sodipodi:t0="0.62832493"
         d="m -54.836909,-197.62596 c -3.505381,-0.88935 -5.011654,-4.88838 -4.073862,-8.14489 1.462447,-5.0784 7.312541,-7.21178 12.072503,-5.70917 7.079979,2.235 10.001533,10.46421 7.739014,17.14735 -3.23901,9.56755 -14.450147,13.45884 -23.533471,10.20946 -3.187003,-1.14008 -6.071064,-3.06103 -8.396974,-5.51549"
         transform="matrix(-0.35553335,0,0,-0.35539298,199.52938,108.77639)" />
    </g>
  </g>
</svg>
