<?xml version="1.0" encoding="UTF-8"?>
<svg height="128px" viewBox="0 0 128 128" width="128px" xmlns="http://www.w3.org/2000/svg" xmlns:xlink="http://www.w3.org/1999/xlink">
    <linearGradient id="a" gradientTransform="matrix(0 -2.279452 2.279452 0 -468.790131 458.137573)" gradientUnits="userSpaceOnUse" x1="165.663925" x2="191.967026" y1="233.736115" y2="233.736115">
        <stop offset="0.0306" stop-color="#8765a9"/>
        <stop offset="0.5153" stop-color="#485ba6"/>
        <stop offset="1" stop-color="#003952"/>
    </linearGradient>
    <clipPath id="b">
        <path d="m 4 82 h 18 v 18 h -18 z m 0 0"/>
    </clipPath>
    <clipPath id="c">
        <path d="m 64 123 c -33.136719 0 -60 -26.863281 -60 -60 s 26.863281 -60 60 -60 s 60 26.863281 60 60 s -26.863281 60 -60 60 z m 0 0"/>
    </clipPath>
    <clipPath id="d">
        <path d="m 13 77 h 38 v 37 h -38 z m 0 0"/>
    </clipPath>
    <clipPath id="e">
        <path d="m 64 123 c -33.136719 0 -60 -26.863281 -60 -60 s 26.863281 -60 60 -60 s 60 26.863281 60 60 s -26.863281 60 -60 60 z m 0 0"/>
    </clipPath>
    <clipPath id="f">
        <path d="m 40 78 h 20 v 20 h -20 z m 0 0"/>
    </clipPath>
    <clipPath id="g">
        <path d="m 64 123 c -33.136719 0 -60 -26.863281 -60 -60 s 26.863281 -60 60 -60 s 60 26.863281 60 60 s -26.863281 60 -60 60 z m 0 0"/>
    </clipPath>
    <clipPath id="h">
        <path d="m 52 74 h 36 v 36 h -36 z m 0 0"/>
    </clipPath>
    <clipPath id="i">
        <path d="m 64 123 c -33.136719 0 -60 -26.863281 -60 -60 s 26.863281 -60 60 -60 s 60 26.863281 60 60 s -26.863281 60 -60 60 z m 0 0"/>
    </clipPath>
    <clipPath id="j">
        <path d="m 100 78 h 24 v 24 h -24 z m 0 0"/>
    </clipPath>
    <clipPath id="k">
        <path d="m 64 123 c -33.136719 0 -60 -26.863281 -60 -60 s 26.863281 -60 60 -60 s 60 26.863281 60 60 s -26.863281 60 -60 60 z m 0 0"/>
    </clipPath>
    <clipPath id="l">
        <path d="m 77 78 h 34 v 34 h -34 z m 0 0"/>
    </clipPath>
    <clipPath id="m">
        <path d="m 64 123 c -33.136719 0 -60 -26.863281 -60 -60 s 26.863281 -60 60 -60 s 60 26.863281 60 60 s -26.863281 60 -60 60 z m 0 0"/>
    </clipPath>
    <clipPath id="n">
        <path d="m 6 92 h 116 v 31 h -116 z m 0 0"/>
    </clipPath>
    <clipPath id="o">
        <path d="m 64 123 c -33.136719 0 -60 -26.863281 -60 -60 s 26.863281 -60 60 -60 s 60 26.863281 60 60 s -26.863281 60 -60 60 z m 0 0"/>
    </clipPath>
    <clipPath id="p">
        <path d="m 30 94 h 36 v 29 h -36 z m 0 0"/>
    </clipPath>
    <clipPath id="q">
        <path d="m 64 123 c -33.136719 0 -60 -26.863281 -60 -60 s 26.863281 -60 60 -60 s 60 26.863281 60 60 s -26.863281 60 -60 60 z m 0 0"/>
    </clipPath>
    <linearGradient id="r" gradientUnits="userSpaceOnUse">
        <stop offset="0" stop-color="#deddda"/>
        <stop offset="1" stop-color="#ffffff" stop-opacity="0"/>
    </linearGradient>
    <linearGradient id="s" gradientTransform="matrix(0 1 -1 0 322 58.107422)" x1="35.892578" x2="47.892578" xlink:href="#r" y1="274" y2="274"/>
    <clipPath id="t">
        <path d="m 82 88 h 26 v 26 h -26 z m 0 0"/>
    </clipPath>
    <clipPath id="u">
        <path d="m 64 123 c -33.136719 0 -60 -26.863281 -60 -60 s 26.863281 -60 60 -60 s 60 26.863281 60 60 s -26.863281 60 -60 60 z m 0 0"/>
    </clipPath>
    <linearGradient id="v" gradientTransform="matrix(0 0.722222 -0.722222 0 292.888885 62.077576)" x1="35.892578" x2="46.969505" xlink:href="#r" y1="274" y2="274"/>
    <clipPath id="w">
        <path d="m 18 87 h 20 v 19 h -20 z m 0 0"/>
    </clipPath>
    <clipPath id="x">
        <path d="m 64 123 c -33.136719 0 -60 -26.863281 -60 -60 s 26.863281 -60 60 -60 s 60 26.863281 60 60 s -26.863281 60 -60 60 z m 0 0"/>
    </clipPath>
    <linearGradient id="y" gradientTransform="matrix(0 0.527778 -0.527778 0 172.611115 68.056686)" x1="35.892578" x2="46.969505" xlink:href="#r" y1="274" y2="274"/>
    <clipPath id="z">
        <path d="m 53 85 h 20 v 19 h -20 z m 0 0"/>
    </clipPath>
    <clipPath id="A">
        <path d="m 64 123 c -33.136719 0 -60 -26.863281 -60 -60 s 26.863281 -60 60 -60 s 60 26.863281 60 60 s -26.863281 60 -60 60 z m 0 0"/>
    </clipPath>
    <linearGradient id="B" gradientTransform="matrix(0 0.527778 -0.527778 0 207.611115 66.056686)" x1="35.892578" x2="46.969505" xlink:href="#r" y1="274" y2="274"/>
    <clipPath id="C">
        <path d="m 66 103 h 26 v 20 h -26 z m 0 0"/>
    </clipPath>
    <clipPath id="D">
        <path d="m 64 123 c -33.136719 0 -60 -26.863281 -60 -60 s 26.863281 -60 60 -60 s 60 26.863281 60 60 s -26.863281 60 -60 60 z m 0 0"/>
    </clipPath>
    <linearGradient id="E" gradientTransform="matrix(0 0.722222 -0.722222 0 276.888885 77.077576)" x1="35.892578" x2="46.969505" xlink:href="#r" y1="274" y2="274"/>
    <path d="m 64 5 c 33.136719 0 60 26.863281 60 60 s -26.863281 60 -60 60 s -60 -26.863281 -60 -60 s 26.863281 -60 60 -60 z m 0 0" fill="#deddda"/>
    <path d="m 4.1875 60.25 c -0.125 1.582031 -0.1875 3.164062 -0.1875 4.75 c 0 7.054688 1.246094 14.050781 3.675781 20.675781 v -1.996093 l 113.246094 -1.707032 l 0.066406 1.789063 c 1.996094 -6.054688 3.011719 -12.386719 3.011719 -18.761719 c 0 -1.585938 -0.0625 -3.167969 -0.1875 -4.75 z m 0 0" fill="#543d6c"/>
    <path d="m 64 7 c 30.929688 0 56 25.070312 56 56 v 2 c 0 30.929688 -25.070312 56 -56 56 s -56 -25.070312 -56 -56 v -2 c 0 -30.929688 25.070312 -56 56 -56 z m 0 0" fill="#d5d3cf"/>
    <path d="m 7.835938 84.113281 c -9.300782 -24.746093 -1.3125 -52.664062 19.671874 -68.742187 c 20.984376 -16.078125 50.019532 -16.527344 71.492188 -1.105469 s 30.320312 43.078125 21.789062 68.101563" fill="url(#a)"/>
    <path d="m 97.507812 27.433594 l -5.015624 1.074218 l -1.078126 5.019532 c -0.046874 0.210937 -0.230468 0.359375 -0.449218 0.359375 c -0.214844 0 -0.398438 -0.148438 -0.445313 -0.359375 l -1.078125 -5.019532 l -5.015625 -1.074218 c -0.210937 -0.046875 -0.359375 -0.234375 -0.359375 -0.449219 s 0.148438 -0.398437 0.359375 -0.445313 l 5.015625 -1.078124 l 1.078125 -5.015626 c 0.046875 -0.210937 0.230469 -0.363281 0.445313 -0.363281 c 0.21875 0 0.402344 0.152344 0.449218 0.363281 l 1.078126 5.015626 l 5.015624 1.078124 c 0.210938 0.046876 0.363282 0.230469 0.363282 0.445313 s -0.152344 0.402344 -0.363282 0.449219 z m 0 0" fill="#ffffff"/>
    <g clip-path="url(#b)">
        <g clip-path="url(#c)">
            <path d="m 22 91 c 0 4.96875 -4.03125 9 -9 9 s -9 -4.03125 -9 -9 s 4.03125 -9 9 -9 s 9 4.03125 9 9 z m 0 0" fill="#ffffff"/>
        </g>
    </g>
    <g clip-path="url(#d)">
        <g clip-path="url(#e)">
            <path d="m 50.5 95.5 c 0 10.21875 -8.28125 18.5 -18.5 18.5 s -18.5 -8.28125 -18.5 -18.5 s 8.28125 -18.5 18.5 -18.5 s 18.5 8.28125 18.5 18.5 z m 0 0" fill="#ffffff"/>
        </g>
    </g>
    <g clip-path="url(#f)">
        <g clip-path="url(#g)">
            <path d="m 60 88 c 0 5.523438 -4.476562 10 -10 10 s -10 -4.476562 -10 -10 s 4.476562 -10 10 -10 s 10 4.476562 10 10 z m 0 0" fill="#ffffff"/>
        </g>
    </g>
    <g clip-path="url(#h)">
        <g clip-path="url(#i)">
            <path d="m 88 92 c 0 9.941406 -8.058594 18 -18 18 s -18 -8.058594 -18 -18 s 8.058594 -18 18 -18 s 18 8.058594 18 18 z m 0 0" fill="#ffffff"/>
        </g>
    </g>
    <g clip-path="url(#j)">
        <g clip-path="url(#k)">
            <path d="m 124 90 c 0 6.628906 -5.371094 12 -12 12 s -12 -5.371094 -12 -12 s 5.371094 -12 12 -12 s 12 5.371094 12 12 z m 0 0" fill="#ffffff"/>
        </g>
    </g>
    <g clip-path="url(#l)">
        <g clip-path="url(#m)">
            <path d="m 111 95 c 0 9.390625 -7.609375 17 -17 17 s -17 -7.609375 -17 -17 s 7.609375 -17 17 -17 s 17 7.609375 17 17 z m 0 0" fill="#ffffff"/>
        </g>
    </g>
    <g clip-path="url(#n)">
        <g clip-path="url(#o)">
            <path d="m 6.457031 92 c 7.535157 25.5 30.953125 43 57.542969 43 s 50.007812 -17.5 57.542969 -43 z m 0 0" fill="#ffffff"/>
        </g>
    </g>
    <g clip-path="url(#p)">
        <g clip-path="url(#q)">
            <path d="m 48 130 c -9.941406 0 -18 -8.058594 -18 -18 s 8.058594 -18 18 -18 s 18 8.058594 18 18 s -8.058594 18 -18 18 z m 0 0" fill="url(#s)"/>
        </g>
    </g>
    <g clip-path="url(#t)">
        <g clip-path="url(#u)">
            <path d="m 95 114 c -7.179688 0 -13 -5.820312 -13 -13 s 5.820312 -13 13 -13 s 13 5.820312 13 13 s -5.820312 13 -13 13 z m 0 0" fill="url(#v)"/>
        </g>
    </g>
    <g clip-path="url(#w)">
        <g clip-path="url(#x)">
            <path d="m 28 106 c -5.246094 0 -9.5 -4.253906 -9.5 -9.5 s 4.253906 -9.5 9.5 -9.5 s 9.5 4.253906 9.5 9.5 s -4.253906 9.5 -9.5 9.5 z m 0 0" fill="url(#y)"/>
        </g>
    </g>
    <g clip-path="url(#z)">
        <g clip-path="url(#A)">
            <path d="m 63 104 c -5.246094 0 -9.5 -4.253906 -9.5 -9.5 s 4.253906 -9.5 9.5 -9.5 s 9.5 4.253906 9.5 9.5 s -4.253906 9.5 -9.5 9.5 z m 0 0" fill="url(#B)"/>
        </g>
    </g>
    <g clip-path="url(#C)">
        <g clip-path="url(#D)">
            <path d="m 79 129 c -7.179688 0 -13 -5.820312 -13 -13 s 5.820312 -13 13 -13 s 13 5.820312 13 13 s -5.820312 13 -13 13 z m 0 0" fill="url(#E)"/>
        </g>
    </g>
    <path d="m 38.507812 60.433594 l -5.015624 1.074218 l -1.078126 5.019532 c -0.046874 0.210937 -0.230468 0.359375 -0.449218 0.359375 c -0.214844 0 -0.398438 -0.148438 -0.445313 -0.359375 l -1.078125 -5.019532 l -5.015625 -1.074218 c -0.210937 -0.046875 -0.359375 -0.234375 -0.359375 -0.449219 s 0.148438 -0.398437 0.359375 -0.445313 l 5.015625 -1.078124 l 1.078125 -5.015626 c 0.046875 -0.210937 0.230469 -0.363281 0.445313 -0.363281 c 0.21875 0 0.402344 0.152344 0.449218 0.363281 l 1.078126 5.015626 l 5.015624 1.078124 c 0.210938 0.046876 0.363282 0.230469 0.363282 0.445313 s -0.152344 0.402344 -0.363282 0.449219 z m 0 0" fill="#ffffff"/>
    <path d="m 23.789062 43.757812 l -2.511718 0.539063 l -0.539063 2.507813 c -0.019531 0.105468 -0.113281 0.179687 -0.222656 0.179687 c -0.105469 0 -0.199219 -0.074219 -0.222656 -0.179687 l -0.539063 -2.507813 l -2.507812 -0.539063 c -0.105469 -0.023437 -0.179688 -0.117187 -0.179688 -0.222656 c 0 -0.109375 0.074219 -0.203125 0.179688 -0.222656 l 2.507812 -0.539062 l 0.539063 -2.507813 c 0.023437 -0.105469 0.117187 -0.183594 0.222656 -0.183594 c 0.109375 0 0.203125 0.078125 0.222656 0.183594 l 0.539063 2.507813 l 2.511718 0.539062 c 0.105469 0.019531 0.179688 0.113281 0.179688 0.222656 c 0 0.105469 -0.074219 0.199219 -0.179688 0.222656 z m 0 0" fill="#ffffff"/>
    <path d="m 64.789062 54.757812 l -2.511718 0.539063 l -0.539063 2.507813 c -0.019531 0.105468 -0.113281 0.179687 -0.222656 0.179687 c -0.105469 0 -0.199219 -0.074219 -0.222656 -0.179687 l -0.539063 -2.507813 l -2.507812 -0.539063 c -0.105469 -0.023437 -0.179688 -0.117187 -0.179688 -0.222656 c 0 -0.109375 0.074219 -0.203125 0.179688 -0.222656 l 2.507812 -0.539062 l 0.539063 -2.507813 c 0.023437 -0.105469 0.117187 -0.183594 0.222656 -0.183594 c 0.109375 0 0.203125 0.078125 0.222656 0.183594 l 0.539063 2.507813 l 2.511718 0.539062 c 0.105469 0.019531 0.179688 0.113281 0.179688 0.222656 c 0 0.105469 -0.074219 0.199219 -0.179688 0.222656 z m 0 0" fill="#ffffff"/>
    <path d="m 113.789062 63.757812 l -2.511718 0.539063 l -0.539063 2.507813 c -0.019531 0.105468 -0.113281 0.179687 -0.222656 0.179687 c -0.105469 0 -0.199219 -0.074219 -0.222656 -0.179687 l -0.539063 -2.507813 l -2.507812 -0.539063 c -0.105469 -0.023437 -0.179688 -0.117187 -0.179688 -0.222656 c 0 -0.109375 0.074219 -0.203125 0.179688 -0.222656 l 2.507812 -0.539062 l 0.539063 -2.507813 c 0.023437 -0.105469 0.117187 -0.183594 0.222656 -0.183594 c 0.109375 0 0.203125 0.078125 0.222656 0.183594 l 0.539063 2.507813 l 2.511718 0.539062 c 0.105469 0.019531 0.179688 0.113281 0.179688 0.222656 c 0 0.105469 -0.074219 0.199219 -0.179688 0.222656 z m 0 0" fill="#ffffff"/>
    <g fill="none" stroke="#ffffff">
        <path d="m 49.40047 206.320974 c -3.501864 -0.888883 -5.008479 -4.885462 -4.071934 -8.142437 c 1.465896 -5.082237 7.315908 -7.212841 12.073284 -5.713276 c 7.078379 2.23917 10.003385 10.469816 7.736675 17.153399 c -3.237188 9.567363 -14.44858 13.455376 -23.528992 10.205187 c -3.189682 -1.139941 -6.073969 -3.060199 -8.401758 -5.5165" stroke-width="2.60581" transform="matrix(0.575586 0 0 0.575688 21.120447 -86.299873)"/>
        <path d="m -54.836502 -197.628923 c -3.508649 -0.888883 -5.015265 -4.885462 -4.071934 -8.142436 c 1.45911 -5.075452 7.309122 -7.212842 12.073285 -5.706491 c 7.078378 2.232385 9.996598 10.463031 7.736674 17.146614 c -3.237187 9.567362 -14.448579 13.455376 -23.535778 10.205187 c -3.182895 -1.139941 -6.067182 -3.060199 -8.394971 -5.509716" stroke-width="2.60581" transform="matrix(-0.575586 0 0 -0.575688 21.120447 -85.299873)"/>
        <path d="m 94.499878 223.500664 c -0.000231 3.591176 -2.90955 6.497895 -6.500726 6.497664 c -3.590165 0.003542 -6.497894 -2.909549 -6.501437 -6.499714 c 0.001242 -3.587403 2.913323 -6.498906 6.500725 -6.497664 c 3.591176 0.00023 6.501668 2.908538 6.501438 6.499714 z m 0 0" stroke-linecap="round" stroke-linejoin="round" stroke-width="1.5" transform="matrix(0.965926 0.258819 -0.258819 0.965926 63.621044 -187.058275)"/>
        <path d="m 94.50228 229.501387 c -0.001242 3.587403 -2.913323 6.498906 -6.500726 6.497664 c -3.591176 -0.000231 -6.501667 -2.908538 -6.501437 -6.499714 c 0.000231 -3.591176 2.909549 -6.497895 6.500725 -6.497664 c 3.590165 -0.003543 6.497895 2.909549 6.501438 6.499714 z m 0 0" stroke-linecap="round" stroke-linejoin="round" stroke-width="1.5" transform="matrix(0.965926 0.258819 -0.258819 0.965926 63.621044 -187.058275)"/>
        <path d="m 89.499925 226.498457 c -0.000265 0.829101 -0.673056 1.502748 -1.498384 1.501471 c -0.829101 -0.000265 -1.502748 -0.673056 -1.501472 -1.498384 c 0.000266 -0.829101 0.673057 -1.502748 1.498385 -1.501472 c 0.829101 0.000266 1.502748 0.673057 1.501471 1.498385 z m 0 0" stroke-linecap="round" stroke-linejoin="round" stroke-width="1.5" transform="matrix(0.965926 0.258819 -0.258819 0.965926 63.621044 -187.058275)"/>
    </g>
</svg>
