<?xml version="1.0" encoding="UTF-8" standalone="no"?>
<svg
   xmlns:dc="http://purl.org/dc/elements/1.1/"
   xmlns:cc="http://creativecommons.org/ns#"
   xmlns:rdf="http://www.w3.org/1999/02/22-rdf-syntax-ns#"
   xmlns:svg="http://www.w3.org/2000/svg"
   xmlns="http://www.w3.org/2000/svg"
   xmlns:sodipodi="http://sodipodi.sourceforge.net/DTD/sodipodi-0.dtd"
   xmlns:inkscape="http://www.inkscape.org/namespaces/inkscape"
   width="32.0px"
   height="32.0px"
   id="Layer_1"
   data-name="Layer 1"
   viewBox="0 0 32 32"
   version="1.1"
   sodipodi:docname="astrometry_dark.svg"
   inkscape:version="1.0.1 (3bc2e813f5, 2020-09-07)">
  <sodipodi:namedview
     pagecolor="#ffffff"
     bordercolor="#666666"
     borderopacity="1"
     objecttolerance="10"
     gridtolerance="10"
     guidetolerance="10"
     inkscape:pageopacity="0"
     inkscape:pageshadow="2"
     inkscape:window-width="1915"
     inkscape:window-height="891"
     id="namedview16"
     showgrid="false"
     inkscape:zoom="14.013125"
     inkscape:cx="10.300837"
     inkscape:cy="18.994073"
     inkscape:window-x="0"
     inkscape:window-y="0"
     inkscape:window-maximized="0"
     inkscape:current-layer="Layer_1" />
  <metadata
     id="metadata19">
    <rdf:RDF>
      <cc:Work
         rdf:about="">
        <dc:format>image/svg+xml</dc:format>
        <dc:type
           rdf:resource="http://purl.org/dc/dcmitype/StillImage" />
        <dc:title>mirrorx dark</dc:title>
      </cc:Work>
    </rdf:RDF>
  </metadata>
  <defs
     id="defs4">
    <style
       id="style2">.cls-1{fill:#0971b8;}.cls-2{fill:#8e2f88;}.cls-3{fill:#4e4d4d;}</style>
  </defs>
  <title
     id="title6">astrometry dark</title>
  <g
     id="g2008"
     transform="matrix(0.83390193,0,0,0.83390193,-124.14541,-134.07225)"
     style="display:inline;enable-background:new">
    <path
       style="color:#000000;font-style:normal;font-variant:normal;font-weight:normal;font-stretch:normal;font-size:medium;line-height:normal;font-family:sans-serif;font-variant-ligatures:normal;font-variant-position:normal;font-variant-caps:normal;font-variant-numeric:normal;font-variant-alternates:normal;font-variant-east-asian:normal;font-feature-settings:normal;font-variation-settings:normal;text-indent:0;text-align:start;text-decoration:none;text-decoration-line:none;text-decoration-style:solid;text-decoration-color:#000000;letter-spacing:normal;word-spacing:normal;text-transform:none;writing-mode:lr-tb;direction:ltr;text-orientation:mixed;dominant-baseline:auto;baseline-shift:baseline;text-anchor:start;white-space:normal;shape-padding:0;shape-margin:0;inline-size:0;clip-rule:nonzero;display:inline;overflow:visible;visibility:visible;opacity:1;isolation:auto;mix-blend-mode:normal;color-interpolation:sRGB;color-interpolation-filters:linearRGB;solid-color:#000000;solid-opacity:1;vector-effect:none;fill:#ffe36c;fill-opacity:1;fill-rule:evenodd;stroke:none;stroke-width:1.5;stroke-linecap:butt;stroke-linejoin:miter;stroke-miterlimit:4;stroke-dasharray:none;stroke-dashoffset:0;stroke-opacity:1;color-rendering:auto;image-rendering:auto;shape-rendering:auto;text-rendering:auto;enable-background:new;stop-color:#000000;stop-opacity:1"
       d="m 168.56986,175.36623 c -1.60967,0.092 -3.15683,1.03546 -3.64561,2.73208 -0.21886,0.7597 -0.15499,1.57269 0.17152,2.28299 0.32651,0.7103 0.95568,1.3282 1.81377,1.54582 l 0.36873,-1.4535 c -0.38818,-0.0985 -0.64992,-0.34976 -0.81939,-0.71842 -0.16947,-0.36867 -0.20691,-0.84415 -0.0924,-1.2418 0.3882,-1.34749 2.01593,-1.94111 3.34563,-1.52152 2.06958,0.65306 2.94805,3.12627 2.26652,5.13862 -1.00279,2.96094 -4.53743,4.18738 -7.4037,3.16244 -1.01661,-0.36353 -1.94519,-0.98058 -2.69358,-1.77002 l -1.08882,1.03216 c 0.90548,0.95516 2.02731,1.70358 3.27687,2.15041 3.59258,1.28466 8.02962,-0.25442 9.32998,-4.09396 0.92727,-2.73794 -0.27116,-6.11402 -3.23591,-7.04956 -0.51374,-0.16211 -1.0571,-0.22641 -1.59365,-0.19574 z"
       id="path2000" />
    <path
       style="color:#000000;font-style:normal;font-variant:normal;font-weight:normal;font-stretch:normal;font-size:medium;line-height:normal;font-family:sans-serif;font-variant-ligatures:normal;font-variant-position:normal;font-variant-caps:normal;font-variant-numeric:normal;font-variant-alternates:normal;font-variant-east-asian:normal;font-feature-settings:normal;font-variation-settings:normal;text-indent:0;text-align:start;text-decoration:none;text-decoration-line:none;text-decoration-style:solid;text-decoration-color:#000000;letter-spacing:normal;word-spacing:normal;text-transform:none;writing-mode:lr-tb;direction:ltr;text-orientation:mixed;dominant-baseline:auto;baseline-shift:baseline;text-anchor:start;white-space:normal;shape-padding:0;shape-margin:0;inline-size:0;clip-rule:nonzero;display:inline;overflow:visible;visibility:visible;opacity:1;isolation:auto;mix-blend-mode:normal;color-interpolation:sRGB;color-interpolation-filters:linearRGB;solid-color:#000000;solid-opacity:1;vector-effect:none;fill:#ffe36c;fill-opacity:1;fill-rule:evenodd;stroke:none;stroke-width:1.5;stroke-linecap:butt;stroke-linejoin:miter;stroke-miterlimit:4;stroke-dasharray:none;stroke-dashoffset:0;stroke-opacity:1;color-rendering:auto;image-rendering:auto;shape-rendering:auto;text-rendering:auto;enable-background:new;stop-color:#000000;stop-opacity:1"
       d="m 167.54978,184.56089 c 1.60966,-0.092 3.15614,-1.03477 3.64491,-2.73139 0.21886,-0.7597 0.15569,-1.57338 -0.17082,-2.28368 -0.32651,-0.7103 -0.95568,-1.3282 -1.81377,-1.54582 l -0.36873,1.4542 c 0.38818,0.0984 0.64992,0.34906 0.81939,0.71772 0.16947,0.36867 0.20691,0.84484 0.0924,1.24249 -0.3882,1.34749 -2.01593,1.94111 -3.34563,1.52153 -2.06958,-0.65307 -2.94805,-3.12628 -2.26652,-5.13862 1.00279,-2.96095 4.53743,-4.18809 7.4037,-3.16314 1.01661,0.36352 1.94519,0.98058 2.69358,1.77002 l 1.08882,-1.03147 c -0.90548,-0.95515 -2.02731,-1.70358 -3.27687,-2.15041 -3.59258,-1.28466 -8.02962,0.25442 -9.32998,4.09396 -0.92727,2.73794 0.27116,6.11402 3.23591,7.04956 0.51374,0.16211 1.0571,0.22572 1.59365,0.19505 z"
       id="path2004" />
  </g>
  <circle
     style="fill:none;stroke:#ffffff;stroke-width:1.4861;stroke-miterlimit:4;stroke-dasharray:none;stroke-opacity:1"
     id="path865"
     cx="16"
     cy="16"
     r="12.150417" />
  <path
     fill="url(#SVGID_95_)"
     d="m 31.14526,28.494952 -2.018111,0.433429 -0.433431,2.018314 c -0.01809,0.08448 -0.09273,0.145206 -0.180009,0.145206 -0.08649,0 -0.161305,-0.06053 -0.179205,-0.145206 l -0.43363,-2.018314 -2.018314,-0.433429 c -0.08447,-0.01811 -0.144813,-0.09293 -0.144813,-0.179607 0,-0.08668 0.06034,-0.161505 0.144813,-0.179808 l 2.018314,-0.433228 0.43363,-2.018314 c 0.01791,-0.08469 0.09273,-0.14501 0.179205,-0.14501 0.08729,0 0.161908,0.06032 0.180009,0.14501 l 0.433431,2.018314 2.018111,0.433228 c 0.08488,0.0183 0.145418,0.09312 0.145418,0.179808 0,0.08649 -0.06053,0.161305 -0.145418,0.179607 z"
     id="path1760"
     style="display:inline;fill:#ffe36c;fill-opacity:1;stroke-width:0.402255;enable-background:new" />
  <path
     fill="url(#SVGID_95_)"
     d="m 6.031236,27.356522 -2.0192323,0.43367 -0.4336708,2.019435 c -0.018102,0.08452 -0.09278,0.145286 -0.1801092,0.145286 -0.086534,0 -0.1613944,-0.06057 -0.1793046,-0.145286 L 2.7850486,27.790192 0.76561369,27.356522 C 0.68109111,27.338405 0.62072,27.263546 0.62072,27.176815 c 0,-0.08673 0.0603711,-0.161594 0.14489369,-0.179908 L 2.7850486,26.563439 3.2189191,24.544004 c 0.017921,-0.08473 0.09278,-0.14509 0.1793046,-0.14509 0.087336,0 0.1619978,0.06036 0.1801092,0.14509 l 0.4336708,2.019435 2.0192323,0.433468 c 0.084931,0.01831 0.1454986,0.09317 0.1454986,0.179908 0,0.08653 -0.060568,0.161395 -0.1454986,0.179707 z"
     id="path1760-3"
     style="display:inline;fill:#ffe36c;fill-opacity:1;stroke-width:0.402478;enable-background:new" />
  <path
     fill="url(#SVGID_95_)"
     d="M 30.255036,3.7907503 28.210405,4.2298744 27.77128,6.27471 c -0.01834,0.085586 -0.09395,0.1471143 -0.182375,0.1471143 -0.08762,0 -0.163425,-0.061329 -0.18156,-0.1471143 L 26.968017,4.2298744 24.923182,3.7907503 c -0.08559,-0.018346 -0.146716,-0.094146 -0.146716,-0.1819673 0,-0.087821 0.06113,-0.1636265 0.146716,-0.1821709 l 2.044835,-0.4389204 0.439328,-2.04483569 c 0.01814,-0.0857996 0.09395,-0.1469152 0.18156,-0.1469152 0.08843,0 0.164036,0.0611153 0.182375,0.1469152 l 0.439125,2.04483569 2.044631,0.4389204 c 0.086,0.018544 0.147329,0.094344 0.147329,0.1821709 0,0.087622 -0.06133,0.1634245 -0.147329,0.1819673 z"
     id="path1760-3-6"
     style="display:inline;fill:#ffe36c;fill-opacity:1;stroke-width:0.40754;enable-background:new" />
  <path
     fill="url(#SVGID_95_)"
     d="m 9.3001099,3.9885672 -1.7932378,1.7666897 0.8747237,2.360714 c 0.036662,0.098775 -4.059e-4,0.210115 -0.090228,0.2672312 -0.089004,0.056596 -0.2056148,0.04326 -0.279445,-0.032163 L 6.2448935,6.5577241 3.8841804,7.4324495 C 3.7853959,7.4690953 3.6743413,7.4315841 3.6176168,7.3423778 3.5608923,7.2531715 3.5740237,7.1366864 3.648981,7.0625693 L 5.4425589,5.2959539 4.5680405,2.9351093 c -0.036987,-0.098874 5.345e-4,-0.2099127 0.089529,-0.2665027 0.089829,-0.05712 0.2060965,-0.043873 0.280144,0.031435 L 6.7045375,4.4934867 9.0649107,3.618687 c 0.099333,-0.03671 0.21059,6.719e-4 0.2673172,0.089883 0.0566,0.089004 0.04326,0.2056122 -0.03212,0.2799974 z"
     id="path1760-3-6-7"
     style="display:inline;fill:#ffe36c;fill-opacity:1;stroke-width:0.490571;enable-background:new" />
  <circle
     style="fill:none;stroke:#ffffff;stroke-opacity:1;stroke-width:1.3;stroke-miterlimit:4;stroke-dasharray:none"
     id="path935"
     cx="6.4362941"
     cy="5.5537753"
     r="4.4026451" />
</svg>
