<?xml version="1.0" encoding="UTF-8" standalone="no"?>
<svg
   xmlns:dc="http://purl.org/dc/elements/1.1/"
   xmlns:cc="http://creativecommons.org/ns#"
   xmlns:rdf="http://www.w3.org/1999/02/22-rdf-syntax-ns#"
   xmlns:svg="http://www.w3.org/2000/svg"
   xmlns="http://www.w3.org/2000/svg"
   xmlns:sodipodi="http://sodipodi.sourceforge.net/DTD/sodipodi-0.dtd"
   xmlns:inkscape="http://www.inkscape.org/namespaces/inkscape"
   width="16.0px"
   height="16.0px"
   version="1.1"
   id="Layer_1"
   x="0px"
   y="0px"
   viewBox="0 0 24 24"
   style="enable-background:new 0 0 512.092 512.092;"
   xml:space="preserve"
   sodipodi:docname="chain.svg"
   inkscape:version="1.0.1 (3bc2e813f5, 2020-09-07)"><sodipodi:namedview
   pagecolor="#ffffff"
   bordercolor="#666666"
   borderopacity="1"
   objecttolerance="10"
   gridtolerance="10"
   guidetolerance="10"
   inkscape:pageopacity="0"
   inkscape:pageshadow="2"
   inkscape:window-width="771"
   inkscape:window-height="480"
   id="namedview26"
   showgrid="false"
   inkscape:zoom="27.1529"
   inkscape:cx="9.3902253"
   inkscape:cy="14.270528"
   inkscape:window-x="0"
   inkscape:window-y="0"
   inkscape:window-maximized="0"
   inkscape:current-layer="Layer_1" /><metadata
   id="metadata49"><rdf:RDF><cc:Work
       rdf:about=""><dc:format>image/svg+xml</dc:format><dc:type
         rdf:resource="http://purl.org/dc/dcmitype/StillImage" /><dc:title /></cc:Work></rdf:RDF></metadata><defs
   id="defs47" />

<g
   id="g857"
   transform="matrix(0.04680519,0,0,0.04680519,0.03715103,2.3829871e-4)"><g
     id="g6"
     style="fill:#666666">
	<g
   id="g4"
   style="fill:#666666">
		<path
   d="m 312.453,199.601 c -6.066,-6.102 -12.792,-11.511 -20.053,-16.128 -19.232,-12.315 -41.59,-18.859 -64.427,-18.859 -31.697,-0.059 -62.106,12.535 -84.48,34.987 L 34.949,308.23 c -22.336,22.379 -34.89,52.7 -34.91,84.318 -0.042,65.98 53.41,119.501 119.39,119.543 31.648,0.11 62.029,-12.424 84.395,-34.816 l 89.6,-89.6 c 1.628,-1.614 2.537,-3.816 2.524,-6.108 -0.027,-4.713 -3.87,-8.511 -8.583,-8.484 h -3.413 c -18.72,0.066 -37.273,-3.529 -54.613,-10.581 -3.195,-1.315 -6.867,-0.573 -9.301,1.877 l -64.427,64.512 c -20.006,20.006 -52.442,20.006 -72.448,0 -20.006,-20.006 -20.006,-52.442 0,-72.448 L 192.134,247.558 c 19.99,-19.965 52.373,-19.965 72.363,0 13.472,12.679 34.486,12.679 47.957,0 5.796,-5.801 9.31,-13.495 9.899,-21.675 0.623,-9.775 -2.982,-19.348 -9.9,-26.282 z"
   id="path2"
   style="fill:#666666" />
	</g>
</g><g
     id="g12"
     style="fill:#b3b3b3">
	<g
   id="g10"
   style="fill:#b3b3b3">
		<path
   d="m 477.061,34.993 c -46.657,-46.657 -122.303,-46.657 -168.96,0 l -89.515,89.429 c -2.458,2.47 -3.167,6.185 -1.792,9.387 1.359,3.211 4.535,5.272 8.021,5.205 h 3.157 c 18.698,-0.034 37.221,3.589 54.528,10.667 3.195,1.315 6.867,0.573 9.301,-1.877 l 64.256,-64.171 c 20.006,-20.006 52.442,-20.006 72.448,0 20.006,20.006 20.006,52.442 0,72.448 l -80.043,79.957 -0.683,0.768 -27.989,27.819 c -19.99,19.965 -52.373,19.965 -72.363,0 -13.472,-12.679 -34.486,-12.679 -47.957,0 -5.833,5.845 -9.35,13.606 -9.899,21.845 -0.624,9.775 2.981,19.348 9.899,26.283 9.877,9.919 21.433,18.008 34.133,23.893 1.792,0.853 3.584,1.536 5.376,2.304 1.792,0.768 3.669,1.365 5.461,2.048 1.792,0.683 3.669,1.28 5.461,1.792 l 5.035,1.365 c 3.413,0.853 6.827,1.536 10.325,2.133 4.214,0.626 8.458,1.025 12.715,1.195 h 5.973 0.512 l 5.12,-0.597 c 1.877,-0.085 3.84,-0.512 6.059,-0.512 h 2.901 l 5.888,-0.853 2.731,-0.512 4.949,-1.024 h 0.939 c 20.961,-5.265 40.101,-16.118 55.381,-31.403 L 477.058,203.953 c 46.66,-46.657 46.66,-122.303 0.003,-168.96 z"
   id="path8"
   style="fill:#b3b3b3" />
	</g>
</g></g>
<g
   id="g14">
</g>
<g
   id="g16">
</g>
<g
   id="g18">
</g>
<g
   id="g20">
</g>
<g
   id="g22">
</g>
<g
   id="g24">
</g>
<g
   id="g26">
</g>
<g
   id="g28">
</g>
<g
   id="g30">
</g>
<g
   id="g32">
</g>
<g
   id="g34">
</g>
<g
   id="g36">
</g>
<g
   id="g38">
</g>
<g
   id="g40">
</g>
<g
   id="g42">
</g>
</svg>
