<?xml version="1.0" encoding="UTF-8" standalone="no"?>
<svg
   xmlns:dc="http://purl.org/dc/elements/1.1/"
   xmlns:cc="http://creativecommons.org/ns#"
   xmlns:rdf="http://www.w3.org/1999/02/22-rdf-syntax-ns#"
   xmlns:svg="http://www.w3.org/2000/svg"
   xmlns="http://www.w3.org/2000/svg"
   xmlns:sodipodi="http://sodipodi.sourceforge.net/DTD/sodipodi-0.dtd"
   xmlns:inkscape="http://www.inkscape.org/namespaces/inkscape"
   width="32.0px"
   height="32.0px"
   version="1.1"
   id="Capa_1"
   x="0px"
   y="0px"
   viewBox="0 0 209 209"
   style="enable-background:new 0 0 209 209;"
   xml:space="preserve"
   sodipodi:docname="grid.svg"
   inkscape:version="1.0.1 (3bc2e813f5, 2020-09-07)"><metadata
   id="metadata39"><rdf:RDF><cc:Work
       rdf:about=""><dc:format>image/svg+xml</dc:format><dc:type
         rdf:resource="http://purl.org/dc/dcmitype/StillImage" /></cc:Work></rdf:RDF></metadata><defs
   id="defs37" /><sodipodi:namedview
   pagecolor="#ffffff"
   bordercolor="#666666"
   borderopacity="1"
   objecttolerance="10"
   gridtolerance="10"
   guidetolerance="10"
   inkscape:pageopacity="0"
   inkscape:pageshadow="2"
   inkscape:window-width="1272"
   inkscape:window-height="766"
   id="namedview35"
   showgrid="false"
   inkscape:zoom="1.4581963"
   inkscape:cx="77.294412"
   inkscape:cy="102.52548"
   inkscape:window-x="540"
   inkscape:window-y="39"
   inkscape:window-maximized="0"
   inkscape:current-layer="Capa_1" />
<path
   d="M201.5,112c4.143,0,7.5-3.357,7.5-7.5s-3.357-7.5-7.5-7.5H184V43.333h17.5c4.143,0,7.5-3.357,7.5-7.5s-3.357-7.5-7.5-7.5  H184V7.5c0-4.143-3.357-7.5-7.5-7.5S169,3.357,169,7.5v20.833h-53.666V7.5c0-4.143-3.357-7.5-7.5-7.5s-7.5,3.357-7.5,7.5v20.833  H46.667V7.5c0-4.143-3.357-7.5-7.5-7.5s-7.5,3.357-7.5,7.5v20.833H7.5c-4.143,0-7.5,3.357-7.5,7.5s3.357,7.5,7.5,7.5h24.167V97H7.5  c-4.143,0-7.5,3.357-7.5,7.5s3.357,7.5,7.5,7.5h24.167v53.666H7.5c-4.143,0-7.5,3.357-7.5,7.5s3.357,7.5,7.5,7.5h24.167V201.5  c0,4.143,3.357,7.5,7.5,7.5s7.5-3.357,7.5-7.5v-20.834h53.667V201.5c0,4.143,3.357,7.5,7.5,7.5s7.5-3.357,7.5-7.5v-20.834H169V201.5  c0,4.143,3.357,7.5,7.5,7.5s7.5-3.357,7.5-7.5v-20.834h17.5c4.143,0,7.5-3.357,7.5-7.5s-3.357-7.5-7.5-7.5H184V112H201.5z   M169,43.333V97h-53.666V43.333H169z M46.667,43.333h53.667V97H46.667V43.333z M46.667,165.666V112h53.667v53.666H46.667z   M169,165.666h-53.666V112H169V165.666z"
   id="path2"
   style="fill:#2764ad;fill-opacity:1" />
<g
   id="g4">
</g>
<g
   id="g6">
</g>
<g
   id="g8">
</g>
<g
   id="g10">
</g>
<g
   id="g12">
</g>
<g
   id="g14">
</g>
<g
   id="g16">
</g>
<g
   id="g18">
</g>
<g
   id="g20">
</g>
<g
   id="g22">
</g>
<g
   id="g24">
</g>
<g
   id="g26">
</g>
<g
   id="g28">
</g>
<g
   id="g30">
</g>
<g
   id="g32">
</g>
</svg>
