<?xml version="1.0" encoding="UTF-8" standalone="no"?>
<svg
   xmlns:dc="http://purl.org/dc/elements/1.1/"
   xmlns:cc="http://creativecommons.org/ns#"
   xmlns:rdf="http://www.w3.org/1999/02/22-rdf-syntax-ns#"
   xmlns:svg="http://www.w3.org/2000/svg"
   xmlns="http://www.w3.org/2000/svg"
   xmlns:sodipodi="http://sodipodi.sourceforge.net/DTD/sodipodi-0.dtd"
   xmlns:inkscape="http://www.inkscape.org/namespaces/inkscape"
   width="32.0px"
   height="32.0px"
   version="1.1"
   id="Capa_1"
   x="0px"
   y="0px"
   viewBox="0 0 32 32"
   style="enable-background:new 0 0 32 32;"
   xml:space="preserve"
   sodipodi:docname="grid.svg"
   inkscape:version="1.0.1 (3bc2e813f5, 2020-09-07)"><sodipodi:namedview
   pagecolor="#ffffff"
   bordercolor="#666666"
   borderopacity="1"
   objecttolerance="10"
   gridtolerance="10"
   guidetolerance="10"
   inkscape:pageopacity="0"
   inkscape:pageshadow="2"
   inkscape:window-width="1612"
   inkscape:window-height="969"
   id="namedview21"
   showgrid="false"
   inkscape:zoom="5.6568543"
   inkscape:cx="38.540768"
   inkscape:cy="21.333161"
   inkscape:window-x="0"
   inkscape:window-y="0"
   inkscape:window-maximized="0"
   inkscape:current-layer="Capa_1" /><metadata
   id="metadata39"><rdf:RDF><cc:Work
       rdf:about=""><dc:format>image/svg+xml</dc:format><dc:type
         rdf:resource="http://purl.org/dc/dcmitype/StillImage" /><dc:title /></cc:Work></rdf:RDF></metadata><defs
   id="defs37" />
<path
   d="m 30.856221,17.150852 c 0.634429,0 1.148496,-0.514064 1.148496,-1.148494 0,-0.634428 -0.514067,-1.148495 -1.148496,-1.148495 H 28.1764 V 6.6356956 h 2.679821 c 0.634429,0 1.148496,-0.5140665 1.148496,-1.1484946 0,-0.6344286 -0.514067,-1.1484948 -1.148496,-1.1484948 H 28.1764 V 1.1484946 C 28.1764,0.51406619 27.662335,0 27.027905,0 26.393478,0 25.879413,0.51406619 25.879413,1.1484946 V 4.3387062 H 17.661396 V 1.1484946 C 17.661396,0.51406619 17.147331,0 16.512902,0 15.878473,0 15.364408,0.51406619 15.364408,1.1484946 V 4.3387062 H 7.1462397 V 1.1484946 C 7.1462397,0.51406619 6.6321735,0 5.9977449,0 5.3633166,0 4.8492505,0.51406619 4.8492505,1.1484946 V 4.3387062 H 1.1484946 C 0.51406618,4.3387062 0,4.8527724 0,5.487201 0,6.1216291 0.51406618,6.6356956 1.1484946,6.6356956 H 4.8492505 V 14.853863 H 1.1484946 C 0.51406618,14.853863 0,15.36793 0,16.002358 c 0,0.63443 0.51406618,1.148494 1.1484946,1.148494 h 3.7007559 v 8.218016 H 1.1484946 C 0.51406618,25.368868 0,25.882933 0,26.517362 c 0,0.634428 0.51406618,1.148494 1.1484946,1.148494 h 3.7007559 v 3.190365 c 0,0.634429 0.5140661,1.148496 1.1484944,1.148496 0.6344286,0 1.1484948,-0.514067 1.1484948,-1.148496 v -3.190365 h 8.2181683 v 3.190365 c 0,0.634429 0.514065,1.148496 1.148494,1.148496 0.634429,0 1.148494,-0.514067 1.148494,-1.148496 v -3.190365 h 8.218017 v 3.190365 c 0,0.634429 0.514065,1.148496 1.148492,1.148496 0.63443,0 1.148495,-0.514067 1.148495,-1.148496 v -3.190365 h 2.679821 c 0.634429,0 1.148496,-0.514066 1.148496,-1.148494 0,-0.634429 -0.514067,-1.148494 -1.148496,-1.148494 H 28.1764 V 17.150852 Z M 25.879413,6.6356956 V 14.853863 H 17.661396 V 6.6356956 Z m -18.7331733,0 H 15.364408 V 14.853863 H 7.1462397 Z m 0,18.7331724 v -8.218016 h 8.2181683 v 8.218016 z m 18.7331733,0 h -8.218017 v -8.218016 h 8.218017 z"
   id="path2"
   style="fill:#2764ad;fill-opacity:1;stroke-width:0.153132" />
<g
   id="g4">
</g>
<g
   id="g6">
</g>
<g
   id="g8">
</g>
<g
   id="g10">
</g>
<g
   id="g12">
</g>
<g
   id="g14">
</g>
<g
   id="g16">
</g>
<g
   id="g18">
</g>
<g
   id="g20">
</g>
<g
   id="g22">
</g>
<g
   id="g24">
</g>
<g
   id="g26">
</g>
<g
   id="g28">
</g>
<g
   id="g30">
</g>
<g
   id="g32">
</g>
</svg>
