<?xml version="1.0" encoding="UTF-8" standalone="no"?>
<svg
   xmlns:dc="http://purl.org/dc/elements/1.1/"
   xmlns:cc="http://creativecommons.org/ns#"
   xmlns:rdf="http://www.w3.org/1999/02/22-rdf-syntax-ns#"
   xmlns:svg="http://www.w3.org/2000/svg"
   xmlns="http://www.w3.org/2000/svg"
   xmlns:sodipodi="http://sodipodi.sourceforge.net/DTD/sodipodi-0.dtd"
   xmlns:inkscape="http://www.inkscape.org/namespaces/inkscape"
   width="32.0px"
   height="32.0px"
   id="Capa_1"
   data-name="Capa 1"
   viewBox="0 0 31.01 29.83"
   version="1.1"
   sodipodi:docname="histo.svg"
   inkscape:version="1.0.1 (3bc2e813f5, 2020-09-07)">
  <metadata
     id="metadata23">
    <rdf:RDF>
      <cc:Work
         rdf:about="">
        <dc:format>image/svg+xml</dc:format>
        <dc:type
           rdf:resource="http://purl.org/dc/dcmitype/StillImage" />
        <dc:title>rotate dark</dc:title>
      </cc:Work>
    </rdf:RDF>
  </metadata>
  <sodipodi:namedview
     pagecolor="#ffffff"
     bordercolor="#666666"
     borderopacity="1"
     objecttolerance="10"
     gridtolerance="10"
     guidetolerance="10"
     inkscape:pageopacity="0"
     inkscape:pageshadow="2"
     inkscape:window-width="1920"
     inkscape:window-height="1028"
     id="namedview21"
     showgrid="false"
     inkscape:zoom="8.4479497"
     inkscape:cx="56.31443"
     inkscape:cy="19.463002"
     inkscape:window-x="0"
     inkscape:window-y="0"
     inkscape:window-maximized="1"
     inkscape:current-layer="Capa_1"
     inkscape:document-rotation="0" />
  <defs
     id="defs4">
    <style
       id="style2">.cls-1{fill:#fff;}.cls-2{fill:#424a60;stroke:#e7eced;stroke-miterlimit:10;stroke-width:0.71px;}.cls-3{fill:#efce4a;}.cls-4{fill:#1a9172;}.cls-5{fill:#25ae88;}</style>
  </defs>
  <title
     id="title6">rotate dark</title>
  <path
     class="cls-1"
     d="M 31.001021,29.933994 H -0.07252115 V 0.05024568 H 1.8695766 V 28.066261 H 31.001021 Z"
     id="path8"
     style="fill:#92aeba;stroke-width:0.0595174" />
  <path
     class="cls-2"
     d="m 16.430878,18.621055 c -0.353258,-1.719667 -0.728064,-3.540492 -1.275698,-5.039153 -0.0038,-0.01045 -0.0076,-0.0209 -0.01183,-0.03133 -0.01859,-0.05113 -0.03761,-0.101709 -0.05662,-0.151737 l -0.02325,-0.06048 c -0.01564,-0.04068 -0.0317,-0.08137 -0.04817,-0.121499 -0.0089,-0.02254 -0.01776,-0.04563 -0.02705,-0.06818 -0.02113,-0.05167 -0.04226,-0.103355 -0.06423,-0.153936 -0.01565,-0.03738 -0.03211,-0.07422 -0.04818,-0.109952 l -0.02199,-0.05058 c -0.01816,-0.04068 -0.03635,-0.08027 -0.05451,-0.119848 l -0.01142,-0.02474 c -0.439457,-0.944494 -0.979905,-1.686128 -1.675432,-2.079211 l -0.01521,-0.0088 c -0.03,-0.0165 -0.06001,-0.03244 -0.09043,-0.04783 l -0.03084,-0.01485 c -0.02958,-0.0143 -0.05916,-0.02858 -0.08916,-0.04178 l -0.0072,-0.0025 c -0.05747,-0.0253 -0.116201,-0.04728 -0.175782,-0.06762 l -0.05789,-0.01924 -0.07141,-0.0209 -0.0693,-0.01758 -0.06677,-0.01595 c -0.03338,-0.0072 -0.0676,-0.01319 -0.101413,-0.01924 l -0.06972,-0.01045 c -0.03549,-0.0049 -0.07099,-0.0094 -0.10733,-0.01263 l -0.02155,-0.0026 v 0 c -0.07099,-0.006 -0.142403,-0.0099 -0.215926,-0.0099 h -0.0676 c -2.7985896,0 -3.7070836,4.421768 -4.5090958,8.322355 -0.5818596,2.828546 -1.1827333,5.753301 -2.2522235,5.753301 v 1.759251 c 2.1077102,0 2.812532,-3.426691 3.557499,-7.055147 C 9.3466701,15.687908 10.06755,12.1859 11.786085,12.059455 l 0.203672,0.0078 v -0.0078 a 1.5858527,2.0632712 0 0 1 0.30382,0.05498 l 0.05367,0.01869 0.01268,0.0044 c 0.845113,0.321065 1.423593,1.55584 1.888825,3.152359 0.0055,0.01813 0.01099,0.03628 0.01605,0.05498 0.0051,0.01869 0.01057,0.03683 0.01605,0.05498 0.317763,1.118224 0.582283,2.405226 0.845112,3.676286 0.744542,3.629552 1.448945,7.057344 3.559189,7.057344 v -1.759251 c -1.071603,0 -1.672898,-2.924756 -2.254336,-5.75275 z"
     id="path10"
     style="fill:#ef7559" />
  <path
     class="cls-3"
     d="m 27.017175,16.534693 c -0.451712,-2.199064 -0.929624,-4.523472 -1.630222,-6.438855 -0.0047,-0.01319 -0.0097,-0.02693 -0.01479,-0.04013 -0.02408,-0.064873 -0.04817,-0.1297453 -0.07268,-0.1935194 l -0.02958,-0.077512 c -0.02027,-0.052227 -0.04226,-0.1039074 -0.06127,-0.155035 l -0.03507,-0.08741 c -0.02662,-0.065968 -0.05408,-0.131944 -0.08197,-0.1968183 -0.01987,-0.04783 -0.04226,-0.094556 -0.06127,-0.1412884 l -0.02832,-0.064865 c -0.02324,-0.051133 -0.04606,-0.1022562 -0.06972,-0.1528376 l -0.01436,-0.031338 C 24.35634,7.7455858 23.665461,6.8005388 22.776826,6.298052 L 22.757386,6.287046 Q 22.700336,6.25516 22.642029,6.226024 l -0.0393,-0.019241 C 22.5647,6.18809 22.527098,6.1699458 22.48864,6.1518078 l -0.0093,-0.00386 c -0.07352,-0.031889 -0.148312,-0.059928 -0.22437,-0.086316 l -0.07395,-0.024192 -0.09127,-0.026928 -0.08874,-0.022533 c -0.02832,-0.00712 -0.05662,-0.01429 -0.08451,-0.020352 -0.04225,-0.00935 -0.08451,-0.017033 -0.129723,-0.024192 l -0.08916,-0.013742 c -0.04479,-0.00606 -0.09043,-0.01211 -0.136485,-0.01595 l -0.02788,-0.0033 c 0,0 0,0 0,0 -0.09043,-0.00769 -0.18212,-0.012638 -0.275927,-0.012638 h -0.08451 c -3.579048,0.00386 -4.73981,5.6532422 -5.76451,10.6368692 -0.743276,3.613612 -1.511059,7.349269 -2.877606,7.349269 v 2.249095 c 2.693373,0 3.591729,-4.378885 4.545435,-9.016163 0.890748,-4.331054 1.809809,-8.8050463 4.005831,-8.9672273 l 0.260296,0.010449 v -0.00933 a 2.0139021,2.620184 0 0 1 0.388752,0.070375 c 0.02281,0.00713 0.04564,0.014846 0.06803,0.023639 l 0.01605,0.00552 c 1.078365,0.410125 1.819526,1.9879553 2.414064,4.0281353 l 0.02027,0.06982 0.02027,0.07092 c 0.406501,1.429388 0.744545,3.07374 1.078365,4.697747 0.952865,4.636176 1.852907,9.016163 4.546708,9.016163 v -2.249158 c -1.366552,0 -2.134758,-3.735657 -2.877611,-7.349269 z"
     id="path12"
     style="fill:#8cb28c;stroke-width:0.0481983" />
  <path
     class="cls-4"
     d="m 24.024209,26.133057 c -2.155034,0 -2.810841,-4.785712 -3.56933,-10.32845 -0.658342,-4.804405 -1.477256,-10.7825607 -3.191566,-10.7825607 -1.714309,0 -2.535337,5.9792537 -3.191988,10.7825607 -0.758489,5.541638 -1.414295,10.32845 -3.568908,10.32845 v -1.759251 c 1.022162,0 1.753606,-5.342624 2.239547,-8.878168 0.822293,-6.0149878 1.675434,-12.2328401 4.521349,-12.2328401 2.845916,0 3.698632,6.2189496 4.52135,12.2328401 0.48467,3.535544 1.21654,8.878168 2.239546,8.878168 z"
     id="path14"
     style="fill:#60a2d7;stroke-width:0.0481983" />
</svg>
