<?xml version="1.0" encoding="UTF-8" standalone="no"?>
<svg
   xmlns:dc="http://purl.org/dc/elements/1.1/"
   xmlns:cc="http://creativecommons.org/ns#"
   xmlns:rdf="http://www.w3.org/1999/02/22-rdf-syntax-ns#"
   xmlns:svg="http://www.w3.org/2000/svg"
   xmlns="http://www.w3.org/2000/svg"
   xmlns:sodipodi="http://sodipodi.sourceforge.net/DTD/sodipodi-0.dtd"
   xmlns:inkscape="http://www.inkscape.org/namespaces/inkscape"
   width="32.0px"
   height="32.0px"
   id="Capa_1"
   data-name="Capa 1"
   viewBox="0 0 32 32"
   version="1.1"
   sodipodi:docname="histo.svg"
   inkscape:version="1.0.1 (3bc2e813f5, 2020-09-07)">
  <defs
     id="defs10" />
  <sodipodi:namedview
     pagecolor="#ffffff"
     bordercolor="#666666"
     borderopacity="1"
     objecttolerance="10"
     gridtolerance="10"
     guidetolerance="10"
     inkscape:pageopacity="0"
     inkscape:pageshadow="2"
     inkscape:window-width="1745"
     inkscape:window-height="1026"
     id="namedview8"
     showgrid="false"
     inkscape:zoom="8.1275938"
     inkscape:cx="29.703121"
     inkscape:cy="6.3407374"
     inkscape:window-x="0"
     inkscape:window-y="0"
     inkscape:window-maximized="0"
     inkscape:current-layer="Capa_1" />
  <metadata
     id="metadata23">
    <rdf:RDF>
      <cc:Work
         rdf:about="">
        <dc:format>image/svg+xml</dc:format>
        <dc:type
           rdf:resource="http://purl.org/dc/dcmitype/StillImage" />
        <dc:title>histo</dc:title>
      </cc:Work>
    </rdf:RDF>
  </metadata>
  <title
     id="title6">histo</title>
  <path
     class="cls-1"
     d="M 32.006681,32.085225 H 0.0030949 V 7.3295774e-4 H 2.0033204 V 30.079946 H 32.006681 Z"
     id="path8"
     style="fill:#92aeba;stroke-width:0.0625861" />
  <path
     class="cls-2"
     d="m 15.512805,19.796976 c -0.364536,-1.774568 -0.751308,-3.653523 -1.316425,-5.200029 -0.0039,-0.01078 -0.0078,-0.02157 -0.01221,-0.03233 -0.01918,-0.05276 -0.03881,-0.104956 -0.05843,-0.156581 l -0.02399,-0.06241 c -0.01614,-0.04198 -0.03271,-0.08397 -0.04971,-0.125378 -0.0092,-0.02326 -0.01833,-0.04709 -0.02791,-0.07036 -0.02181,-0.05332 -0.04361,-0.106655 -0.06628,-0.158851 -0.01615,-0.03857 -0.03313,-0.07659 -0.04972,-0.113462 l -0.02269,-0.0522 c -0.01874,-0.04198 -0.03751,-0.08283 -0.05625,-0.123674 l -0.01178,-0.02553 c -0.453491,-0.974645 -1.011193,-1.739956 -1.728925,-2.145588 l -0.0157,-0.0091 c -0.03096,-0.01703 -0.06193,-0.03348 -0.09332,-0.04936 l -0.03182,-0.01532 c -0.03052,-0.01476 -0.06105,-0.02949 -0.09201,-0.04311 l -0.0074,-0.0026 c -0.05931,-0.02611 -0.119911,-0.04879 -0.181394,-0.06978 l -0.05974,-0.01985 -0.07369,-0.02157 -0.07151,-0.01814 -0.0689,-0.01646 c -0.03445,-0.0074 -0.06976,-0.01361 -0.104651,-0.01985 l -0.07195,-0.01078 c -0.03662,-0.0051 -0.07326,-0.0097 -0.110757,-0.01303 l -0.02224,-0.0027 v 0 c -0.07326,-0.0062 -0.146949,-0.01022 -0.222819,-0.01022 h -0.06976 c -2.8879351,0 -3.8254329,4.562933 -4.6530495,8.588047 -0.6004357,2.918848 -1.2204924,5.936977 -2.3241263,5.936977 v 1.815415 c 2.1749993,0 2.9023226,-3.536089 3.6710729,-7.280384 0.7177281,-3.49863 1.4616222,-7.11244 3.2350219,-7.242922 l 0.210174,0.008 v -0.008 a 1.6364814,2.1291415 0 0 1 0.31352,0.05673 l 0.05538,0.01929 0.01309,0.0045 c 0.872093,0.331315 1.469041,1.605511 1.949126,3.252999 0.0057,0.01871 0.01134,0.03744 0.01656,0.05673 0.0053,0.01929 0.01091,0.03801 0.01656,0.05674 0.327907,1.153923 0.600872,2.482013 0.872092,3.793652 0.768312,3.745426 1.495203,7.282651 3.672817,7.282651 v -1.815324 c -1.105814,0 -1.726306,-3.01813 -2.326306,-5.936408 z"
     id="path10"
     style="fill:#ef7559;stroke-width:1.03193" />
  <path
     class="cls-3"
     d="m 26.437071,17.644006 c -0.466133,-2.26927 -0.959302,-4.667885 -1.682267,-6.644417 -0.0048,-0.01361 -0.01001,-0.02779 -0.01526,-0.04141 -0.02485,-0.06694 -0.04971,-0.133887 -0.075,-0.199697 l -0.03053,-0.07999 c -0.02092,-0.05389 -0.04361,-0.107225 -0.06323,-0.159985 l -0.03619,-0.0902 c -0.02747,-0.06807 -0.05581,-0.136156 -0.08459,-0.203101 -0.0205,-0.04936 -0.04361,-0.09757 -0.06323,-0.145799 l -0.02922,-0.06694 c -0.02398,-0.05276 -0.04753,-0.1055206 -0.07195,-0.1577162 l -0.01482,-0.03234 C 23.691289,8.5743078 22.978353,7.59909 22.061348,7.0805612 l -0.02006,-0.011357 q -0.05887,-0.032904 -0.11904,-0.06297 l -0.04055,-0.019855 c -0.03924,-0.01929 -0.07804,-0.038013 -0.117731,-0.05673 l -0.0096,-0.00398 c -0.07587,-0.032907 -0.153047,-0.061841 -0.231533,-0.089072 l -0.07631,-0.024964 -0.09418,-0.027788 -0.09157,-0.023252 c -0.02922,-0.00735 -0.05843,-0.014746 -0.08721,-0.021002 -0.0436,-0.00965 -0.08721,-0.017577 -0.133864,-0.024964 l -0.09201,-0.014181 c -0.04622,-0.00625 -0.09332,-0.012497 -0.140842,-0.016459 l -0.02877,-0.00341 c 0,0 0,0 0,0 -0.09332,-0.00794 -0.187939,-0.013041 -0.284741,-0.013041 h -0.08721 c -3.69331,0.00398 -4.891129,5.8337208 -5.948543,10.9764508 -0.767005,3.728978 -1.5593,7.583896 -2.969474,7.583896 v 2.320898 c 2.779359,0 3.706395,-4.518682 4.690549,-9.304006 0.919185,-4.469323 1.867587,-9.086147 4.133718,-9.2535053 l 0.268606,0.010782 v -0.00963 a 2.0781963,2.7038339 0 0 1 0.401163,0.072622 c 0.02354,0.00736 0.0471,0.01532 0.0702,0.024394 l 0.01656,0.0057 c 1.112792,0.4232179 1.877615,2.0514193 2.491133,4.1567323 l 0.02092,0.07205 0.02092,0.07318 c 0.419478,1.475021 0.768314,3.171869 1.112792,4.847723 0.983285,4.784187 1.912061,9.304006 4.691862,9.304006 v -2.320963 c -1.410179,0 -2.20291,-3.854918 -2.969479,-7.583895 z"
     id="path12"
     style="fill:#8cb28c;stroke-width:0.049737" />
  <path
     class="cls-4"
     d="m 23.348554,27.5488 c -2.223834,0 -2.900577,-4.938497 -3.683281,-10.658188 -0.67936,-4.957787 -1.524418,-11.1267932 -3.293458,-11.1267932 -1.769038,0 -2.616278,6.1701392 -3.293892,11.1267932 C 12.295219,22.609168 11.618476,27.5488 9.3950765,27.5488 v -1.815416 c 1.0547945,0 1.8095905,-5.513188 2.3110445,-9.161605 0.848545,-6.207017 1.728923,-12.623373 4.665694,-12.623373 2.936773,0 3.816712,6.417488 4.665695,12.623373 0.500143,3.648417 1.255379,9.161605 2.311044,9.161605 z"
     id="path14"
     style="fill:#60a2d7;stroke-width:0.049737" />
</svg>
