<?xml version="1.0" encoding="UTF-8" standalone="no"?>
<svg
   xmlns:dc="http://purl.org/dc/elements/1.1/"
   xmlns:cc="http://creativecommons.org/ns#"
   xmlns:rdf="http://www.w3.org/1999/02/22-rdf-syntax-ns#"
   xmlns:svg="http://www.w3.org/2000/svg"
   xmlns="http://www.w3.org/2000/svg"
   xmlns:sodipodi="http://sodipodi.sourceforge.net/DTD/sodipodi-0.dtd"
   xmlns:inkscape="http://www.inkscape.org/namespaces/inkscape"
   width="32.0px"
   height="32.0px"
   id="Capa_1"
   data-name="Capa 1"
   viewBox="0 0 32 32"
   version="1.1"
   sodipodi:docname="list.svg"
   inkscape:version="1.0.1 (3bc2e813f5, 2020-09-07)">
  <defs
     id="defs27" />
  <sodipodi:namedview
     pagecolor="#ffffff"
     bordercolor="#666666"
     borderopacity="1"
     objecttolerance="10"
     gridtolerance="10"
     guidetolerance="10"
     inkscape:pageopacity="0"
     inkscape:pageshadow="2"
     inkscape:window-width="1920"
     inkscape:window-height="1028"
     id="namedview25"
     showgrid="false"
     inkscape:zoom="11.135023"
     inkscape:cx="11.787315"
     inkscape:cy="24.643143"
     inkscape:window-x="0"
     inkscape:window-y="0"
     inkscape:window-maximized="1"
     inkscape:current-layer="Capa_1" />
  <metadata
     id="metadata23">
    <rdf:RDF>
      <cc:Work
         rdf:about="">
        <dc:format>image/svg+xml</dc:format>
        <dc:type
           rdf:resource="http://purl.org/dc/dcmitype/StillImage" />
        <dc:title>list</dc:title>
      </cc:Work>
    </rdf:RDF>
  </metadata>
  <title
     id="title6">list</title>
  <g
     id="g915"
     transform="matrix(0.70710678,0.70710678,0.70710678,-0.70710678,1.1192676,21.75346)">
    <rect
       class="cls-2"
       x="12.443061"
       y="-9.0212574"
       width="18.190001"
       height="18.950001"
       transform="matrix(0.70710678,0.70710678,0.70710678,-0.70710678,0,0)"
       id="rect12"
       style="fill:#424a60;stroke:#e7eced;stroke-width:0.71px;stroke-miterlimit:10" />
    <path
       class="cls-3"
       d="m 7.79,16.241498 a 1.73,1.73 0 1 0 0,-2.44 1.73,1.73 0 0 0 0,2.44 z"
       id="path14"
       style="fill:#efce4a" />
    <polygon
       class="cls-4"
       points="19.84,16.52 21.99,16.52 25.74,12.77 23.36,10.39 22.79,10.36 16.63,10.62 16.9,16.52 "
       id="polygon16"
       transform="matrix(1,0,0,-1,0,29.821498)"
       style="fill:#1a9172" />
    <polygon
       class="cls-5"
       points="19.84,16.52 13.96,16.52 13.41,25.09 21.99,16.52 "
       id="polygon18"
       transform="matrix(1,0,0,-1,0,29.821498)"
       style="fill:#25ae88" />
  </g>
  <g
     id="g915-3-5"
     transform="matrix(0.70710678,0.70710678,0.70710678,-0.70710678,-2.876817,17.702024)">
    <rect
       class="cls-2"
       x="12.443061"
       y="-9.0212574"
       width="18.190001"
       height="18.950001"
       transform="matrix(0.70710678,0.70710678,0.70710678,-0.70710678,0,0)"
       id="rect12-6-6"
       style="fill:#424a60;stroke:#e7eced;stroke-width:0.71px;stroke-miterlimit:10" />
    <path
       class="cls-3"
       d="m 7.79,16.241498 a 1.73,1.73 0 1 0 0,-2.44 1.73,1.73 0 0 0 0,2.44 z"
       id="path14-7-2"
       style="fill:#efce4a" />
    <polygon
       class="cls-4"
       points="21.99,16.52 25.74,12.77 23.36,10.39 22.79,10.36 16.63,10.62 16.9,16.52 19.84,16.52 "
       id="polygon16-5-9"
       transform="matrix(1,0,0,-1,0,29.821498)"
       style="fill:#1a9172" />
    <polygon
       class="cls-5"
       points="19.84,16.52 13.96,16.52 13.41,25.09 21.99,16.52 "
       id="polygon18-3-1"
       transform="matrix(1,0,0,-1,0,29.821498)"
       style="fill:#25ae88" />
  </g>
  <g
     id="g915-3-5-2-6"
     transform="matrix(0.70710678,0.70710678,0.70710678,-0.70710678,-7.163745,13.550692)">
    <rect
       class="cls-2"
       x="12.443061"
       y="-9.0212574"
       width="18.190001"
       height="18.950001"
       transform="matrix(0.70710678,0.70710678,0.70710678,-0.70710678,0,0)"
       id="rect12-6-6-7-0"
       style="fill:#424a60;stroke:#e7eced;stroke-width:0.71px;stroke-miterlimit:10" />
    <path
       class="cls-3"
       d="m 7.79,16.241498 a 1.73,1.73 0 1 0 0,-2.44 1.73,1.73 0 0 0 0,2.44 z"
       id="path14-7-2-0-6"
       style="fill:#efce4a" />
    <polygon
       class="cls-4"
       points="21.99,16.52 25.74,12.77 23.36,10.39 22.79,10.36 16.63,10.62 16.9,16.52 19.84,16.52 "
       id="polygon16-5-9-9-2"
       transform="matrix(1,0,0,-1,0,29.821498)"
       style="fill:#1a9172" />
    <polygon
       class="cls-5"
       points="21.99,16.52 19.84,16.52 13.96,16.52 13.41,25.09 "
       id="polygon18-3-1-3-6"
       transform="matrix(1,0,0,-1,0,29.821498)"
       style="fill:#25ae88" />
  </g>
  <g
     id="g915-3-5-2-6-1"
     transform="matrix(0.70710678,0.70710678,0.70710678,-0.70710678,-12.070712,9.4335)">
    <rect
       class="cls-2"
       x="12.443061"
       y="-9.0212574"
       width="18.190001"
       height="18.950001"
       transform="matrix(0.70710678,0.70710678,0.70710678,-0.70710678,0,0)"
       id="rect12-6-6-7-0-8"
       style="fill:#424a60;stroke:#e7eced;stroke-miterlimit:10;stroke-width:0.71px;" />
    <path
       class="cls-3"
       d="m 7.79,16.241498 a 1.73,1.73 0 1 0 0,-2.44 1.73,1.73 0 0 0 0,2.44 z"
       id="path14-7-2-0-6-7"
       style="fill:#efce4a;" />
    <polygon
       class="cls-4"
       points="23.36,10.39 22.79,10.36 16.63,10.62 16.9,16.52 19.84,16.52 21.99,16.52 25.74,12.77 "
       id="polygon16-5-9-9-2-9"
       transform="matrix(1,0,0,-1,0,29.821498)"
       style="fill:#1a9172;" />
    <polygon
       class="cls-5"
       points="13.96,16.52 13.41,25.09 21.99,16.52 19.84,16.52 "
       id="polygon18-3-1-3-6-2"
       transform="matrix(1,0,0,-1,0,29.821498)"
       style="fill:#25ae88;" />
  </g>
</svg>
