<?xml version="1.0" encoding="UTF-8" standalone="no"?>
<svg
   xmlns:dc="http://purl.org/dc/elements/1.1/"
   xmlns:cc="http://creativecommons.org/ns#"
   xmlns:rdf="http://www.w3.org/1999/02/22-rdf-syntax-ns#"
   xmlns:svg="http://www.w3.org/2000/svg"
   xmlns="http://www.w3.org/2000/svg"
   xmlns:sodipodi="http://sodipodi.sourceforge.net/DTD/sodipodi-0.dtd"
   xmlns:inkscape="http://www.inkscape.org/namespaces/inkscape"
   width="24"
   height="24"
   id="svg2"
   version="1.1"
   inkscape:version="0.91 r13725"
   sodipodi:docname="list.svg">
  <defs
     id="defs22" />
  <sodipodi:namedview
     pagecolor="#ffffff"
     bordercolor="#666666"
     borderopacity="1"
     objecttolerance="10"
     gridtolerance="10"
     guidetolerance="10"
     inkscape:pageopacity="0"
     inkscape:pageshadow="2"
     inkscape:window-width="1305"
     inkscape:window-height="974"
     id="namedview20"
     showgrid="false"
     inkscape:zoom="16"
     inkscape:cx="18.766722"
     inkscape:cy="21.504888"
     inkscape:window-x="0"
     inkscape:window-y="0"
     inkscape:window-maximized="0"
     inkscape:current-layer="svg2" />
  <metadata
     id="metadata4051">image/svg+xmlListe22 mars 2010Louis-Martin Proulx<rdf:RDF>
  <cc:Work
     rdf:about="">
    <dc:format>image/svg+xml</dc:format>
    <dc:type
       rdf:resource="http://purl.org/dc/dcmitype/StillImage" />
    <dc:title></dc:title>
  </cc:Work>
</rdf:RDF>
</metadata>
  <g
     id="g5"
     transform="matrix(0.22857143,0,0,0.22857143,-19.865456,-9.4857159)">
    <title
       id="title7">Layer 1</title>
    <rect
       id="svg_1"
       height="100"
       width="85"
       y="44"
       x="97"
       style="fill:#ffffff;stroke:#000000;stroke-width:5" />
    <g
       id="layer1">
      <g
         id="g4036">
        <path
           stroke-miterlimit="4"
           d="m 111.65592,54.219154 c -3.72967,0.723694 -3.29059,2.412903 -3.65591,3.915771 l 1.76871,71.534495 c -0.078,2.18626 0.46237,3.79962 3.02539,3.53929 l 54.51575,0.15419 c 1.88315,-0.30469 3.43471,-1.07015 3.5616,-3.81519 l 1.52831,-72.412725 c -0.17916,-3.220215 -2.1583,-3.10553 -4.05965,-3.13501 l -56.6842,0.219177 z"
           id="path4008"
           inkscape:connector-curvature="0"
           style="fill:none;fill-opacity:0.99218798;stroke:#000000;stroke-width:2;stroke-linecap:round;stroke-linejoin:round;stroke-miterlimit:4;stroke-dashoffset:0" />
        <path
           stroke-miterlimit="4"
           d="m 116.26603,69.774635 0,12.287415 11.91865,-0.491516 1.0364,-11.304382 -12.95505,-0.491516 z"
           id="path4010"
           inkscape:connector-curvature="0"
           style="fill:#ffffff;fill-opacity:0.99218798;stroke:#000000;stroke-width:1;stroke-linejoin:round;stroke-miterlimit:4;stroke-dashoffset:0" />
        <path
           stroke-miterlimit="4"
           d="m 134.14329,78.38102 31.8034,-0.418457"
           id="path4012"
           inkscape:connector-curvature="0"
           style="fill:#ffffff;fill-opacity:0.99218798;stroke:#000000;stroke-linejoin:round;stroke-miterlimit:4;stroke-dashoffset:0" />
        <path
           stroke-miterlimit="4"
           d="m 132.82565,95.85038 31.80928,0"
           id="path4016"
           inkscape:connector-curvature="0"
           style="fill:#ffffff;fill-opacity:0.99218798;stroke:#000000;stroke-linejoin:round;stroke-miterlimit:4;stroke-dashoffset:0" />
        <path
           stroke-miterlimit="4"
           d="m 133.43515,113.85545 31.70445,0.29583"
           id="path4020"
           inkscape:connector-curvature="0"
           style="fill:#ffffff;fill-opacity:0.99218798;stroke:#000000;stroke-linejoin:round;stroke-miterlimit:4;stroke-dashoffset:0" />
        <path
           stroke-miterlimit="4"
           d="m 119.96748,73.58799 -1.23145,1.020142 3.54486,4.276123 10.74764,-9.484192 -1.8507,-1.906677 -8.66558,8.636841 -2.54477,-2.542236 z"
           id="path4030"
           inkscape:connector-curvature="0"
           style="fill:#ff0000;fill-opacity:0.99218798;stroke:#ff0000;stroke-linejoin:round;stroke-miterlimit:4;stroke-dashoffset:0" />
        <path
           stroke-miterlimit="4"
           d="m 116.39893,87.258339 0,12.287415 11.91867,-0.491516 1.03642,-11.304382 -12.95509,-0.491516 z"
           id="path4032"
           inkscape:connector-curvature="0"
           style="fill:#ffffff;fill-opacity:0.99218798;stroke:#000000;stroke-width:1;stroke-linejoin:round;stroke-miterlimit:4;stroke-dashoffset:0" />
        <path
           stroke-miterlimit="4"
           d="m 116.904,105.69364 0,12.28736 11.91866,-0.49146 1.03641,-11.30444 -12.95507,-0.49146 z"
           id="path4034"
           inkscape:connector-curvature="0"
           style="fill:#ffffff;fill-opacity:0.99218798;stroke:#000000;stroke-width:1;stroke-linejoin:round;stroke-miterlimit:4;stroke-dashoffset:0" />
      </g>
    </g>
  </g>
  <path
     style="fill:#800080"
     d="m 1.7812153,12.006099 0,-11.9661344 10.2470557,0 10.247056,0 0,11.9661344 0,11.966134 -10.247056,0 -10.2470557,0 0,-11.966134 z m 19.4154737,0 0,-10.887497 -9.168418,0 -9.1684182,0 0,10.887497 0,10.887497 9.1684182,0 9.168418,0 0,-10.887497 z"
     id="path3349"
     inkscape:connector-curvature="0" />
  <path
     style="fill:#800080"
     d="M 8.3988377,21.142196 5.4098451,21.107103 5.2501987,20.921446 C 5.1623931,20.819334 5.0748306,20.637315 5.0556151,20.516957 4.9881129,20.09415 4.6203517,3.776539 4.673058,3.542846 4.761304,3.151575 4.8782297,3.000574 5.2082841,2.851642 5.5198066,2.711072 5.5856086,2.709487 12.264666,2.681685 c 7.526961,-0.03133 7.132603,-0.05403 7.360431,0.423726 0.108943,0.228455 0.105561,0.698639 -0.06272,8.719025 -0.119383,5.689806 -0.202771,8.543417 -0.253584,8.677861 -0.109852,0.290652 -0.394633,0.562057 -0.670033,0.638563 -0.245323,0.06815 -4.501812,0.06871 -10.2399203,0.0013 l 0,1e-6 z M 18.593304,20.73933 c 0.409076,-0.155531 0.378731,0.269447 0.552549,-7.738249 0.196335,-9.044964 0.19995,-9.678844 0.05603,-9.822764 -0.0968,-0.0968 -0.764952,-0.105435 -6.893168,-0.08908 -7.4403362,0.01985 -7.0843786,-9.87e-4 -7.2242923,0.422956 -0.08768,0.265672 0.3042077,16.837264 0.403692,17.070768 0.061793,0.145036 0.1002511,0.150675 1.1616108,0.170328 2.9587605,0.05479 11.7899175,0.04447 11.9435775,-0.01396 z"
     id="path3351"
     inkscape:connector-curvature="0" />
  <path
     style="fill:#800080"
     d="m 14.269994,16.683702 c -1.694353,-0.01554 -3.205327,-0.03148 -3.35772,-0.03542 l -0.277079,-0.0071 0,-0.107668 0,-0.10767 0.569055,0.0077 c 0.31298,0.0043 1.823954,0.01851 3.35772,0.03166 1.533765,0.01316 2.907987,0.02714 3.053826,0.03107 l 0.265161,0.0071 -1.07e-4,0.04337 c -5.9e-5,0.02385 -0.0034,0.07152 -0.0076,0.10593 l -0.0075,0.06256 -0.257543,-0.0017 c -0.141648,-9e-4 -1.643831,-0.01438 -3.338183,-0.02992 z"
     id="path3353"
     inkscape:connector-curvature="0" />
  <path
     style="fill:#800080"
     d="m 6.7793832,17.556017 -0.029251,-0.02925 0,-1.449044 0,-1.449044 0.029251,-0.02925 c 0.038075,-0.03808 0.019838,-0.03817 1.1879863,0.0063 1.7657635,0.06723 1.8715105,0.07202 1.8975995,0.08591 0.03976,0.02117 0.05438,0.04745 0.05506,0.09901 0.001,0.08016 -0.226299,2.55917 -0.239088,2.606856 -0.02287,0.08526 0.171118,0.06972 -1.9743683,0.158169 -0.9125986,0.03762 -0.8899201,0.03761 -0.927188,3.47e-4 l 0,0 z m 1.5542203,-0.24509 c 0.6251138,-0.02548 1.1389705,-0.04874 1.1419035,-0.05167 0.009,-0.009 0.221639,-2.355947 0.214142,-2.363445 -0.0039,-0.0039 -0.6145467,-0.03028 -1.357076,-0.0587 -0.7425285,-0.02842 -1.3540749,-0.05185 -1.3589908,-0.05205 -0.00491,-2.04e-4 -0.00894,0.581521 -0.00894,1.292723 l 0,1.293095 0.1161944,-0.0068 c 0.063907,-0.0038 0.6276512,-0.02766 1.2527649,-0.05315 z"
     id="path3355"
     inkscape:connector-curvature="0" />
  <path
     style="fill:#800080"
     d="m 10.504104,12.425047 0,-0.107256 3.62884,0 3.62884,0 0,0.107256 0,0.107257 -3.62884,0 -3.62884,0 0,-0.107257 z"
     id="path3357"
     inkscape:connector-curvature="0" />
  <path
     style="fill:#800080"
     d="m 6.6870163,13.359942 c -0.018327,-0.01023 -0.038437,-0.03205 -0.04469,-0.04849 -0.00698,-0.01837 -0.011368,-0.581534 -0.011368,-1.460126 l 0,-1.430226 0.034835,-0.03484 c 0.042067,-0.04207 -0.027788,-0.04097 0.7338352,-0.01147 0.3277276,0.0127 0.9819916,0.03745 1.4539194,0.05501 0.5419621,0.02017 0.8686321,0.03686 0.8867731,0.0453 0.01579,0.0073 0.03858,0.02678 0.05063,0.04316 0.02146,0.02918 0.01946,0.05648 -0.09725,1.326826 -0.06554,0.713367 -0.119157,1.307214 -0.119157,1.319661 0,0.01244 -0.0151,0.03953 -0.03355,0.06018 l -0.03355,0.03755 -0.8155599,0.03355 c -0.4485577,0.01845 -1.0220272,0.04173 -1.2743779,0.05174 -0.2523503,0.01 -0.512447,0.02102 -0.5779925,0.02448 -0.094558,0.0049 -0.1260566,0.0025 -0.1524956,-0.01231 z M 8.245762,13.097123 c 0.6095737,-0.02453 1.110798,-0.04659 1.1138318,-0.04903 0.00457,-0.0037 0.2258532,-2.365233 0.2221282,-2.370732 -0.0013,-0.002 -2.1383719,-0.08369 -2.5008834,-0.09557 l -0.2353681,-0.0077 0,1.290803 0,1.290804 0.1459878,-0.007 c 0.080293,-0.0038 0.6447299,-0.02705 1.2543037,-0.05158 z"
     id="path3359"
     inkscape:connector-curvature="0" />
  <path
     style="fill:#800080"
     d="m 10.802038,8.435016 0,-0.107251 0.122153,-0.0066 c 0.106672,-0.0058 6.800755,-0.09273 7.043168,-0.09151 l 0.09236,4.64e-4 0,0.105485 0,0.105485 -0.49755,0.0081 c -0.273653,0.0044 -1.720273,0.02371 -3.214711,0.04283 -1.494439,0.01912 -2.903519,0.03826 -3.13129,0.04252 l -0.414129,0.0078 0,-0.107251 z"
     id="path3361"
     inkscape:connector-curvature="0" />
  <path
     style="fill:#800080"
     d="m 6.6506965,9.360703 c -0.05665,-0.03293 -0.055491,-0.0017 -0.055491,-1.494051 0,-1.524316 -0.00252,-1.466787 0.065582,-1.497815 0.023997,-0.01093 0.1224676,-0.01089 0.432624,1.96e-4 0.5181157,0.01852 1.8936637,0.07033 2.145612,0.08082 L 9.433821,6.457953 9.328404,6.562815 9.2229862,6.667677 8.1623399,6.627547 C 7.578985,6.605476 7.0386808,6.584357 6.9616648,6.580617 l -0.1400291,-0.0068 0,1.292986 0,1.292988 0.1340705,-0.007 c 0.073739,-0.0038 0.6372363,-0.02749 1.2522175,-0.05259 0.6149805,-0.0251 1.1200583,-0.04754 1.1223946,-0.04988 0.00233,-0.0023 0.034155,-0.331302 0.070718,-0.731033 0.03655,-0.399731 0.06968,-0.754572 0.07359,-0.788535 0.007,-0.06068 0.0092,-0.06355 0.1260967,-0.165545 l 0.118971,-0.103793 -0.0076,0.06425 c -0.0041,0.03534 -0.04467,0.471191 -0.09003,0.968567 -0.07066,0.774744 -0.08551,0.907667 -0.103617,0.92768 -0.04368,0.04826 0.09737,0.03906 -1.7899608,0.116733 -0.9448135,0.03888 -1.0452807,0.04094 -1.0778332,0.02201 z"
     id="path3363"
     inkscape:connector-curvature="0" />
</svg>
