<?xml version="1.0" encoding="UTF-8" standalone="no"?>
<svg
   xmlns:dc="http://purl.org/dc/elements/1.1/"
   xmlns:cc="http://creativecommons.org/ns#"
   xmlns:rdf="http://www.w3.org/1999/02/22-rdf-syntax-ns#"
   xmlns:svg="http://www.w3.org/2000/svg"
   xmlns="http://www.w3.org/2000/svg"
   xmlns:sodipodi="http://sodipodi.sourceforge.net/DTD/sodipodi-0.dtd"
   xmlns:inkscape="http://www.inkscape.org/namespaces/inkscape"
   width="32.0px"
   height="32.0px"
   id="Capa_1"
   data-name="Capa 1"
   viewBox="0 0 31.01 29.83"
   version="1.1"
   sodipodi:docname="list.svg"
   inkscape:version="1.0.1 (3bc2e813f5, 2020-09-07)">
  <metadata
     id="metadata23">
    <rdf:RDF>
      <cc:Work
         rdf:about="">
        <dc:format>image/svg+xml</dc:format>
        <dc:type
           rdf:resource="http://purl.org/dc/dcmitype/StillImage" />
        <dc:title>rotate dark</dc:title>
      </cc:Work>
    </rdf:RDF>
  </metadata>
  <sodipodi:namedview
     pagecolor="#ffffff"
     bordercolor="#666666"
     borderopacity="1"
     objecttolerance="10"
     gridtolerance="10"
     guidetolerance="10"
     inkscape:pageopacity="0"
     inkscape:pageshadow="2"
     inkscape:window-width="1920"
     inkscape:window-height="1028"
     id="namedview21"
     showgrid="false"
     inkscape:zoom="9.9283643"
     inkscape:cx="4.528156"
     inkscape:cy="13.965919"
     inkscape:window-x="0"
     inkscape:window-y="0"
     inkscape:window-maximized="1"
     inkscape:current-layer="Capa_1" />
  <defs
     id="defs4">
    <style
       id="style2">.cls-1{fill:#fff;}.cls-2{fill:#424a60;stroke:#e7eced;stroke-miterlimit:10;stroke-width:0.71px;}.cls-3{fill:#efce4a;}.cls-4{fill:#1a9172;}.cls-5{fill:#25ae88;}</style>
  </defs>
  <title
     id="title6">rotate dark</title>
  <g
     id="g915"
     transform="matrix(0.70710678,0.70710678,0.70710678,-0.70710678,-0.0482199,19.508285)">
    <rect
       class="cls-2"
       x="12.443061"
       y="-9.0212574"
       width="18.190001"
       height="18.950001"
       transform="matrix(0.70710678,0.70710678,0.70710678,-0.70710678,0,0)"
       id="rect12" />
    <path
       class="cls-3"
       d="m 7.79,16.241498 a 1.73,1.73 0 1 0 0,-2.44 1.73,1.73 0 0 0 0,2.44 z"
       id="path14"
       style="stroke-width:1" />
    <polygon
       class="cls-4"
       points="22.79,10.36 16.63,10.62 16.9,16.52 19.84,16.52 21.99,16.52 25.74,12.77 23.36,10.39 "
       id="polygon16"
       transform="matrix(1,0,0,-1,0,29.821498)" />
    <polygon
       class="cls-5"
       points="13.41,25.09 21.99,16.52 19.84,16.52 13.96,16.52 "
       id="polygon18"
       transform="matrix(1,0,0,-1,0,29.821498)" />
  </g>
  <g
     id="g915-3-5"
     transform="matrix(0.70710678,0.70710678,0.70710678,-0.70710678,-4.0443041,16.175305)">
    <rect
       class="cls-2"
       x="12.443061"
       y="-9.0212574"
       width="18.190001"
       height="18.950001"
       transform="matrix(0.70710678,0.70710678,0.70710678,-0.70710678,0,0)"
       id="rect12-6-6" />
    <path
       class="cls-3"
       d="m 7.79,16.241498 a 1.73,1.73 0 1 0 0,-2.44 1.73,1.73 0 0 0 0,2.44 z"
       id="path14-7-2"
       style="stroke-width:1" />
    <polygon
       class="cls-4"
       points="16.9,16.52 19.84,16.52 21.99,16.52 25.74,12.77 23.36,10.39 22.79,10.36 16.63,10.62 "
       id="polygon16-5-9"
       transform="matrix(1,0,0,-1,0,29.821498)" />
    <polygon
       class="cls-5"
       points="13.41,25.09 21.99,16.52 19.84,16.52 13.96,16.52 "
       id="polygon18-3-1"
       transform="matrix(1,0,0,-1,0,29.821498)" />
  </g>
  <g
     id="g915-3-5-2-6"
     transform="matrix(0.70710678,0.70710678,0.70710678,-0.70710678,-8.061812,12.742429)">
    <rect
       class="cls-2"
       x="12.443061"
       y="-9.0212574"
       width="18.190001"
       height="18.950001"
       transform="matrix(0.70710678,0.70710678,0.70710678,-0.70710678,0,0)"
       id="rect12-6-6-7-0" />
    <path
       class="cls-3"
       d="m 7.79,16.241498 a 1.73,1.73 0 1 0 0,-2.44 1.73,1.73 0 0 0 0,2.44 z"
       id="path14-7-2-0-6"
       style="stroke-width:1" />
    <polygon
       class="cls-4"
       points="16.9,16.52 19.84,16.52 21.99,16.52 25.74,12.77 23.36,10.39 22.79,10.36 16.63,10.62 "
       id="polygon16-5-9-9-2"
       transform="matrix(1,0,0,-1,0,29.821498)" />
    <polygon
       class="cls-5"
       points="19.84,16.52 13.96,16.52 13.41,25.09 21.99,16.52 "
       id="polygon18-3-1-3-6"
       transform="matrix(1,0,0,-1,0,29.821498)" />
  </g>
  <g
     id="g915-3-5-2-6-1"
     transform="matrix(0.70710678,0.70710678,0.70710678,-0.70710678,-12.070712,9.4335)">
    <rect
       class="cls-2"
       x="12.443061"
       y="-9.0212574"
       width="18.190001"
       height="18.950001"
       transform="matrix(0.70710678,0.70710678,0.70710678,-0.70710678,0,0)"
       id="rect12-6-6-7-0-8" />
    <path
       class="cls-3"
       d="m 7.79,16.241498 a 1.73,1.73 0 1 0 0,-2.44 1.73,1.73 0 0 0 0,2.44 z"
       id="path14-7-2-0-6-7"
       style="stroke-width:1" />
    <polygon
       class="cls-4"
       points="23.36,10.39 22.79,10.36 16.63,10.62 16.9,16.52 19.84,16.52 21.99,16.52 25.74,12.77 "
       id="polygon16-5-9-9-2-9"
       transform="matrix(1,0,0,-1,0,29.821498)" />
    <polygon
       class="cls-5"
       points="13.96,16.52 13.41,25.09 21.99,16.52 19.84,16.52 "
       id="polygon18-3-1-3-6-2"
       transform="matrix(1,0,0,-1,0,29.821498)" />
  </g>
</svg>
