<?xml version="1.0" encoding="UTF-8" standalone="no"?>
<svg
   xmlns:dc="http://purl.org/dc/elements/1.1/"
   xmlns:cc="http://creativecommons.org/ns#"
   xmlns:rdf="http://www.w3.org/1999/02/22-rdf-syntax-ns#"
   xmlns:svg="http://www.w3.org/2000/svg"
   xmlns="http://www.w3.org/2000/svg"
   width="32"
   height="32"
   id="svg2"
   version="1.1">
  <defs
     id="defs22" />
  <metadata
     id="metadata4051">image/svg+xmlListe22 mars 2010Louis-Martin Proulx<rdf:RDF>
  <cc:Work
     rdf:about="">
    <dc:format>image/svg+xml</dc:format>
    <dc:type
       rdf:resource="http://purl.org/dc/dcmitype/StillImage" />
    <dc:title></dc:title>
  </cc:Work>
</rdf:RDF>
</metadata>
  <g
     id="g5"
     transform="matrix(0.3047619,0,0,0.3047619,-26.440456,-12.64762)">
    <title
       id="title7">Layer 1</title>
    <rect
       id="svg_1"
       height="100"
       width="85"
       y="44"
       x="97"
       style="fill:#ffffff;stroke:#000000;stroke-width:5" />
    <g
       id="layer1">
      <g
         id="g4036">
        <path
           stroke-miterlimit="4"
           d="m 111.65592,54.219154 c -3.72967,0.723694 -3.29059,2.412903 -3.65591,3.915771 l 1.76871,71.534495 c -0.078,2.18626 0.46237,3.79962 3.02539,3.53929 l 54.51575,0.15419 c 1.88315,-0.30469 3.43471,-1.07015 3.5616,-3.81519 l 1.52831,-72.412725 c -0.17916,-3.220215 -2.1583,-3.10553 -4.05965,-3.13501 l -56.6842,0.219177 z"
           id="path4008"
           style="fill:none;fill-opacity:0.99218798;stroke:#000000;stroke-width:2;stroke-linecap:round;stroke-linejoin:round;stroke-miterlimit:4;stroke-dashoffset:0" />
        <path
           stroke-miterlimit="4"
           d="m 116.26603,69.774635 0,12.287415 11.91865,-0.491516 1.0364,-11.304382 -12.95505,-0.491516 z"
           id="path4010"
           style="fill:#ffffff;fill-opacity:0.99218798;stroke:#000000;stroke-width:1;stroke-linejoin:round;stroke-miterlimit:4;stroke-dashoffset:0" />
        <path
           stroke-miterlimit="4"
           d="m 134.14329,78.38102 31.8034,-0.418457"
           id="path4012"
           style="fill:#ffffff;fill-opacity:0.99218798;stroke:#000000;stroke-linejoin:round;stroke-miterlimit:4;stroke-dashoffset:0" />
        <path
           stroke-miterlimit="4"
           d="m 132.82565,95.85038 31.80928,0"
           id="path4016"
           style="fill:#ffffff;fill-opacity:0.99218798;stroke:#000000;stroke-linejoin:round;stroke-miterlimit:4;stroke-dashoffset:0" />
        <path
           stroke-miterlimit="4"
           d="m 133.43515,113.85545 31.70445,0.29583"
           id="path4020"
           style="fill:#ffffff;fill-opacity:0.99218798;stroke:#000000;stroke-linejoin:round;stroke-miterlimit:4;stroke-dashoffset:0" />
        <path
           stroke-miterlimit="4"
           d="m 119.96748,73.58799 -1.23145,1.020142 3.54486,4.276123 10.74764,-9.484192 -1.8507,-1.906677 -8.66558,8.636841 -2.54477,-2.542236 z"
           id="path4030"
           style="fill:#ff0000;fill-opacity:0.99218798;stroke:#ff0000;stroke-linejoin:round;stroke-miterlimit:4;stroke-dashoffset:0" />
        <path
           stroke-miterlimit="4"
           d="m 116.39893,87.258339 0,12.287415 11.91867,-0.491516 1.03642,-11.304382 -12.95509,-0.491516 z"
           id="path4032"
           style="fill:#ffffff;fill-opacity:0.99218798;stroke:#000000;stroke-width:1;stroke-linejoin:round;stroke-miterlimit:4;stroke-dashoffset:0" />
        <path
           stroke-miterlimit="4"
           d="m 116.904,105.69364 0,12.28736 11.91866,-0.49146 1.03641,-11.30444 -12.95507,-0.49146 z"
           id="path4034"
           style="fill:#ffffff;fill-opacity:0.99218798;stroke:#000000;stroke-width:1;stroke-linejoin:round;stroke-miterlimit:4;stroke-dashoffset:0" />
      </g>
    </g>
  </g>
  <path
     style="fill:none"
     d="m 2.4227989,16.010156 0,-15.95409696 13.6560001,0 13.655999,0 0,15.95409696 0,15.954097 -13.655999,0 -13.6560001,0 0,-15.954097 z m 25.8977861,0 0,-14.5398834 -12.241786,0 -12.2417866,0 0,14.5398834 0,14.539883 12.2417866,0 12.241786,0 0,-14.539883 z"
     id="path3422" />
  <path
     style="fill:none"
     d="m 2.4227989,16.010156 0,-15.95409696 13.6560001,0 13.655999,0 0,15.95409696 0,15.954097 -13.655999,0 -13.6560001,0 0,-15.954097 z m 25.8977861,0 0,-14.5398834 -12.241786,0 -12.2417866,0 0,14.5398834 0,14.539883 12.2417866,0 12.241786,0 0,-14.539883 z"
     id="path3424" />
  <path
     style="fill:none"
     d="M 12.410682,28.174683 C 9.6154006,28.144255 7.2783509,28.087006 7.2172381,28.047463 6.990845,27.900976 6.8525656,27.467995 6.8006455,26.743025 6.7378743,25.86654 6.5378822,17.819841 6.3878044,10.132331 6.2892342,5.083222 6.2922931,4.6741594 6.4307956,4.3832045 6.7302946,3.7540408 6.8156086,3.736601 9.9800026,3.6576786 11.535637,3.61888 15.672212,3.5980822 19.172391,3.6114613 c 7.060553,0.026988 6.789586,0.00379 7.006472,0.599887 0.08645,0.2375932 0.101104,1.0484063 0.0639,3.534497 -0.07758,5.1841167 -0.306077,15.4283337 -0.39281,17.6108837 -0.07329,1.844251 -0.0956,2.032399 -0.270005,2.277334 -0.387257,0.543853 -0.367486,0.541296 -4.406198,0.569887 -2.024406,0.01433 -5.967786,0.0012 -8.763068,-0.02927 z m 12.630812,-0.607751 c 0.145348,-0.119817 0.2067,-0.31405 0.272214,-0.861786 0.122777,-1.026496 0.428172,-13.705138 0.467773,-19.4198793 0.01819,-2.6253303 0.0061,-2.9051771 -0.130992,-3.0425891 -0.140638,-0.1409207 -0.727392,-0.1503766 -8.529475,-0.137458 -4.608147,0.00763 -8.7340045,0.040116 -9.1685732,0.072191 -0.6619692,0.04886 -0.8232526,0.091446 -0.9943689,0.2625627 -0.2431431,0.243143 -0.2334594,-0.2337924 -0.1164747,5.7365512 0.198797,10.145658 0.420781,17.186323 0.5467448,17.341104 0.047167,0.05796 0.2120634,0.121197 0.3664372,0.140534 0.1543738,0.01934 4.0648188,0.04152 8.6898778,0.0493 7.89052,0.01327 8.420772,0.0046 8.596837,-0.140534 z"
     id="path3426" />
  <path
     style="fill:none"
     d="m 2.4227989,16.010156 0,-15.95409696 13.6560001,0 13.655999,0 0,15.95409696 0,15.954097 -13.655999,0 -13.6560001,0 0,-15.954097 z m 25.8977861,0 0,-14.5398834 -12.241786,0 -12.2417866,0 0,14.5398834 0,14.539883 12.2417866,0 12.241786,0 0,-14.539883 z"
     id="path3428" />
  <path
     style="fill:none;opacity:0.05"
     d="m 2.4407703,15.299542 0,-15.23594105 13.6449507,0 13.644952,0 0,15.23594105 0,15.235942 -0.707107,0 -0.707107,0 0,-14.528835 0,-14.5288345 -12.230738,0 -12.2307371,0 0,14.5288345 0,14.528835 -0.7071068,0 -0.7071068,0 0,-15.235942 z"
     id="path3430" />
  <path
     id="path6139"
     d="m 2.3553929,13.653749 0,-5.8474578 0.7669492,0 0.7669491,0 0,5.8474578 0,5.847457 -0.7669491,0 -0.7669492,0 0,-5.847457 z"
     style="opacity:1;fill:#a6d785;fill-opacity:1;stroke:none;stroke-width:0.2;stroke-miterlimit:4;stroke-dasharray:none;stroke-opacity:1" />
  <path
     id="path6141"
     d="M 6.5214053,19.380444 C 6.5164368,19.265962 6.2363534,7.9182607 6.2366216,7.8423081 l 1.272e-4,-0.036017 0.3042166,0 0.3042166,0 0.0052,0.1122881 C 6.85539,8.0266166 7.1355183,19.378773 7.1352066,19.460952 l -1.527e-4,0.04025 -0.3042037,0 -0.3042037,0 -0.00524,-0.120762 z"
     style="opacity:1;fill:#a6d785;fill-opacity:1;stroke:none;stroke-width:0.2;stroke-miterlimit:4;stroke-dasharray:none;stroke-opacity:1" />
  <path
     id="path6161"
     d="m 14.441044,11.323547 c -0.0039,-0.04155 -0.0072,-0.111042 -0.0072,-0.15443 l -7.9e-5,-0.07889 0.223733,-0.0067 c 0.123053,-0.0037 2.180154,-0.03146 4.571335,-0.06173 2.391181,-0.03027 4.473141,-0.0582 4.626578,-0.06206 l 0.278975,-0.007 0,0.154779 0,0.154778 -0.157441,0.0064 c -0.08659,0.0035 -2.136236,0.03128 -4.554762,0.06167 -2.418527,0.03039 -4.527072,0.05829 -4.685657,0.062 l -0.288337,0.0067 -0.0071,-0.07554 z"
     style="opacity:1;fill:#a6d785;fill-opacity:1;stroke:none;stroke-width:0.2;stroke-miterlimit:4;stroke-dasharray:none;stroke-opacity:1" />
  <path
     id="path6163"
     d="m 8.9969149,17.838753 c -0.050909,-0.01508 -0.085184,-0.04486 -0.1030694,-0.08956 -0.015742,-0.03934 -0.01751,-0.234543 -0.01751,-1.933193 0,-2.066798 -0.00443,-1.932483 0.065637,-1.991437 0.04596,-0.03867 -0.028654,-0.03944 1.3817225,0.01423 0.635015,0.02417 1.49763,0.05658 1.916922,0.07202 0.703659,0.02592 0.76602,0.02978 0.810017,0.05009 0.03646,0.01684 0.0525,0.033 0.06825,0.06876 l 0.02058,0.04675 -0.159302,1.734621 c -0.08762,0.954042 -0.159346,1.742587 -0.159401,1.752323 -1.56e-4,0.02771 -0.04652,0.08963 -0.083,0.110836 -0.02859,0.01662 -0.106959,0.02235 -0.574486,0.04199 -0.703527,0.02956 -2.04249,0.08448 -2.5687868,0.105367 -0.2278762,0.009 -0.4491233,0.01851 -0.4916602,0.02104 -0.042537,0.0025 -0.090199,7.93e-4 -0.1059161,-0.0039 z M 10.953462,17.45579 c 0.859853,-0.03466 1.564964,-0.06418 1.566914,-0.06561 0.0075,-0.0055 0.290506,-3.133869 0.2841,-3.140275 -0.0037,-0.0037 -0.753588,-0.03501 -1.666378,-0.06955 -0.912789,-0.03453 -1.7254934,-0.06541 -1.8060097,-0.06862 l -0.1463932,-0.0058 0,1.713112 0,1.713113 0.102199,-0.0067 c 0.056209,-0.0037 0.8057149,-0.03502 1.6655679,-0.06968 z"
     style="opacity:1;fill:#a6d785;fill-opacity:1;stroke:none;stroke-width:0.2;stroke-miterlimit:4;stroke-dasharray:none;stroke-opacity:1" />
  <path
     id="path6165"
     d="m 14.036006,16.567877 0,-0.154679 4.85031,0 4.850311,0 0,0.154679 0,0.15468 -4.850311,0 -4.85031,0 0,-0.15468 z"
     style="opacity:1;fill:#a6d785;fill-opacity:1;stroke:none;stroke-width:0.2;stroke-miterlimit:4;stroke-dasharray:none;stroke-opacity:1" />
  <path
     id="path6167"
     d="m 2.3698777,32.005618 c -0.032562,-0.03256 -0.059203,-7.251805 -0.059203,-16.042763 l 0,-15.9835595 13.7446267,0 13.744627,0 -0.02234,16.0203875 -0.02234,16.020388 -13.663087,0.02237 C 8.5774705,32.054752 2.4024396,32.03818 2.3698777,32.005618 Z M 28.20846,16.021781 l 0,-14.4514952 -12.153398,0 -12.1533975,0 0,14.4514952 0,14.451494 12.1533975,0 12.153398,0 0,-14.451494 z"
     style="opacity:1;fill:#a6d785;fill-opacity:1;stroke:none;stroke-width:0.2;stroke-miterlimit:4;stroke-dasharray:none;stroke-opacity:1" />
  <path
     id="path6169"
     d="M 12.932088,28.266891 7.2458516,28.219373 6.9968618,27.940665 C 6.6691864,27.573882 6.690822,28.012169 6.4237682,16.33114 6.3020684,11.007952 6.186629,6.2946429 6.167236,5.8571206 6.1057084,4.4690023 6.3765721,3.8918269 7.2049834,3.6458152 7.8600135,3.4512921 25.437385,3.448533 25.813238,3.6428942 c 0.271257,0.1402725 0.480103,0.4171883 0.564225,0.7481244 0.0582,0.22895 -0.35507,21.7527184 -0.432398,22.5201654 -0.05465,0.542326 -0.310738,0.961613 -0.742109,1.215021 -0.295771,0.173749 -0.443971,0.181699 -3.446845,0.18488 -1.725783,0.0018 -5.696593,-0.01806 -8.824023,-0.04419 z m 11.950681,-0.7062 c 0.121743,-0.04629 0.264946,-0.165615 0.318228,-0.265175 0.06475,-0.120984 0.168786,-3.515384 0.313704,-10.235182 C 25.781725,4.6785193 25.78285,4.4606039 25.580798,4.2585515 25.437171,4.1149239 24.887832,4.1095493 16.41843,4.1689093 6.422999,4.238965 6.9682933,4.2023765 6.8541792,4.8106565 6.82084,4.9883699 6.8203747,6.0920203 6.8531451,7.2632131 6.9165167,9.5280722 7.3471744,26.849211 7.3482019,27.174496 c 0.00156,0.495408 -0.4669839,0.470352 8.7958081,0.470352 5.17889,0 8.60417,-0.03299 8.738759,-0.08416 z"
     style="opacity:1;fill:#a6d785;fill-opacity:1;stroke:none;stroke-width:0.2;stroke-miterlimit:4;stroke-dasharray:none;stroke-opacity:1" />
  <path
     id="path6171"
     d="m 18.824282,22.251289 c -1.998047,-0.01986 -3.850781,-0.03823 -4.117187,-0.04082 l -0.484375,-0.0047 0,-0.148438 0,-0.148437 0.351562,-0.0044 c 0.193359,-0.0024 2.228906,0.01344 4.523438,0.0352 2.294531,0.02176 4.310742,0.03954 4.480468,0.03952 l 0.308594,-4.4e-5 0,0.15625 0,0.15625 -0.714844,-0.0021 c -0.393164,-0.0012 -2.349609,-0.01839 -4.347656,-0.03825 z"
     style="opacity:1;fill:#a6d785;fill-opacity:1;stroke:none;stroke-width:0.2;stroke-miterlimit:4;stroke-dasharray:none;stroke-opacity:1" />
  <path
     id="path6173"
     d="m 9.0862473,23.417969 -0.051028,-0.04559 -0.00409,-1.915767 c -0.00367,-1.719677 -0.00157,-1.920649 0.020569,-1.963452 0.047469,-0.0918 0.032868,-0.09109 1.0616458,-0.05149 0.515625,0.01985 1.415625,0.05434 2,0.07665 1.135876,0.04337 1.101853,0.03971 1.157405,0.124495 0.02332,0.0356 0.01428,0.156131 -0.132691,1.769314 -0.08675,0.952114 -0.164998,1.757511 -0.173894,1.789773 -0.02942,0.106695 -0.04056,0.109235 -0.575429,0.131281 -0.263184,0.01085 -1.080603,0.04462 -1.816486,0.07505 -0.7358827,0.03043 -1.3597952,0.05532 -1.3864719,0.05532 -0.031513,0 -0.066377,-0.01597 -0.099531,-0.04559 z m 1.8395977,-0.337762 c 0.739062,-0.02968 1.435434,-0.05846 1.547492,-0.06397 l 0.203743,-0.01001 0.137378,-1.509617 c 0.07556,-0.830289 0.141143,-1.535511 0.145743,-1.567159 0.0081,-0.05544 0.0064,-0.05784 -0.04425,-0.06565 -0.02894,-0.0045 -0.745189,-0.03328 -1.591673,-0.06406 -0.846484,-0.03077 -1.6392578,-0.06031 -1.7617187,-0.06563 l -0.2226562,-0.0097 0,1.71183 0,1.71183 0.1210937,-0.007 c 0.066602,-0.0038 0.7257812,-0.03125 1.4648442,-0.06093 z"
     style="opacity:1;fill:#a6d785;fill-opacity:1;stroke:none;stroke-width:0.2;stroke-miterlimit:4;stroke-dasharray:none;stroke-opacity:1" />
  <path
     id="path6175"
     d="m 14.089165,28.275439 c -0.337424,-0.003 -1.8684,-0.0084 -4.4882815,-0.01581 -1.3284988,-0.0038 -1.6325167,-0.0037 -1.7222495,5.77e-4 -0.1590608,0.0075 -0.2901575,-0.002 -0.4032145,-0.02924 -0.03636,-0.0088 -0.049527,-0.0099 -0.1125569,-0.0099 -0.039259,0 -0.082211,-0.0011 -0.09545,-0.0025 l -0.02407,-0.0025 -0.070779,-0.0794 C 7.1336351,28.092942 7.0857615,28.0434 7.0661777,28.026518 6.9840288,27.955699 6.899011,27.844867 6.8507651,27.745697 6.7729303,27.585708 6.734048,27.430612 6.7118898,27.191742 c -0.00239,-0.02578 -0.00492,-0.125976 -0.00562,-0.222656 -0.00157,-0.217967 -0.00456,-0.337436 -0.011767,-0.470703 -0.00308,-0.05693 -0.00909,-0.179981 -0.013356,-0.273438 -0.00699,-0.153058 -0.010377,-0.234783 -0.023616,-0.569776 -0.00215,-0.05449 -0.00392,-0.11118 -0.00392,-0.125977 l 0,-0.0269 0.328125,0 0.328125,0 1.8e-6,0.02441 c 1e-6,0.01343 0.0035,0.166797 0.00777,0.34082 0.020818,0.848266 0.02788,1.17975 0.027876,1.308594 -3.9e-6,0.138349 1.586e-4,0.141257 0.010048,0.179688 0.012983,0.05045 0.019899,0.06361 0.044992,0.08562 0.1338933,0.117402 0.6210916,0.164646 1.9171279,0.185906 0.7112156,0.01167 2.4494366,0.01908 4.5380856,0.01936 l 0.981446,1.3e-4 0,0.316407 0,0.316406 -0.215821,-6.91e-4 c -0.118701,-3.79e-4 -0.358203,-0.002 -0.532226,-0.0035 z"
     style="opacity:1;fill:#a6d785;fill-opacity:1;stroke:none;stroke-width:0.2;stroke-miterlimit:4;stroke-dasharray:none;stroke-opacity:1" />
  <path
     id="path6177"
     d="m 25.715439,7.0126039 c 0.0043,-0.1843701 0.0098,-0.8879717 0.0098,-1.2412109 -6.3e-5,-0.8152114 -0.01805,-1.1973585 -0.06452,-1.3710938 -0.01923,-0.071901 -0.05906,-0.1331241 -0.106274,-0.1633751 -0.08109,-0.051954 -0.304564,-0.075939 -0.842839,-0.090459 -0.371601,-0.010024 -0.783319,-0.01294 -1.801758,-0.012762 l -1.071289,1.875e-4 0,-0.3101552 0,-0.3101551 0.348633,-1.153e-4 c 0.191748,-6.34e-5 0.707226,-0.00177 1.145508,-0.0038 1.076898,-0.00498 1.714987,-0.00499 1.824218,-4.6e-5 0.26849,0.012159 0.429799,0.043205 0.617188,0.1187871 0.0613,0.024726 0.123239,0.061263 0.189298,0.1116701 0.18281,0.1394946 0.329011,0.3606973 0.400459,0.6058984 0.01158,0.039729 0.01351,0.052913 0.01577,0.1074219 0.0014,0.034174 0.006,0.088502 0.01012,0.1207284 0.01817,0.1410523 0.01834,0.1046005 -0.0058,1.25 -0.0123,0.584375 -0.02344,1.113916 -0.02475,1.1767578 l -0.0024,0.1142579 -0.321893,0 -0.321893,0 0.0024,-0.1025391 z"
     style="opacity:1;fill:#a6d785;fill-opacity:1;stroke:none;stroke-width:0.2;stroke-miterlimit:4;stroke-dasharray:none;stroke-opacity:1" />
  <path
     id="path6179"
     d="m 8.9584899,12.50888 c -0.045457,-0.01144 -0.083435,-0.04241 -0.1028891,-0.08391 l -0.010392,-0.02217 0,-1.914062 0,-1.9140626 0.011114,-0.022646 c 0.01424,-0.029016 0.042927,-0.057633 0.071709,-0.071531 0.019708,-0.00952 0.028222,-0.011116 0.065615,-0.012329 0.034908,-0.00113 0.5084544,0.015908 1.3847659,0.049829 0.05478,0.00212 0.170801,0.00653 0.257812,0.0098 0.08701,0.00327 0.203028,0.00767 0.257813,0.00977 0.116489,0.00447 0.198098,0.00757 1.077611,0.040932 0.363878,0.013803 0.662198,0.025698 0.662933,0.026433 7.36e-4,7.354e-4 -0.06407,0.066535 -0.144018,0.1462216 L 12.345209,8.8960395 11.185052,8.851817 C 9.4347416,8.7850992 9.1868666,8.7757751 9.1645446,8.7758127 l -0.020508,3.46e-5 0,1.7126597 c 0,0.941963 0.00132,1.713352 0.00293,1.714198 0.00161,8.46e-4 0.7359375,-0.02874 1.6318356,-0.06575 1.817598,-0.07509 1.704659,-0.07029 1.706694,-0.07243 0.0012,-0.0012 0.193743,-2.0908621 0.193706,-2.1018159 -1.2e-5,-0.00322 0.328341,-0.2934473 0.329979,-0.291667 0.0011,0.00123 -0.22958,2.5269219 -0.233874,2.5603139 -0.0073,0.05689 -0.04707,0.104511 -0.104031,0.124606 -0.01993,0.007 0.03819,0.0043 -0.995989,0.0468 -0.39209,0.01611 -0.797266,0.03281 -0.900391,0.0371 -0.103125,0.0043 -0.273193,0.01133 -0.37793,0.01564 -0.104736,0.0043 -0.275244,0.01135 -0.378906,0.01563 -0.1036619,0.0043 -0.360742,0.01477 -0.5712889,0.0233 -0.2105468,0.0085 -0.4021484,0.01638 -0.4257812,0.01743 -0.027821,0.0012 -0.049854,1.87e-4 -0.0625,-0.003 z"
     style="opacity:1;fill:#a6d785;fill-opacity:1;stroke:none;stroke-width:0.2;stroke-miterlimit:4;stroke-dasharray:none;stroke-opacity:1" />
</svg>
