<?xml version="1.0" encoding="UTF-8" standalone="no"?>
<svg
   xmlns:dc="http://purl.org/dc/elements/1.1/"
   xmlns:cc="http://creativecommons.org/ns#"
   xmlns:rdf="http://www.w3.org/1999/02/22-rdf-syntax-ns#"
   xmlns:svg="http://www.w3.org/2000/svg"
   xmlns="http://www.w3.org/2000/svg"
   width="32.0px"
   height="32.0px"
   id="Layer_1"
   data-name="Layer 1"
   viewBox="0 0 28 30.74"
   version="1.1">
  <metadata
     id="metadata19">
    <rdf:RDF>
      <cc:Work
         rdf:about="">
        <dc:format>image/svg+xml</dc:format>
        <dc:type
           rdf:resource="http://purl.org/dc/dcmitype/StillImage" />
        <dc:title>mirrorx</dc:title>
      </cc:Work>
    </rdf:RDF>
  </metadata>
  <defs
     id="defs4">
    <style
       id="style2">.cls-1{fill:#0971b8;}.cls-2{fill:#8e2f88;}.cls-3{fill:#4e4d4d;}</style>
  </defs>
  <title
     id="title6">mirrorx</title>
  <path
     class="cls-1"
     d="M11.29.57c3.05,0,3.81,1.67,3.81,3.06,0,2.63-2.45,3.43-2.45,3.89S15.6,10.12,15.6,14c0,.18-.07.21-.41.21H13.34c-.3,0-.81.05-.81-.21,0-1.85-1.31-5.18-2.26-5.18-.49,0-1.69.67-1.69,1.59A22.53,22.53,0,0,0,9.19,14c0,.27-.41.19-.57.19H6.71c-.4,0-.9.31-.9-5.83C5.81.27,6.67.57,7,.57Zm1.16,3.34c0-1-1-1.41-1.85-1.41C9.11,2.5,8.45,3,8.47,5.88c0,.34,0,1,.51,1S12.45,5.42,12.45,3.91Z"
     transform="translate(-2 -0.57)"
     id="path8" />
  <path
     class="cls-2"
     d="M7,31.31c-.28,0-1.14.29-1.14-7.8,0-6.15.5-5.84.91-5.84h1.9c.16,0,.57-.08.57.2a22.32,22.32,0,0,0-.61,3.61c0,.91,1.2,1.58,1.69,1.58,1,0,2.26-3.32,2.26-5.17,0-.27.51-.22.81-.22h1.85c.34,0,.41,0,.41.22,0,3.87-2.95,6-2.95,6.47s2.46,1.26,2.46,3.88c0,1.39-.77,3.07-3.82,3.07ZM9,25c-.49,0-.51.66-.51,1,0,2.83.64,3.38,2.13,3.38.88,0,1.85-.38,1.85-1.42C12.45,26.46,9.53,25,9,25Z"
     transform="translate(-2 -0.57)"
     id="path10" />
  <rect
     class="cls-3"
     y="14.43"
     width="28"
     height="2"
     id="rect12" />
  <path
     class="cls-3"
     d="M26.35,25.36a.65.65,0,0,0,.22-.9.66.66,0,0,0-.91-.21l-1.45.89a22.07,22.07,0,0,0,2-9.11A22.12,22.12,0,0,0,23.06,4.72a.66.66,0,0,0-.9-.23.66.66,0,0,0-.23.9A20.79,20.79,0,0,1,24.85,16,20.71,20.71,0,0,1,23,24.71L22.78,23a.66.66,0,0,0-.72-.59.65.65,0,0,0-.58.72l.4,3.93a.58.58,0,0,0,.17.37.7.7,0,0,0,.19.15.66.66,0,0,0,.64,0Z"
     transform="translate(-2 -0.57)"
     id="path14" />
</svg>
