<?xml version="1.0" encoding="UTF-8" standalone="no"?>
<svg
   xmlns:dc="http://purl.org/dc/elements/1.1/"
   xmlns:cc="http://creativecommons.org/ns#"
   xmlns:rdf="http://www.w3.org/1999/02/22-rdf-syntax-ns#"
   xmlns:svg="http://www.w3.org/2000/svg"
   xmlns="http://www.w3.org/2000/svg"
   width="32.0px"
   height="32.0px"
   id="Layer_1"
   data-name="Layer 1"
   viewBox="0 0 28 30.74"
   version="1.1">
  <metadata
     id="metadata19">
    <rdf:RDF>
      <cc:Work
         rdf:about="">
        <dc:format>image/svg+xml</dc:format>
        <dc:type
           rdf:resource="http://purl.org/dc/dcmitype/StillImage" />
        <dc:title>mirrorx</dc:title>
      </cc:Work>
    </rdf:RDF>
  </metadata>
  <defs
     id="defs4">
    <style
       id="style2">.cls-1{fill:#0971b8;}.cls-2{fill:#8e2f88;}.cls-3{fill:#4e4d4d;}</style>
  </defs>
  <title
     id="title6">mirrorx</title>
  <path
     class="cls-1"
     d="m 6.0362799,13.84372 c 3.05,0 3.81,1.67 3.81,3.06 0,2.63 -2.45,3.43 -2.45,3.89 0,0.46 2.9500001,2.6 2.9500001,6.48 0,0.18 -0.07,0.21 -0.4100001,0.21 h -1.85 c -0.3,0 -0.81,0.05 -0.81,-0.21 0,-1.85 -1.31,-5.18 -2.26,-5.18 -0.49,0 -1.69,0.67 -1.69,1.59 a 22.53,22.53 0 0 0 0.61,3.59 c 0,0.27 -0.41,0.19 -0.57,0.19 h -1.91 c -0.4,0 -0.89999997,0.31 -0.89999997,-5.83 0,-8.09 0.85999997,-7.79 1.18999997,-7.79 z m 1.16,3.34 c 0,-1 -1,-1.41 -1.85,-1.41 -1.49,0 -2.15,0.5 -2.13,3.38 0,0.34 0,1 0.51,1 0.51,0 3.47,-1.46 3.47,-2.97 z"
     id="path8" />
  <path
     class="cls-2"
     d="m 26.300426,13.790294 c 0.28,0 1.14,-0.29 1.14,7.8 0,6.15 -0.5,5.84 -0.91,5.84 h -1.9 c -0.16,0 -0.57,0.08 -0.57,-0.2 a 22.32,22.32 0 0 0 0.61,-3.61 c 0,-0.91 -1.2,-1.58 -1.69,-1.58 -1,0 -2.26,3.32 -2.26,5.17 0,0.27 -0.51,0.22 -0.81,0.22 h -1.85 c -0.34,0 -0.41,0 -0.41,-0.22 0,-3.87 2.95,-6 2.95,-6.47 0,-0.47 -2.46,-1.26 -2.46,-3.88 0,-1.39 0.77,-3.07 3.82,-3.07 z m -2,6.31 c 0.49,0 0.51,-0.66 0.51,-1 0,-2.83 -0.64,-3.38 -2.13,-3.38 -0.88,0 -1.85,0.38 -1.85,1.42 0.02,1.5 2.94,2.96 3.47,2.96 z"
     id="path10" />
  <rect
     class="cls-3"
     y="13.060066"
     width="28"
     height="2"
     id="rect12"
     x="-29.369934"
     transform="rotate(-90)" />
  <path
     class="cls-3"
     d="m 23.420066,5.019934 a 0.65,0.65 0 0 0 -0.9,-0.22 0.66,0.66 0 0 0 -0.21,0.91 l 0.89,1.45 a 22.07,22.07 0 0 0 -9.11,-2 22.12,22.12 0 0 0 -11.31,3.15 0.66,0.66 0 0 0 -0.23,0.9 0.66,0.66 0 0 0 0.9,0.23 20.79,20.79 0 0 1 10.61,-2.92 20.71,20.71 0 0 1 8.71,1.85 l -1.71,0.22 a 0.66,0.66 0 0 0 -0.59,0.72 0.65,0.65 0 0 0 0.72,0.58 l 3.93,-0.4 a 0.58,0.58 0 0 0 0.37,-0.17 0.7,0.7 0 0 0 0.15,-0.19 0.66,0.66 0 0 0 0,-0.64 z"
     id="path14" />
</svg>
