<?xml version="1.0" encoding="UTF-8" standalone="no"?>
<svg
   xmlns:dc="http://purl.org/dc/elements/1.1/"
   xmlns:cc="http://creativecommons.org/ns#"
   xmlns:rdf="http://www.w3.org/1999/02/22-rdf-syntax-ns#"
   xmlns:svg="http://www.w3.org/2000/svg"
   xmlns="http://www.w3.org/2000/svg"
   xmlns:sodipodi="http://sodipodi.sourceforge.net/DTD/sodipodi-0.dtd"
   xmlns:inkscape="http://www.inkscape.org/namespaces/inkscape"
   width="32.0px"
   height="32.0px"
   viewBox="0 0 32.0 32.0"
   version="1.1"
   id="SVGRoot"
   sodipodi:docname="mtf.svg"
   inkscape:version="1.0.1 (3bc2e813f5, 2020-09-07)">
  <defs
     id="defs3313" />
  <sodipodi:namedview
     id="base"
     pagecolor="#ffffff"
     bordercolor="#666666"
     borderopacity="1.0"
     inkscape:pageopacity="0.0"
     inkscape:pageshadow="2"
     inkscape:zoom="14.730424"
     inkscape:cx="-1.6766306"
     inkscape:cy="10.730192"
     inkscape:document-units="px"
     inkscape:current-layer="layer1"
     inkscape:document-rotation="0"
     showgrid="true"
     inkscape:window-width="1920"
     inkscape:window-height="1028"
     inkscape:window-x="0"
     inkscape:window-y="0"
     inkscape:window-maximized="1">
    <inkscape:grid
       type="xygrid"
       id="grid3883" />
  </sodipodi:namedview>
  <metadata
     id="metadata3316">
    <rdf:RDF>
      <cc:Work
         rdf:about="">
        <dc:format>image/svg+xml</dc:format>
        <dc:type
           rdf:resource="http://purl.org/dc/dcmitype/StillImage" />
        <dc:title></dc:title>
      </cc:Work>
    </rdf:RDF>
  </metadata>
  <g
     inkscape:label="Calque 1"
     inkscape:groupmode="layer"
     id="layer1">
    <path
       class="cls-1"
       d="M 32.0512,31.976055 H 0.05119676 V -0.02394929 H 2.0511973 V 29.976055 H 32.0512 Z"
       id="path8"
       style="fill:#444444" />
    <path
       class="cls-2"
       d="m 3.0111973,29.436055 a 0.52,0.52 0 0 1 0,-1 h 0.64 a 12.92,12.92 0 0 0 10.7300027,-6.28 12.69,12.69 0 0 0 1.66,-4.62 13.39,13.39 0 0 0 0.14,-1.9 v -0.58 a 13.69,13.69 0 0 1 2,-7.0000039 13.92,13.92 0 0 1 11.58,-6.7700002 h 0.4 a 0.51,0.51 0 0 1 0.52,0.5100002 0.51,0.51 0 0 1 -0.52,0.51 h -0.37 a 12.91,12.91 0 0 0 -10.73,6.27 12.7,12.7 0 0 0 -1.8,6.5200039 v 0.58 a 14,14 0 0 1 -0.15,2.05 13.54,13.54 0 0 1 -1.8,5 14,14 0 0 1 -11.5800027,6.78 h -0.67 z"
       id="path10"
       style="fill:#0c8bbc" />
    <path
       class="cls-3"
       d="m 15.4412,15.606055 v -0.58 a 14.36,14.36 0 0 1 0.26,-2.7 3.12,3.12 0 0 0 -0.54,5.79 q 0.09,-0.36 0.15,-0.72 a 13.35,13.35 0 0 0 0.13,-1.79 z"
       id="path12"
       style="fill:#848372" />
    <path
       class="cls-3"
       d="m 17.9512,15.606055 a 15.36,15.36 0 0 1 -0.16,2.16 c 0,0.16 -0.07,0.31 -0.1,0.47 a 3.12,3.12 0 0 0 0.52,-5.57 11.68,11.68 0 0 0 -0.26,2.36 z"
       id="path14"
       style="fill:#848372" />
    <path
       class="cls-4"
       d="m 14.8912,19.146055 a 4.17,4.17 0 0 1 1.07,-7.95 14.77,14.77 0 0 1 1.53,-3.6000039 13.8,13.8 0 0 1 0.92,-1.34 1,1 0 0 0 -0.72,-0.34 h -2.25 a 1,1 0 0 0 -1,1 v 0.7 a 7.87,7.87 0 0 0 -1.9,0.79 l -0.5,-0.5 a 1,1 0 0 0 -1.359999,0 l -1.5600037,1.56 a 1,1 0 0 0 -0.28,0.6800009 1,1 0 0 0 0.28,0.690003 l 0.5,0.49 a 7.87,7.87 0 0 0 -0.79,1.9 h -0.7 a 1,1 0 0 0 -1,1 v 2.24 a 1,1 0 0 0 1,1 h 0.7 a 7.55,7.55 0 0 0 0.79,1.9 l -0.5,0.5 a 1,1 0 0 0 -0.28,0.69 1,1 0 0 0 0.28,0.68 l 1.5900037,1.58 a 1,1 0 0 0 1.359999,0 l 0.5,-0.49 c 0.2,0.11 0.41,0.2 0.61,0.3 0.19,-0.27 0.39,-0.53 0.56,-0.82 a 11.38,11.38 0 0 0 1.15,-2.66 z"
       id="path16"
       style="fill:#b2af9e" />
    <path
       class="cls-4"
       d="m 18.4612,11.616055 a 4.16,4.16 0 0 1 -1,7.79 14.68,14.68 0 0 1 -1.54,3.63 15.65,15.65 0 0 1 -1,1.49 1,1 0 0 0 0.56,0.2 h 2.25 a 1,1 0 0 0 1,-1 v -0.7 a 8.3,8.3 0 0 0 1.9,-0.79 l 0.49,0.49 a 1,1 0 0 0 1.37,0 l 1.59,-1.58 a 1,1 0 0 0 0,-1.37 l -0.5,-0.5 a 7.55,7.55 0 0 0 0.79,-1.9 h 0.7 a 1,1 0 0 0 1,-1 v -2.18 a 1,1 0 0 0 -1,-1 h -0.7 a 7.87,7.87 0 0 0 -0.79,-1.9 l 0.5,-0.49 a 1,1 0 0 0 0.28,-0.690003 1,1 0 0 0 -0.28,-0.6800009 l -1.66,-1.55 a 1,1 0 0 0 -1.37,0 l -0.49,0.5 c -0.14,-0.08 -0.28,-0.14 -0.42,-0.21 -0.17,0.24 -0.35,0.47 -0.5,0.72 a 12,12 0 0 0 -1.18,2.7200039 z"
       id="path18"
       style="fill:#b2af9e" />
  </g>
</svg>
