<?xml version="1.0" encoding="UTF-8" standalone="no"?>
<svg
   xmlns:dc="http://purl.org/dc/elements/1.1/"
   xmlns:cc="http://creativecommons.org/ns#"
   xmlns:rdf="http://www.w3.org/1999/02/22-rdf-syntax-ns#"
   xmlns:svg="http://www.w3.org/2000/svg"
   xmlns="http://www.w3.org/2000/svg"
   xmlns:sodipodi="http://sodipodi.sourceforge.net/DTD/sodipodi-0.dtd"
   xmlns:inkscape="http://www.inkscape.org/namespaces/inkscape"
   width="32.0px"
   height="32.0px"
   viewBox="0 0 32.0 32.0"
   version="1.1"
   id="SVGRoot"
   sodipodi:docname="mtf_dark.svg"
   inkscape:version="1.0.1 (3bc2e813f5, 2020-09-07)">
  <defs
     id="defs3313" />
  <sodipodi:namedview
     id="base"
     pagecolor="#ffffff"
     bordercolor="#666666"
     borderopacity="1.0"
     inkscape:pageopacity="0.0"
     inkscape:pageshadow="2"
     inkscape:zoom="4.3179483"
     inkscape:cx="-42.451482"
     inkscape:cy="-46.784757"
     inkscape:document-units="px"
     inkscape:current-layer="layer1"
     inkscape:document-rotation="0"
     showgrid="true"
     inkscape:window-width="1920"
     inkscape:window-height="1028"
     inkscape:window-x="0"
     inkscape:window-y="0"
     inkscape:window-maximized="1">
    <inkscape:grid
       type="xygrid"
       id="grid3883" />
  </sodipodi:namedview>
  <metadata
     id="metadata3316">
    <rdf:RDF>
      <cc:Work
         rdf:about="">
        <dc:format>image/svg+xml</dc:format>
        <dc:type
           rdf:resource="http://purl.org/dc/dcmitype/StillImage" />
        <dc:title></dc:title>
      </cc:Work>
    </rdf:RDF>
  </metadata>
  <g
     inkscape:label="Calque 1"
     inkscape:groupmode="layer"
     id="layer1">
    <path
       class="cls-5"
       d="M 32.047133,31.985973 H 0.0471411 V -0.0140515 H 2.0471423 V 29.985973 H 32.047133 Z"
       id="path20"
       style="fill:#848484" />
    <path
       class="cls-6"
       d="m 3.0471423,29.445973 a 0.52,0.52 0 0 1 0,-1 h 0.63 a 12.93,12.93 0 0 0 10.7399907,-6.28 12.69,12.69 0 0 0 1.63,-4.65 13.39,13.39 0 0 0 0.14,-1.9 v -0.58 a 13.78,13.78 0 0 1 1.94,-7.0000267 14,14 0 0 1 11.58,-6.8199969 h 0.4 a 0.51,0.51 0 0 1 0.52,0.5099989 0.51,0.51 0 0 1 -0.52,0.5099988 h -0.37 a 12.91,12.91 0 0 0 -10.69,6.2799992 12.7,12.7 0 0 0 -1.8,6.5200267 v 0.58 a 12.78,12.78 0 0 1 -0.16,2 13.52,13.52 0 0 1 -1.79,5 14,14 0 0 1 -11.6199907,6.83 z"
       id="path22"
       style="fill:#42adce" />
    <path
       class="cls-7"
       d="m 15.437133,15.615973 v -0.58 a 14.36,14.36 0 0 1 0.26,-2.7 3.11,3.11 0 0 0 -0.54,5.79 c 0.05,-0.24 0.11,-0.48 0.14,-0.72 a 11.89,11.89 0 0 0 0.14,-1.79 z"
       id="path24"
       style="fill:#a8a798" />
    <path
       class="cls-7"
       d="m 17.947133,15.615973 a 15.36,15.36 0 0 1 -0.16,2.16 c 0,0.16 -0.07,0.31 -0.1,0.47 a 3.12,3.12 0 0 0 0.52,-5.57 11.68,11.68 0 0 0 -0.26,2.36 z"
       id="path26"
       style="fill:#a8a798" />
    <path
       class="cls-8"
       d="m 14.887133,19.155973 a 4.17,4.17 0 0 1 1.06,-8.000008 14.76,14.76 0 0 1 2.45,-4.9400187 1,1 0 0 0 -0.72,-0.34 h -2.24 a 1,1 0 0 0 -1,1 v 0.7 a 7.71,7.71 0 0 0 -1.9,0.79 l -0.49,-0.48 a 1,1 0 0 0 -1.37,0 l -1.559991,1.59 a 0.92,0.92 0 0 0 -0.29,0.6800027 1,1 0 0 0 0.29,0.690011 l 0.489998,0.490008 a 8.26,8.26 0 0 0 -0.779998,1.900005 h -0.71 a 1,1 0 0 0 -0.9999997,1 v 2.24 a 1,1 0 0 0 0.9999997,1 h 0.71 a 7.92,7.92 0 0 0 0.779998,1.9 l -0.489998,0.5 a 0.94,0.94 0 0 0 -0.28,0.69 0.91,0.91 0 0 0 0.28,0.68 l 1.579991,1.58 a 1,1 0 0 0 1.37,0 l 0.5,-0.49 c 0.2,0.11 0.4,0.2 0.61,0.3 0.19,-0.27 0.39,-0.53 0.56,-0.82 a 11.38,11.38 0 0 0 1.15,-2.66 z"
       id="path28"
       style="fill:#dddacc" />
    <path
       class="cls-8"
       d="m 18.457133,11.625973 a 4.16,4.16 0 0 1 -1,7.79 14,14 0 0 1 -1.54,3.63 15.57,15.57 0 0 1 -1,1.49 0.91,0.91 0 0 0 0.56,0.2 h 2.24 a 1,1 0 0 0 1,-1 v -0.7 a 7.94,7.94 0 0 0 1.9,-0.79 l 0.5,0.49 a 1,1 0 0 0 1.37,0 l 1.56,-1.55 a 1,1 0 0 0 0,-1.37 l -0.49,-0.5 a 7.53,7.53 0 0 0 0.78,-1.9 h 0.71 a 1,1 0 0 0 1,-1 v -2.21 a 1,1 0 0 0 -1,-1 h -0.71 a 7.84,7.84 0 0 0 -0.78,-1.900005 l 0.49,-0.490008 a 1,1 0 0 0 0.29,-0.690012 0.92,0.92 0 0 0 -0.29,-0.6500017 l -1.63,-1.59 a 1,1 0 0 0 -1.37,0 l -0.5,0.5 c -0.13,-0.08 -0.27,-0.14 -0.41,-0.21 -0.17,0.24 -0.35,0.47 -0.5,0.72 a 12,12 0 0 0 -1.18,2.7300267 z"
       id="path30"
       style="fill:#dddacc" />
  </g>
</svg>
