<?xml version="1.0" encoding="UTF-8" standalone="no"?>
<svg
   xmlns:dc="http://purl.org/dc/elements/1.1/"
   xmlns:cc="http://creativecommons.org/ns#"
   xmlns:rdf="http://www.w3.org/1999/02/22-rdf-syntax-ns#"
   xmlns:svg="http://www.w3.org/2000/svg"
   xmlns="http://www.w3.org/2000/svg"
   width="32.0px"
   height="32.0px"
   viewBox="0 0 32.0 32.0"
   version="1.1"
   id="SVGRoot">
  <defs
     id="defs889" />
  <metadata
     id="metadata892">
    <rdf:RDF>
      <cc:Work
         rdf:about="">
        <dc:format>image/svg+xml</dc:format>
        <dc:type
           rdf:resource="http://purl.org/dc/dcmitype/StillImage" />
        <dc:title></dc:title>
      </cc:Work>
    </rdf:RDF>
  </metadata>
  <g
     id="layer1">
    <line
       class="cls-1"
       x1="16.169937"
       y1="31.995176"
       x2="16.169937"
       y2="31.995176"
       id="line8"
       style="fill:none;stroke-width:0.0621816" />
    <path
       class="cls-1"
       d="m 18.047908,21.673606 3.294633,2.420478 a 0.11996219,0.12130517 0 0 0 0.185504,-0.13569 l -1.258364,-3.91678 a 3.0553258,3.0895303 0 0 1 1.113052,-3.462199 l 3.294631,-2.420475 a 0.09770116,0.09879493 0 0 0 0.0439,-0.135686 c -0.02722,-0.08379 -0.06801,-0.08379 -0.114398,-0.08379 H 20.533098 A 3.0547075,3.088905 0 0 1 17.620613,11.798491 L 16.362249,7.8817094 c -0.01421,-0.04502 -0.02722,-0.083786 -0.114397,-0.083786 V 21.078965 a 3.0639829,3.0982843 0 0 1 1.800052,0.594644 z"
       id="path10"
       style="fill:none;stroke-width:0.0621816" />
    <path
       class="cls-2"
       d="m 21.342541,24.094084 a 0.11996219,0.12130517 0 0 0 0.185504,-0.13569 l -1.258364,-3.91678 a 3.0553258,3.0895303 0 0 1 1.113052,-3.462199 l 3.294631,-2.420475 a 0.09770116,0.09879493 0 0 0 0.0439,-0.135686 c -0.02722,-0.08379 -0.06801,-0.08379 -0.114398,-0.08379 H 20.533098 A 3.0547075,3.088905 0 0 1 17.620613,11.798491 L 16.362249,7.8817094 c -0.01421,-0.04502 -0.02722,-0.083786 -0.114397,-0.083786 V 21.078965 a 3.0639829,3.0982843 0 0 1 1.800052,0.593394 z"
       id="path12"
       style="fill:#ffffff;stroke-width:0.0621816" />
    <path
       class="cls-3"
       d="m 19.6136,26.501428 a 3.0621278,3.0964084 0 0 0 4.711917,-3.4622 l -1.258369,-3.916781 a 0.11934383,0.12067989 0 0 1 0.0439,-0.135688 l 3.294638,-2.420473 A 3.0621278,3.0964084 0 0 0 24.605638,10.964362 H 20.53311 a 0.11996219,0.12130517 0 0 1 -0.114399,-0.08379 L 19.16034,6.9637948 A 3.0169874,3.0507627 0 0 0 16.247856,4.8240703 v 0 2.9725998 c 0.08719,0 0.10018,0.038775 0.114398,0.083787 l 1.258365,3.9180319 a 3.0547075,3.088905 0 0 0 2.912485,2.139723 h 4.072529 c 0.04638,0 0.08719,0 0.114396,0.08378 a 0.09770116,0.09879493 0 0 1 -0.0439,0.135683 l -3.294633,2.420478 a 3.0553258,3.0895303 0 0 0 -1.113049,3.462198 l 1.258363,3.916782 a 0.11996219,0.12130517 0 0 1 -0.185506,0.13569 l -3.294631,-2.420477 a 3.0639829,3.0982843 0 0 0 -1.80005,-0.593393 v 2.97698 a 0.12367237,0.12505689 0 0 1 0.0705,0.02313 z"
       id="path14"
       style="fill:#393b3d;stroke:#878787;stroke-width:0.0174107px;stroke-miterlimit:10;fill-opacity:1" />
    <path
       class="cls-4"
       d="M 16.133458,7.8829608 14.871382,11.79849 a 3.0547075,3.088905 0 0 1 -2.912484,2.139725 H 7.8882196 c -0.046994,0 -0.087187,0 -0.1143968,0.08379 a 0.09770116,0.09879493 0 0 0 0.043906,0.135684 l 3.2946312,2.420478 a 3.0553258,3.0895303 0 0 1 1.113054,3.462199 l -1.258369,3.916781 a 0.11996219,0.12130517 0 0 0 0.185511,0.13569 l 3.294629,-2.420477 a 3.0621278,3.0964084 0 0 1 1.801906,-0.5934 V 7.7966701 c -0.08905,0 -0.101405,0.041269 -0.115633,0.086291 z"
       id="path16"
       style="fill:#393b3d;stroke-width:0.0621816;fill-opacity:1" />
    <path
       class="cls-5"
       d="m 32.023501,4.8059366 c 0,-0.1613221 -0.0081,-0.3213955 -0.02352,-0.4783419 V 27.713228 c 0.01545,-0.15757 0.02352,-0.316393 0.02352,-0.478341 z"
       id="path18"
       style="fill:#f97070;stroke-width:0.0621816" />
    <path
       class="cls-5"
       d="m 4.3289273,31.975796 a 4.7787003,4.832198 0 0 0 0.763678,0.06252 H 27.270773 a 4.7787003,4.832198 0 0 0 0.763677,-0.06252 z"
       id="path20"
       style="fill:#f97070;stroke-width:0.0621816" />
    <path
       class="cls-2"
       d="M 27.270773,0 H 16.247856 v 4.8240703 0 a 3.0169874,3.0507627 0 0 1 2.912483,2.1397245 l 1.258367,3.9167782 a 0.11996219,0.12130517 0 0 0 0.114398,0.08379 h 4.072529 a 3.0621278,3.0964084 0 0 1 1.800053,5.601925 l -3.294633,2.422975 a 0.11934383,0.12067989 0 0 0 -0.04389,0.135688 l 1.258367,3.916781 a 3.0621278,3.0964084 0 0 1 -4.711928,3.462194 l -3.295253,-2.423597 a 0.12367237,0.12505689 0 0 0 -0.0705,-0.02313 v 7.918606 H 28.034446 A 4.7539656,4.8071864 0 0 0 32,27.710735 V 4.3250928 A 4.7527291,4.805936 0 0 0 27.27077,0 Z"
       id="path22"
       style="fill:#ffffff;stroke-width:0.0621816" />
    <path
       class="cls-3"
       d="m 16.247856,24.057189 a 0.12367237,0.12505689 0 0 0 -0.0705,0.02313 l -3.296485,2.4211 a 3.0182241,3.0520132 0 0 1 -3.6001058,0 A 3.0176056,3.0513878 0 0 1 8.1677108,23.03922 L 9.4297902,19.122435 A 0.11996219,0.12130517 0 0 0 9.3865082,18.986747 L 6.0906389,16.566275 a 3.0621278,3.0964084 0 0 1 1.8000533,-5.601926 h 4.0725348 a 0.11996219,0.12130517 0 0 0 0.114396,-0.0844 l 1.258363,-3.9161592 a 3.0176056,3.0513878 0 0 1 2.91434,-2.1397245 V -1.1992773e-5 H 5.092603 A 4.7527291,4.805936 0 0 0 0.33987336,4.8059246 V 27.232374 a 4.7533474,4.8065613 0 0 0 3.98905164,4.74341 h 11.918928 z"
       id="path24"
       style="fill:#393b3d;stroke:#878787;stroke-width:0.0174107px;stroke-miterlimit:10;fill-opacity:1" />
  </g>
</svg>
