<?xml version="1.0" encoding="UTF-8" standalone="no"?>
<svg
   xmlns:dc="http://purl.org/dc/elements/1.1/"
   xmlns:cc="http://creativecommons.org/ns#"
   xmlns:rdf="http://www.w3.org/1999/02/22-rdf-syntax-ns#"
   xmlns:svg="http://www.w3.org/2000/svg"
   xmlns="http://www.w3.org/2000/svg"
   width="32.0px"
   height="32.0px"
   id="Capa_1"
   data-name="Capa 1"
   viewBox="0 0 31.01 29.83"
   version="1.1">
  <metadata
     id="metadata23">
    <rdf:RDF>
      <cc:Work
         rdf:about="">
        <dc:format>image/svg+xml</dc:format>
        <dc:type
           rdf:resource="http://purl.org/dc/dcmitype/StillImage" />
        <dc:title>rotate dark</dc:title>
      </cc:Work>
    </rdf:RDF>
  </metadata>
  <defs
     id="defs4">
    <style
       id="style2">.cls-1{fill:#fff;}.cls-2{fill:#424a60;stroke:#e7eced;stroke-miterlimit:10;stroke-width:0.71px;}.cls-3{fill:#efce4a;}.cls-4{fill:#1a9172;}.cls-5{fill:#25ae88;}</style>
  </defs>
  <title
     id="title6">rotate dark</title>
  <path
     class="cls-1"
     d="m 0.00999999,21.661498 a 0.46,-0.46000001 0 0 0 0.37,0.54 0.47,-0.47000001 0 0 0 0.55,-0.37 L 1.15,20.641498 a 15.71,-15.71 0 0 0 11.25,9.17 0.47,-0.47000001 0 0 0 0.55,-0.37 0.46,-0.46000001 0 0 0 -0.36,-0.55 14.73,-14.73 0 0 1 -10.61,-8.7 l 1,0.75 a 0.46,-0.46000001 0 0 0 0.65,-0.1 0.47,-0.47000001 0 0 0 -0.09,-0.65 l -2.25,-1.67 a 0.49,-0.48999999 0 0 0 -0.28,-0.09 0.46,-0.46000001 0 0 0 -0.42000001,0.38 z"
     id="path8"
     style="fill:#ffffff;stroke-width:1" />
  <path
     class="cls-1"
     d="m 31.01,8.211498 a 0.47,-0.47000001 0 0 0 -0.37,-0.55 h -0.05 a 0.47,-0.47000001 0 0 0 -0.46,0.38 l -0.23,1.21 a 15.82,-15.82 0 0 0 -11.34,-9.25 h -0.1 a 0.48,-0.48 0 0 0 -0.46,0.38 0.47,-0.47000001 0 0 0 0.37,0.55 14.95,-14.95 0 0 1 10.7,8.78 l -1,-0.75 a 0.47,-0.47000001 0 1 0 -0.56,0.75 l 2.27,1.68 a 0.45,-0.44999999 0 0 0 0.45,0.06 0.47,-0.47000001 0 0 0 0.29,-0.35 z"
     id="path10"
     style="fill:#ffffff;stroke-width:1" />
  <g
     id="g915"
     transform="matrix(0,1,1,0,0.64168988,-0.64169012)">
    <rect
       class="cls-2"
       x="12.443061"
       y="-9.0212574"
       width="18.190001"
       height="18.950001"
       transform="matrix(0.70710678,0.70710678,0.70710678,-0.70710678,0,0)"
       id="rect12" />
    <path
       class="cls-3"
       d="m 7.79,16.241498 a 1.73,1.73 0 1 0 0,-2.44 1.73,1.73 0 0 0 0,2.44 z"
       id="path14"
       style="stroke-width:1" />
    <polygon
       class="cls-4"
       points="25.74,12.77 23.36,10.39 22.79,10.36 16.63,10.62 16.9,16.52 19.84,16.52 21.99,16.52 "
       id="polygon16"
       transform="matrix(1,0,0,-1,0,29.821498)" />
    <polygon
       class="cls-5"
       points="13.96,16.52 13.41,25.09 21.99,16.52 19.84,16.52 "
       id="polygon18"
       transform="matrix(1,0,0,-1,0,29.821498)" />
  </g>
</svg>
