<?xml version="1.0" encoding="UTF-8" standalone="no"?>
<svg
   xmlns:dc="http://purl.org/dc/elements/1.1/"
   xmlns:cc="http://creativecommons.org/ns#"
   xmlns:rdf="http://www.w3.org/1999/02/22-rdf-syntax-ns#"
   xmlns:svg="http://www.w3.org/2000/svg"
   xmlns="http://www.w3.org/2000/svg"
   xmlns:sodipodi="http://sodipodi.sourceforge.net/DTD/sodipodi-0.dtd"
   xmlns:inkscape="http://www.inkscape.org/namespaces/inkscape"
   width="32.0px"
   height="32.0px"
   id="Capa_1"
   data-name="Capa 1"
   viewBox="0 0 31.42 29.43"
   version="1.1"
   sodipodi:docname="rotate-cw.svg"
   inkscape:version="1.0.1 (3bc2e813f5, 2020-09-07)">
  <metadata
     id="metadata23">
    <rdf:RDF>
      <cc:Work
         rdf:about="">
        <dc:format>image/svg+xml</dc:format>
        <dc:type
           rdf:resource="http://purl.org/dc/dcmitype/StillImage" />
        <dc:title>rotate</dc:title>
      </cc:Work>
    </rdf:RDF>
  </metadata>
  <sodipodi:namedview
     pagecolor="#ffffff"
     bordercolor="#666666"
     borderopacity="1"
     objecttolerance="10"
     gridtolerance="10"
     guidetolerance="10"
     inkscape:pageopacity="0"
     inkscape:pageshadow="2"
     inkscape:window-width="1918"
     inkscape:window-height="1027"
     id="namedview21"
     showgrid="false"
     inkscape:zoom="7.32246"
     inkscape:cx="9.6009419"
     inkscape:cy="12.780816"
     inkscape:window-x="0"
     inkscape:window-y="0"
     inkscape:window-maximized="0"
     inkscape:current-layer="Capa_1" />
  <defs
     id="defs4">
    <style
       id="style2">.cls-1{fill:#4c4c4c;}.cls-2{fill:#424a60;stroke:#e7eced;stroke-miterlimit:10;stroke-width:0.71px;}.cls-3{fill:#efce4a;}.cls-4{fill:#1a9172;}.cls-5{fill:#25ae88;}</style>
  </defs>
  <title
     id="title6">rotate</title>
  <path
     class="cls-1"
     d="M31.62,9.65a.48.48,0,0,0-.37-.55.47.47,0,0,0-.55.37l-.23,1.19A15.69,15.69,0,0,0,19.23,1.5a.48.48,0,0,0-.56.36.47.47,0,0,0,.37.55,14.79,14.79,0,0,1,10.61,8.7l-1-.74a.46.46,0,1,0-.56.74l2.25,1.67a.47.47,0,0,0,.28.09.51.51,0,0,0,.17,0,.47.47,0,0,0,.29-.35Z"
     id="path8"
     transform="translate(-0.21 -1.49)" />
  <path
     class="cls-1"
     d="M.22,22.69a.46.46,0,0,0,.37.55H.68a.46.46,0,0,0,.46-.38l.23-1.2a15.84,15.84,0,0,0,11.34,9.24h.1A.47.47,0,0,0,12.9,30,14.86,14.86,0,0,1,2.2,21.22l1,.75a.47.47,0,0,0,.66-.1.48.48,0,0,0-.1-.66L1.5,19.53a.51.51,0,0,0-.45-.06.47.47,0,0,0-.29.35Z"
     id="path10"
     transform="translate(-0.21 -1.49)" />
  <rect
     class="cls-2"
     x="6.45"
     y="7.16"
     width="18.95"
     height="18.19"
     transform="translate(-7.04 14.53) rotate(-45)"
     id="rect12" />
  <path
     class="cls-3"
     d="M17.27,8.48a1.74,1.74,0,0,1,0,2.45,1.73,1.73,0,0,1-2.45-2.45A1.74,1.74,0,0,1,17.27,8.48Z"
     id="path14"
     transform="translate(-0.21 -1.49)" />
  <polygon
     class="cls-4"
     points="20.24 22.57 20.27 22 20 15.84 14.11 16.11 14.11 19.05 14.11 21.2 17.86 24.95 20.24 22.57"
     id="polygon16" />
  <polygon
     class="cls-5"
     points="14.11 19.05 14.11 13.17 5.53 12.62 14.11 21.2 14.11 19.05"
     id="polygon18" />
</svg>
