<?xml version="1.0" encoding="UTF-8" standalone="no"?>
<svg
   xmlns:dc="http://purl.org/dc/elements/1.1/"
   xmlns:cc="http://creativecommons.org/ns#"
   xmlns:rdf="http://www.w3.org/1999/02/22-rdf-syntax-ns#"
   xmlns:svg="http://www.w3.org/2000/svg"
   xmlns="http://www.w3.org/2000/svg"
   xmlns:sodipodi="http://sodipodi.sourceforge.net/DTD/sodipodi-0.dtd"
   xmlns:inkscape="http://www.inkscape.org/namespaces/inkscape"
   width="32.0px"
   height="32.0px"
   id="Capa_1"
   data-name="Capa 1"
   viewBox="0 0 32 32"
   version="1.1"
   sodipodi:docname="rotate-acw.svg"
   inkscape:version="1.0.1 (3bc2e813f5, 2020-09-07)">
  <defs
     id="defs12" />
  <sodipodi:namedview
     pagecolor="#ffffff"
     bordercolor="#666666"
     borderopacity="1"
     objecttolerance="10"
     gridtolerance="10"
     guidetolerance="10"
     inkscape:pageopacity="0"
     inkscape:pageshadow="2"
     inkscape:window-width="1920"
     inkscape:window-height="1028"
     id="namedview953"
     showgrid="false"
     inkscape:zoom="17.473795"
     inkscape:cx="14.277663"
     inkscape:cy="17.26393"
     inkscape:window-x="0"
     inkscape:window-y="0"
     inkscape:window-maximized="1"
     inkscape:current-layer="Capa_1"
     inkscape:document-rotation="0" />
  <metadata
     id="metadata23">
    <rdf:RDF>
      <cc:Work
         rdf:about="">
        <dc:format>image/svg+xml</dc:format>
        <dc:type
           rdf:resource="http://purl.org/dc/dcmitype/StillImage" />
        <dc:title>rotate</dc:title>
      </cc:Work>
    </rdf:RDF>
  </metadata>
  <title
     id="title6">rotate</title>
  <path
     class="cls-1"
     d="m 32.003354,23.122798 a 0.48906739,0.52228272 0 0 1 -0.37699,0.598449 0.47887849,0.51140183 0 0 1 -0.560389,-0.402593 L 30.83163,22.023828 a 15.98639,17.072116 0 0 1 -11.452328,9.966896 0.48906739,0.52228272 0 0 1 -0.570579,-0.391712 0.47887849,0.51140183 0 0 1 0.37699,-0.598449 15.069389,16.092836 0 0 0 10.810427,-9.466375 l -1.018891,0.805186 a 0.47276954,0.50487799 0 1 1 -0.570578,-0.805186 l 2.292503,-1.817108 a 0.47887849,0.51140183 0 0 1 0.285289,-0.09793 0.5196341,0.55492539 0 0 1 0.173212,0 0.47887849,0.51140183 0 0 1 0.295478,0.380831 z"
     id="path8"
     style="fill:#4c4c4c;stroke-width:1.05292" />
  <path
     class="cls-1"
     d="m 0.01019519,8.9341177 a 0.46868958,0.50052094 0 0 1 0.37698945,-0.598449 h 0.0917001 A 0.46868958,0.50052094 0 0 1 0.94757436,8.7491426 L 1.1819192,10.054849 A 16.139224,17.23533 0 0 1 12.736136,9.0700002e-4 h 0.101889 A 0.47887849,0.51140183 0 0 1 12.929725,0.9801871 15.140711,16.169003 0 0 0 2.0275982,10.533609 L 3.0464886,9.7175418 a 0.47887849,0.51140183 0 0 1 0.6724676,0.1088089 0.48906739,0.52228272 0 0 1 -0.101889,0.7181383 l -2.3026923,1.82799 a 0.5196341,0.55492539 0 0 1 -0.45850067,0.06528 0.47887849,0.51140183 0 0 1 -0.29547822,-0.380831 z"
     id="path10"
     style="fill:#4c4c4c;stroke-width:1.05292" />
  <rect
     class="cls-2"
     x="-32.617092"
     y="-8.7912273"
     width="19.974394"
     height="19.173311"
     transform="matrix(-0.68351505,-0.72993642,0.68351505,-0.72993642,0,0)"
     id="rect12"
     style="fill:#424a60;stroke:#e7eced;stroke-width:0.748381px;stroke-miterlimit:10" />
  <path
     class="cls-3"
     d="m 8.0913726,14.473961 a 1.7728693,1.8932749 0 0 1 2.4962814,0 1.7651376,1.885018 0 0 1 -2.4962814,2.665818 1.7728693,1.8932749 0 0 1 0,-2.665818 z"
     id="path14"
     style="fill:#efce4a;stroke-width:1.05292" />
  <polygon
     class="cls-4"
     points="17.86,24.95 20.24,22.57 20.27,22 20,15.84 14.11,16.11 14.11,19.05 14.11,21.2 "
     id="polygon16"
     transform="matrix(0,-1.088089,1.0188904,0,0.96932869,33.03676)"
     style="fill:#1a9172" />
  <polygon
     class="cls-5"
     points="14.11,13.17 5.53,12.62 14.11,21.2 14.11,19.05 "
     id="polygon18"
     transform="matrix(0,-1.088089,1.0188904,0,0.96932869,33.03676)"
     style="fill:#25ae88" />
</svg>
