<?xml version="1.0" encoding="UTF-8" standalone="no"?>
<svg
   xmlns:dc="http://purl.org/dc/elements/1.1/"
   xmlns:cc="http://creativecommons.org/ns#"
   xmlns:rdf="http://www.w3.org/1999/02/22-rdf-syntax-ns#"
   xmlns:svg="http://www.w3.org/2000/svg"
   xmlns="http://www.w3.org/2000/svg"
   xmlns:sodipodi="http://sodipodi.sourceforge.net/DTD/sodipodi-0.dtd"
   xmlns:inkscape="http://www.inkscape.org/namespaces/inkscape"
   width="32.0px"
   height="32.0px"
   id="Capa_1"
   data-name="Capa 1"
   viewBox="0 0 32 32"
   version="1.1"
   sodipodi:docname="rotate-cw_dark.svg"
   inkscape:version="1.0.1 (3bc2e813f5, 2020-09-07)">
  <defs
     id="defs12" />
  <sodipodi:namedview
     pagecolor="#ffffff"
     bordercolor="#666666"
     borderopacity="1"
     objecttolerance="10"
     gridtolerance="10"
     guidetolerance="10"
     inkscape:pageopacity="0"
     inkscape:pageshadow="2"
     inkscape:window-width="1920"
     inkscape:window-height="1028"
     id="namedview953"
     showgrid="false"
     inkscape:zoom="17.473795"
     inkscape:cx="14.277663"
     inkscape:cy="17.26393"
     inkscape:window-x="0"
     inkscape:window-y="0"
     inkscape:window-maximized="1"
     inkscape:current-layer="Capa_1"
     inkscape:document-rotation="0" />
  <metadata
     id="metadata23">
    <rdf:RDF>
      <cc:Work
         rdf:about="">
        <dc:format>image/svg+xml</dc:format>
        <dc:type
           rdf:resource="http://purl.org/dc/dcmitype/StillImage" />
        <dc:title>rotate</dc:title>
      </cc:Work>
    </rdf:RDF>
  </metadata>
  <title
     id="title6">rotate</title>
  <path
     class="cls-1"
     d="m 0.0595005,23.175586 a 0.48906739,0.52228272 0 0 0 0.37699,0.598449 0.47887849,0.51140183 0 0 0 0.56038905,-0.402593 L 1.2312247,22.076616 A 15.98639,17.072116 0 0 0 12.683556,32.043512 0.48906739,0.52228272 0 0 0 13.254135,31.6518 0.47887849,0.51140183 0 0 0 12.877145,31.053351 15.069389,16.092836 0 0 1 2.0667149,21.586976 l 1.0188908,0.805186 a 0.47276954,0.50487799 0 1 0 0.570578,-0.805186 L 1.3636808,19.769868 a 0.47887849,0.51140183 0 0 0 -0.2852892,-0.09793 0.5196341,0.55492539 0 0 0 -0.1732121,0 0.47887849,0.51140183 0 0 0 -0.295478,0.380831 z"
     id="path8"
     style="fill:#e7eced;stroke-width:1.05292;fill-opacity:1" />
  <path
     class="cls-1"
     d="m 32.091611,8.9686274 a 0.46868958,0.50052094 0 0 0 -0.376989,-0.598449 h -0.0917 a 0.46868958,0.50052094 0 0 0 -0.46869,0.413474 L 30.919887,10.089356 A 16.139224,17.23533 0 0 0 19.36567,0.0354167 h -0.101889 a 0.47887849,0.51140183 0 0 0 -0.0917,0.9792797 15.140711,16.169003 0 0 1 10.902127,9.5534196 l -1.01889,-0.816065 a 0.47887849,0.51140183 0 0 0 -0.672468,0.1088082 0.48906739,0.52228272 0 0 0 0.101889,0.7181368 l 2.302692,1.82799 a 0.5196341,0.55492539 0 0 0 0.458501,0.06528 0.47887849,0.51140183 0 0 0 0.295478,-0.380831 z"
     id="path10"
     style="fill:#e7eced;stroke-width:1.05292;stroke:none;stroke-opacity:1;fill-opacity:1" />
  <rect
     class="cls-2"
     x="-10.690278"
     y="13.129336"
     width="19.974394"
     height="19.173311"
     transform="matrix(0.72993642,-0.68351505,0.72993642,0.68351505,0,0)"
     id="rect12"
     style="fill:#424a60;stroke:#e7eced;stroke-width:0.748381px;stroke-miterlimit:10;stroke-opacity:1" />
  <path
     class="cls-3"
     d="m 17.531837,8.0871006 a 1.8932749,1.7728693 0 0 1 0,2.4962814 1.885018,1.7651376 0 0 1 -2.665818,-2.4962814 1.8932749,1.7728693 0 0 1 2.665818,0 z"
     id="path14"
     style="fill:#efce4a;stroke-width:1.05292" />
  <polygon
     class="cls-4"
     points="20,15.84 14.11,16.11 14.11,19.05 14.11,21.2 17.86,24.95 20.24,22.57 20.27,22 "
     id="polygon16"
     transform="matrix(1.088089,0,0,1.0188904,-1.030962,0.96505669)"
     style="fill:#1a9172" />
  <polygon
     class="cls-5"
     points="14.11,19.05 14.11,13.17 5.53,12.62 14.11,21.2 "
     id="polygon18"
     transform="matrix(1.088089,0,0,1.0188904,-1.030962,0.96505669)"
     style="fill:#25ae88" />
</svg>
