<?xml version="1.0" encoding="UTF-8" standalone="no"?>
<svg
   xmlns:dc="http://purl.org/dc/elements/1.1/"
   xmlns:cc="http://creativecommons.org/ns#"
   xmlns:rdf="http://www.w3.org/1999/02/22-rdf-syntax-ns#"
   xmlns:svg="http://www.w3.org/2000/svg"
   xmlns="http://www.w3.org/2000/svg"
   xmlns:sodipodi="http://sodipodi.sourceforge.net/DTD/sodipodi-0.dtd"
   xmlns:inkscape="http://www.inkscape.org/namespaces/inkscape"
   width="32.0px"
   height="32.0px"
   id="Capa_1"
   data-name="Capa 1"
   viewBox="0 0 31.42 29.43"
   version="1.1"
   sodipodi:docname="rotate-acw.svg"
   inkscape:version="1.0.1 (3bc2e813f5, 2020-09-07)">
  <metadata
     id="metadata23">
    <rdf:RDF>
      <cc:Work
         rdf:about="">
        <dc:format>image/svg+xml</dc:format>
        <dc:type
           rdf:resource="http://purl.org/dc/dcmitype/StillImage" />
        <dc:title>rotate</dc:title>
      </cc:Work>
    </rdf:RDF>
  </metadata>
  <sodipodi:namedview
     pagecolor="#ffffff"
     bordercolor="#666666"
     borderopacity="1"
     objecttolerance="10"
     gridtolerance="10"
     guidetolerance="10"
     inkscape:pageopacity="0"
     inkscape:pageshadow="2"
     inkscape:window-width="1564"
     inkscape:window-height="1027"
     id="namedview21"
     showgrid="false"
     inkscape:zoom="14.64492"
     inkscape:cx="14.234904"
     inkscape:cy="14.959558"
     inkscape:window-x="0"
     inkscape:window-y="0"
     inkscape:window-maximized="0"
     inkscape:current-layer="Capa_1"
     inkscape:document-rotation="0" />
  <defs
     id="defs4">
    <style
       id="style2">.cls-1{fill:#4c4c4c;}.cls-2{fill:#424a60;stroke:#e7eced;stroke-miterlimit:10;stroke-width:0.71px;}.cls-3{fill:#efce4a;}.cls-4{fill:#1a9172;}.cls-5{fill:#25ae88;}</style>
  </defs>
  <title
     id="title6">rotate</title>
  <path
     class="cls-1"
     d="m 31.41,21.250907 a 0.48,-0.48 0 0 1 -0.37,0.55 0.47,-0.47 0 0 1 -0.55,-0.37 l -0.23,-1.19 a 15.69,-15.69 0 0 1 -11.24,9.16 0.48,-0.48 0 0 1 -0.56,-0.36 0.47,-0.47 0 0 1 0.37,-0.55 14.79,-14.79 0 0 0 10.61,-8.7 l -1,0.74 a 0.46400431,-0.46400431 0 1 1 -0.56,-0.74 l 2.25,-1.67 a 0.47,-0.47 0 0 1 0.28,-0.09 0.51,-0.51 0 0 1 0.17,0 0.47,-0.47 0 0 1 0.29,0.35 z"
     id="path8" />
  <path
     class="cls-1"
     d="m 0.01,8.210907 a 0.46,-0.46 0 0 1 0.37,-0.55 h 0.09 a 0.46,-0.46 0 0 1 0.46,0.38 l 0.23,1.2 a 15.84,-15.84 0 0 1 11.34,-9.24 h 0.1 a 0.47,-0.47 0 0 1 0.09,0.9 14.86,-14.86 0 0 0 -10.7,8.78 l 1,-0.75 a 0.47,-0.47 0 0 1 0.66,0.1 0.48,-0.48 0 0 1 -0.1,0.66 l -2.26,1.68 a 0.51,-0.51 0 0 1 -0.45,0.06 0.47,-0.47 0 0 1 -0.29,-0.35 z"
     id="path10" />
  <g
     id="g885"
     transform="matrix(0,-1,-1,0,30.362258,30.362258)">
    <rect
       class="cls-2"
       x="11.994358"
       y="-8.3404226"
       width="18.950001"
       height="18.190001"
       transform="matrix(0.70710678,0.70710678,0.70710678,-0.70710678,0,0)"
       id="rect12" />
    <path
       class="cls-3"
       d="m 17.06,22.420907 a 1.74,1.74 0 0 0 0,-2.45 1.7324116,1.7324116 0 0 0 -2.45,2.45 1.74,1.74 0 0 0 2.45,0 z"
       id="path14" />
    <polygon
       class="cls-4"
       points="20.24,22.57 20.27,22 20,15.84 14.11,16.11 14.11,19.05 14.11,21.2 17.86,24.95 "
       id="polygon16"
       transform="matrix(1,0,0,-1,0,29.410907)" />
    <polygon
       class="cls-5"
       points="14.11,21.2 14.11,19.05 14.11,13.17 5.53,12.62 "
       id="polygon18"
       transform="matrix(1,0,0,-1,0,29.410907)" />
  </g>
</svg>
