<?xml version="1.0" encoding="UTF-8" standalone="no"?>
<svg
   xmlns:dc="http://purl.org/dc/elements/1.1/"
   xmlns:cc="http://creativecommons.org/ns#"
   xmlns:rdf="http://www.w3.org/1999/02/22-rdf-syntax-ns#"
   xmlns:svg="http://www.w3.org/2000/svg"
   xmlns="http://www.w3.org/2000/svg"
   width="32.0px"
   height="32.0px"
   id="Capa_1"
   data-name="Capa 1"
   viewBox="0 0 31.01 29.83"
   version="1.1">
  <metadata
     id="metadata23">
    <rdf:RDF>
      <cc:Work
         rdf:about="">
        <dc:format>image/svg+xml</dc:format>
        <dc:type
           rdf:resource="http://purl.org/dc/dcmitype/StillImage" />
        <dc:title>rotate dark</dc:title>
      </cc:Work>
    </rdf:RDF>
  </metadata>
  <defs
     id="defs4">
    <style
       id="style2">.cls-1{fill:#fff;}.cls-2{fill:#424a60;stroke:#e7eced;stroke-miterlimit:10;stroke-width:0.71px;}.cls-3{fill:#efce4a;}.cls-4{fill:#1a9172;}.cls-5{fill:#25ae88;}</style>
  </defs>
  <title
     id="title6">rotate dark</title>
  <path
     class="cls-1"
     d="m 0.00999999,8.1599999 a 0.46,0.46000001 0 0 1 0.37,-0.5399999 0.47,0.47000001 0 0 1 0.55,0.3699999 L 1.15,9.1799999 A 15.71,15.71 0 0 1 12.4,0.01 0.47,0.47000001 0 0 1 12.95,0.38 0.46,0.46000001 0 0 1 12.59,0.93000001 14.73,14.73 0 0 0 1.98,9.6299999 l 1,-0.7499997 a 0.46,0.46000001 0 0 1 0.65,0.1 A 0.47,0.47000001 0 0 1 3.54,9.63 L 1.29,11.3 A 0.49,0.48999999 0 0 1 1.01,11.39 0.46,0.46000001 0 0 1 0.58999999,11.01 Z"
     id="path8"
     style="stroke-width:1" />
  <path
     class="cls-1"
     d="m 31.01,21.61 a 0.47,0.47000001 0 0 1 -0.37,0.55 H 30.59 A 0.47,0.47000001 0 0 1 30.13,21.78 L 29.9,20.57 a 15.82,15.82 0 0 1 -11.34,9.25 h -0.1 A 0.48,0.48 0 0 1 18,29.44 a 0.47,0.47000001 0 0 1 0.37,-0.55 14.95,14.95 0 0 0 10.7,-8.78 l -1,0.75 a 0.47,0.47000001 0 1 1 -0.56,-0.75 l 2.27,-1.68 a 0.45,0.44999999 0 0 1 0.45,-0.06 0.47,0.47000001 0 0 1 0.29,0.35 z"
     id="path10"
     style="stroke-width:1" />
  <rect
     class="cls-2"
     x="-8.6439228"
     y="12.065726"
     width="18.190001"
     height="18.950001"
     transform="rotate(-45)"
     id="rect12" />
  <path
     class="cls-3"
     d="m 7.79,13.58 a 1.73,1.73 0 1 1 0,2.44 1.73,1.73 0 0 1 0,-2.44 z"
     id="path14"
     style="stroke-width:1" />
  <polygon
     class="cls-4"
     points="16.63,10.62 16.9,16.52 19.84,16.52 21.99,16.52 25.74,12.77 23.36,10.39 22.79,10.36 "
     id="polygon16" />
  <polygon
     class="cls-5"
     points="13.41,25.09 21.99,16.52 19.84,16.52 13.96,16.52 "
     id="polygon18" />
</svg>
