<?xml version="1.0" encoding="UTF-8" standalone="no"?>
<svg
   xmlns:svg="http://www.w3.org/2000/svg"
   xmlns="http://www.w3.org/2000/svg"
   xmlns:sodipodi="http://sodipodi.sourceforge.net/DTD/sodipodi-0.dtd"
   xmlns:inkscape="http://www.inkscape.org/namespaces/inkscape"
   width="256"
   height="256"
   viewBox="0 0 67.733332 67.733335"
   version="1.1"
   id="svg4272"
   inkscape:version="1.1-dev (8d970f1b26, 2020-07-30)"
   sodipodi:docname="siril.svg">
  <defs
     id="defs4268">
    <linearGradient
       id="SVGID_98_"
       gradientUnits="userSpaceOnUse"
       x1="93.903297"
       y1="187.2495"
       x2="93.903297"
       y2="13.0833"
       gradientTransform="matrix(0.26458333,0,0,0.26458333,0,-3.3166667e-6)">
      <stop
         offset="0.0306"
         style="stop-color:#8765A9"
         id="stop4254" />
      <stop
         offset="0.2255"
         style="stop-color:#485BA6"
         id="stop4256" />
      <stop
         offset="1"
         style="stop-color:#003952"
         id="stop4258" />
    </linearGradient>
    <linearGradient
       id="SVGID_97_"
       gradientUnits="userSpaceOnUse"
       x1="180.1221"
       y1="187.2451"
       x2="180.1221"
       y2="13.0844"
       gradientTransform="matrix(0.26458333,0,0,0.26458333,0,-3.3166667e-6)">
      <stop
         offset="0.0306"
         style="stop-color:#8765A9"
         id="stop4245" />
      <stop
         offset="0.2255"
         style="stop-color:#485BA6"
         id="stop4247" />
      <stop
         offset="1"
         style="stop-color:#003952"
         id="stop4249" />
    </linearGradient>
    <linearGradient
       id="SVGID_96_"
       gradientUnits="userSpaceOnUse"
       x1="181.26759"
       y1="187.2422"
       x2="181.26759"
       y2="13.0869"
       gradientTransform="matrix(0.26458333,0,0,0.26458333,0,-3.3166667e-6)">
      <stop
         offset="0.0306"
         style="stop-color:#8765A9"
         id="stop4236" />
      <stop
         offset="0.2255"
         style="stop-color:#485BA6"
         id="stop4238" />
      <stop
         offset="1"
         style="stop-color:#003952"
         id="stop4240" />
    </linearGradient>
    <linearGradient
       id="SVGID_95_"
       gradientUnits="userSpaceOnUse"
       x1="128.1201"
       y1="187.2437"
       x2="128.1201"
       y2="13.085"
       gradientTransform="matrix(0.26458333,0,0,0.26458333,0,-3.3166667e-6)">
      <stop
         offset="0.0306"
         style="stop-color:#8765A9"
         id="stop4227" />
      <stop
         offset="0.2255"
         style="stop-color:#485BA6"
         id="stop4229" />
      <stop
         offset="1"
         style="stop-color:#003952"
         id="stop4231" />
    </linearGradient>
    <linearGradient
       id="SVGID_94_"
       gradientUnits="userSpaceOnUse"
       x1="91.3311"
       y1="185.7412"
       x2="91.331001"
       y2="13.5231"
       gradientTransform="matrix(0.26458333,0,0,0.26458333,0,-3.3166667e-6)">
      <stop
         offset="0.0306"
         style="stop-color:#8765A9"
         id="stop4218" />
      <stop
         offset="0.2255"
         style="stop-color:#485BA6"
         id="stop4220" />
      <stop
         offset="1"
         style="stop-color:#003952"
         id="stop4222" />
    </linearGradient>
    <linearGradient
       id="SVGID_93_"
       gradientUnits="userSpaceOnUse"
       x1="92.717796"
       y1="187.2529"
       x2="92.717796"
       y2="13.0818"
       gradientTransform="matrix(0.26458333,0,0,0.26458333,0,-3.3166667e-6)">
      <stop
         offset="0.0306"
         style="stop-color:#8765A9"
         id="stop4209" />
      <stop
         offset="0.2255"
         style="stop-color:#485BA6"
         id="stop4211" />
      <stop
         offset="1"
         style="stop-color:#003952"
         id="stop4213" />
    </linearGradient>
    <linearGradient
       id="SVGID_92_"
       gradientUnits="userSpaceOnUse"
       x1="180.14549"
       y1="187.23241"
       x2="180.14549"
       y2="13.1037"
       gradientTransform="matrix(0.26458333,0,0,0.26458333,0,-3.3166667e-6)">
      <stop
         offset="0.0306"
         style="stop-color:#8765A9"
         id="stop4200" />
      <stop
         offset="0.2255"
         style="stop-color:#485BA6"
         id="stop4202" />
      <stop
         offset="1"
         style="stop-color:#003952"
         id="stop4204" />
    </linearGradient>
    <linearGradient
       id="SVGID_91_"
       gradientUnits="userSpaceOnUse"
       x1="178.99319"
       y1="187.24319"
       x2="178.99319"
       y2="13.0867"
       gradientTransform="matrix(0.26458333,0,0,0.26458333,0,-3.3166667e-6)">
      <stop
         offset="0.0306"
         style="stop-color:#8765A9"
         id="stop4191" />
      <stop
         offset="0.2255"
         style="stop-color:#485BA6"
         id="stop4193" />
      <stop
         offset="1"
         style="stop-color:#003952"
         id="stop4195" />
    </linearGradient>
  </defs>
  <sodipodi:namedview
     id="base"
     pagecolor="#ffffff"
     bordercolor="#666666"
     borderopacity="1.0"
     inkscape:pageopacity="0.0"
     inkscape:pageshadow="2"
     inkscape:zoom="1"
     inkscape:cx="147.5"
     inkscape:cy="127.5"
     inkscape:document-units="mm"
     inkscape:current-layer="layer1"
     showgrid="false"
     units="px"
     inkscape:window-width="1456"
     inkscape:window-height="759"
     inkscape:window-x="0"
     inkscape:window-y="23"
     inkscape:window-maximized="1" />
  <g
     inkscape:label="Layer 1"
     inkscape:groupmode="layer"
     id="layer1">
    <g
       id="g4518">
      <path
         fill="#ffffff"
         d="M 54.794944,22.344589 C 52.214727,14.433283 42.65004,8.55768 31.237767,8.55768 c -13.391092,0 -24.2472107,8.088842 -24.2472107,18.066544 0,9.977702 10.8558537,18.066279 24.2472107,18.066279 4.687358,0 9.06145,-0.993775 12.770908,-2.709862 2.1717,1.419754 4.881033,2.264304 7.821612,2.264304 7.138723,0 12.925955,-4.96914 12.925955,-11.098477 -2.65e-4,-5.253302 -4.252119,-9.650942 -9.961298,-10.801879 z"
         id="path2239"
         style="stroke-width:0.264583" />
      <path
         fill="#f2f2f2"
         d="m 20.435094,57.771768 c -1.202267,-1.800754 -3.583517,-2.919413 -6.214534,-2.919413 -2.505075,0 -4.8312913,1.040342 -6.0713933,2.715684 -0.089165,0.120385 -0.0762,0.288131 0.030692,0.393171 0.058208,0.05741 0.1346729,0.08678 0.2114021,0.08678 0.063235,0 0.1277938,-0.02064 0.1825625,-0.06165 1.4888107,-1.136121 3.4755667,-1.76186 5.5935557,-1.76186 2.213769,0 4.33705,0.709347 5.825331,1.945745 0.05636,0.0463 0.124619,0.06959 0.192617,0.06959 0.0717,0 0.143933,-0.02593 0.201083,-0.07726 0.111125,-0.100277 0.131763,-0.266435 0.04868,-0.390789 z"
         id="path4185"
         style="stroke-width:0.264583" />
      <path
         fill="#f2f2f2"
         d="m 43.685354,54.561578 c -1.4097,-2.111639 -4.204494,-3.423179 -7.293504,-3.423179 -2.941373,0 -5.671608,1.220258 -7.125758,3.18479 -0.08917,0.120385 -0.0762,0.288131 0.0299,0.393171 0.05847,0.05715 0.134937,0.08652 0.211931,0.08652 0.06376,0 0.127794,-0.02011 0.182298,-0.06165 1.76821,-1.348845 4.125912,-2.091531 6.638925,-2.091531 2.626254,0 5.145881,0.842169 6.913827,2.310342 0.05583,0.0463 0.12356,0.06959 0.192352,0.06959 0.07223,0 0.144198,-0.02619 0.201083,-0.07726 0.111125,-0.100542 0.132027,-0.266436 0.04895,-0.39079 z"
         id="path4187"
         style="stroke-width:0.264583" />
      <path
         fill="#f2f2f2"
         d="m 54.710012,61.273264 c -1.573477,-2.356909 -4.695295,-3.821642 -8.146785,-3.821642 -3.285596,0 -6.335712,1.362604 -7.959196,3.556 -0.08916,0.120385 -0.07594,0.288131 0.03043,0.393171 0.05821,0.05741 0.134673,0.08652 0.211402,0.08652 0.06377,0 0.128059,-0.02037 0.182034,-0.06165 1.989137,-1.516857 4.639998,-2.352411 7.465748,-2.352411 2.95275,0 5.785908,0.947209 7.773723,2.598473 0.05662,0.0463 0.124618,0.06959 0.192616,0.06959 0.0725,0 0.143934,-0.02593 0.201348,-0.07726 0.111125,-0.100012 0.131763,-0.266435 0.04868,-0.390789 z"
         id="path4189"
         style="stroke-width:0.264583" />
      <path
         fill="url(#SVGID_91_)"
         d="m 47.246381,34.514099 c -0.528902,-0.115094 -1.005416,-0.36486 -1.456531,-0.762794 -0.153458,-0.135202 -0.151606,-0.276754 -0.09208,-0.379412 -0.0971,0.05953 -0.224896,0.02937 -0.320146,-0.08255 -0.03175,-0.03651 -0.07779,-0.09313 -0.111654,-0.159279 -0.119063,-0.228865 -0.237067,-0.458523 -0.357188,-0.693209 -0.03519,0.06191 -0.06879,0.125148 -0.09842,0.189177 -0.124883,0.268553 -0.188647,0.496623 -0.09578,0.73713 0.119857,0.310885 0.03784,0.595312 -0.04207,0.870479 -0.0426,0.147373 -0.01058,0.260085 0.105039,0.365389 0.265377,0.242888 0.411427,0.494771 0.458523,0.792427 0.04339,0.274903 0.173038,0.329936 0.267229,0.347134 0.425979,0.07937 0.718079,0.329671 0.946944,0.564091 0.119062,0.121444 0.27596,0.13388 0.461962,0.04366 0.06271,-0.03043 0.131498,-0.0471 0.193675,-0.0471 0.01244,0 0.02461,5.29e-4 0.03704,0.0021 l 0.03784,0.0042 c 0.201347,0.02196 0.408781,0.04498 0.61251,0.08784 0.170921,0.03572 0.27649,0.0082 0.369358,-0.101071 0.01826,-0.02196 0.03863,-0.03863 0.05556,-0.05186 0.0071,-0.0064 0.01561,-0.01191 0.0217,-0.01958 0.229393,-0.272521 0.545041,-0.365125 0.822854,-0.430212 0.111389,-0.02619 0.173037,-0.06932 0.206904,-0.144727 0.04022,-0.09208 0.07064,-0.173832 0.09049,-0.250032 0.07091,-0.267758 0.175948,-0.451114 0.341048,-0.595577 l 0.02831,-0.02461 c 0.08572,-0.07461 0.175154,-0.151606 0.20611,-0.230981 0.07514,-0.1905 0.115888,-0.402167 0.126471,-0.666221 -0.03942,0.03096 -0.07885,0.06059 -0.119856,0.08943 -0.81624,0.572823 -1.726936,0.757238 -2.69584,0.5461 z"
         id="path4198"
         style="fill:url(#SVGID_91_);stroke-width:0.264583" />
      <path
         fill="url(#SVGID_92_)"
         d="m 47.712577,33.273732 c 0.0299,0 0.059,-0.0021 0.08572,-0.0069 0.19685,-0.03545 0.394229,-0.189177 0.514615,-0.400843 0.09604,-0.169598 0.124618,-0.348192 0.07593,-0.478367 l -0.0063,-0.01588 -0.0013,-0.01667 c -0.0299,-0.321998 -0.432064,-0.571764 -0.757502,-0.571764 -0.04154,0 -0.08176,0.004 -0.118798,0.01191 -0.405606,0.08731 -0.630502,0.574146 -0.584464,0.859896 0.06218,0.383381 0.503237,0.618595 0.792162,0.618595 z"
         id="path4207"
         style="fill:url(#SVGID_92_);stroke-width:0.264583" />
      <path
         fill="url(#SVGID_93_)"
         d="m 24.061208,17.850376 c 0.753004,-0.14605 1.290109,-0.479954 1.643857,-1.020762 0.106627,-0.163777 0.183356,-0.378354 0.264054,-0.605367 0.04286,-0.119856 0.08731,-0.243946 0.138906,-0.370946 0.01217,-0.0299 0.02831,-0.05768 0.04657,-0.08387 -0.176213,-0.104775 -0.390525,-0.156633 -0.651405,-0.156633 -0.167481,0 -0.349514,0.0209 -0.557212,0.06324 -0.741892,0.1524 -1.261798,0.478896 -1.591204,0.999067 -0.09155,0.144992 -0.160867,0.323585 -0.234156,0.513027 -0.03122,0.08017 -0.06297,0.162719 -0.09816,0.245533 -0.0048,0.0127 -0.01455,0.05503 -0.0217,0.08599 -0.0077,0.03519 -0.0164,0.07276 -0.02699,0.113242 -0.01376,0.05186 -0.03625,0.09895 -0.06562,0.141552 0.166688,0.09049 0.367506,0.135466 0.608277,0.135466 0.161396,-5.29e-4 0.339725,-0.01984 0.544777,-0.05953 z"
         id="path4216"
         style="fill:url(#SVGID_93_);stroke-width:0.264583" />
      <path
         fill="url(#SVGID_94_)"
         d="m 22.973506,16.433532 c 0.435504,-0.687916 1.109927,-1.0414 1.881981,-1.199885 0.213519,-0.04366 0.432594,-0.07223 0.6477,-0.07223 0.364067,0 0.717286,0.08176 1.016265,0.309827 0.05503,0.0418 0.106098,0.08414 0.155046,0.127529 0.0934,0.03281 0.175419,0.09525 0.230981,0.181769 0.03969,0.06218 0.07408,0.128058 0.10504,0.195527 0.386291,0.562504 0.359039,1.214702 -0.05768,1.86055 -0.182563,0.282575 -0.399257,0.524404 -0.639763,0.734483 -0.16801,0.162984 -0.359569,0.316177 -0.575469,0.458788 -0.712258,0.4699 -1.527704,0.783166 -2.434166,0.938477 -0.699823,0.213254 -1.408113,0.403489 -2.11455,0.592666 -0.566473,0.151607 -1.153848,0.224896 -1.732227,0.331259 -0.462492,0.0844 -0.925513,0.03493 -1.388005,0.117475 0.0037,0.01085 0.0077,-0.09869 0.01085,-0.09869 0.0217,0 0.04286,0 0.06429,0 0.25056,0 0.502179,0.137319 0.753004,0.137319 0.200819,0 0.401902,0.06138 0.601398,0.04736 0.826558,-0.05821 1.659202,-0.07038 2.474119,-0.207962 1.152789,-0.194733 2.292614,-0.434975 3.402806,-0.829733 1.10834,-0.39423 2.188898,-0.813594 3.147483,-1.509713 0.650611,-0.472281 1.235075,-0.99351 1.592528,-1.737519 0.261143,-0.544248 0.154252,-1.399116 -0.202407,-1.807633 -0.694531,-0.795338 -1.601523,-1.081088 -2.618052,-1.112838 -0.07646,-0.0021 -0.152929,-0.0026 -0.228864,-0.0026 -0.533136,0 -1.059921,0.05927 -1.576123,0.180181 -0.11774,0.04048 -0.234686,0.08202 -0.34925,0.126735 -0.780257,0.303213 -1.528234,0.594784 -2.114021,1.099609 -0.163513,0.16457 -0.314325,0.34872 -0.44794,0.5588 -0.283898,0.446352 -0.34925,1.03505 -0.137583,1.493043 0.03175,0.04233 0.06826,0.0844 0.106892,0.126736 0.02011,-0.08282 0.03254,-0.152136 0.05847,-0.214577 0.117739,-0.277284 0.208227,-0.572823 0.367241,-0.824707 z"
         id="path4225"
         style="fill:url(#SVGID_94_);stroke-width:0.264583" />
      <path
         fill="url(#SVGID_95_)"
         d="M 33.898946,3.4620696 C 15.878704,3.4620696 1.27,18.07051 1.27,36.090751 c 0,4.33705 0.8482542,8.474869 2.3849542,12.260527 1.6634354,-2.205831 4.05765,-3.589337 6.7190938,-3.589337 2.450042,0 4.673864,1.173427 6.310048,3.080808 1.074737,-0.293952 2.214562,-0.452437 3.395398,-0.452437 2.472796,0 4.766204,0.693473 6.656916,1.875895 1.205707,-1.14591 3.02948,-1.875895 5.070475,-1.875895 1.42928,0 2.751402,0.359304 3.829844,0.967316 1.798902,-2.718329 4.845844,-4.505854 8.302625,-4.505854 3.763169,0 7.040827,2.119313 8.750036,5.25145 1.444095,-1.073944 3.245908,-1.712912 5.201179,-1.712912 2.208741,0 4.221956,0.814123 5.744368,2.151327 1.858169,-4.101307 2.89269,-8.65505 2.89269,-13.450623 C 66.527098,18.07051 51.918923,3.4620696 33.898946,3.4620696 Z M 11.828992,31.016043 c -0.0164,0.07435 -0.08229,0.127 -0.158221,0.127 -0.07594,0 -0.141552,-0.05292 -0.157692,-0.127 L 11.133138,29.245716 9.363075,28.86551 C 9.288727,28.84937 9.2358104,28.78402 9.2358104,28.708082 c 0,-0.0762 0.052917,-0.141552 0.1272646,-0.157691 l 1.770062,-0.379942 0.379942,-1.770327 c 0.01614,-0.07408 0.08176,-0.127 0.157692,-0.127 0.07593,0 0.141817,0.05292 0.158221,0.127 l 0.379941,1.770327 1.769798,0.379942 c 0.07435,0.01614 0.127529,0.08176 0.127529,0.157691 0,0.07594 -0.05318,0.141288 -0.127529,0.157428 l -1.769798,0.380206 z m 8.396816,6.311635 -2.654829,0.570177 -0.570177,2.655094 c -0.02381,0.111125 -0.121973,0.191029 -0.236802,0.191029 -0.113771,0 -0.212196,-0.07964 -0.235744,-0.191029 l -0.570441,-2.655094 -2.655094,-0.570177 c -0.111125,-0.02381 -0.1905,-0.122237 -0.1905,-0.236273 0,-0.114035 0.07937,-0.21246 0.1905,-0.236537 l 2.655094,-0.569913 0.570441,-2.655093 c 0.02355,-0.11139 0.121973,-0.190765 0.235744,-0.190765 0.114829,0 0.21299,0.07937 0.236802,0.190765 l 0.570177,2.655093 2.654829,0.569913 c 0.111654,0.02408 0.191294,0.122502 0.191294,0.236537 0,0.113771 -0.07964,0.212196 -0.191294,0.236273 z m 10.780713,-24.49195 c -0.223838,0.03678 -0.44794,0.07223 -0.671777,0.107685 -0.501386,0.07911 -1.019175,0.160602 -1.520825,0.258763 -0.380471,0.07461 -0.773907,0.161925 -1.174486,0.259027 1.10834,0.0971 1.966384,0.506148 2.613819,1.247775 0.479954,0.550069 0.603779,1.604169 0.269346,2.301346 -0.423333,0.881592 -1.114161,1.460765 -1.734344,1.911615 -1.040606,0.755385 -2.229114,1.210468 -3.261254,1.577975 -1.017058,0.361685 -2.122223,0.636852 -3.479006,0.865716 -0.734219,0.12409 -1.481402,0.175155 -2.204244,0.224367 -0.10451,0.0071 -0.209285,0.01429 -0.312738,0.02143 -0.185472,0.01323 -0.387085,0.01931 -0.633941,0.01931 -0.127529,0 -0.255059,-0.0016 -0.382059,-0.0032 -0.12356,-0.0013 -0.24712,0.03757 -0.370681,0.03757 l -0.06165,0.04022 c -0.0011,0 -0.0019,0 -0.0026,0 -0.191822,0 -0.363272,-0.162189 -0.425714,-0.343429 l -0.0048,-0.03334 -0.0077,-0.03043 c -0.04207,-0.124355 -0.02831,-0.2667 0.03836,-0.380207 0.06668,-0.11377 0.179917,-0.194998 0.309827,-0.218281 l 0.412221,-0.07461 c 0.324644,-0.05768 0.649552,-0.115888 0.973931,-0.175419 0.17489,-0.03202 0.351896,-0.06191 0.523346,-0.09022 0.409575,-0.06826 0.796396,-0.132292 1.173692,-0.233363 l 0.01852,-0.005 c 0.100012,-0.02699 0.200554,-0.05424 0.30136,-0.08096 -0.336021,-0.03837 -0.66675,-0.09895 -0.991129,-0.158486 l -0.01746,-0.0034 c -0.965729,-0.177271 -1.906323,-1.162315 -2.053696,-2.150533 -0.09657,-0.649023 0.09393,-1.279525 0.567267,-1.87325 0.721783,-0.906198 1.64174,-1.594644 2.734469,-2.045759 0.220662,-0.09128 0.446352,-0.191029 0.66331,-0.287337 0.439473,-0.194469 0.894292,-0.395817 1.366573,-0.552451 0.528109,-0.175418 1.07024,-0.305329 1.595173,-0.431006 0.223838,-0.05345 0.454819,-0.109008 0.67945,-0.166423 1.106488,-0.283898 2.237052,-0.363008 3.33084,-0.438944 l 0.154516,-0.01085 c 0.204259,-0.01429 0.422011,-0.0209 0.704321,-0.0209 0.115623,0 0.230188,0.0011 0.345546,0.0021 0.112713,0.0011 0.22516,0.0079 0.337344,0.0079 0.03916,0 0.07805,0.0056 0.116946,0.0056 7.93e-4,0 0.0019,0 0.0034,0 0.227806,0 0.420159,0.164307 0.447675,0.39079 l 0.0024,0.01693 0.0021,0.01429 c 0.02837,0.239135 -0.136729,0.457945 -0.375648,0.497368 z m 6.635485,17.409584 -1.769798,0.379941 -0.379941,1.770063 c -0.01588,0.07408 -0.08202,0.127264 -0.157692,0.127264 -0.07594,0 -0.141552,-0.05318 -0.157692,-0.127264 l -0.380471,-1.770063 -1.769533,-0.379941 c -0.07461,-0.01614 -0.127529,-0.08176 -0.127529,-0.157692 0,-0.07594 0.05292,-0.141817 0.127529,-0.157427 l 1.769533,-0.380206 0.380471,-1.770063 c 0.01614,-0.07408 0.08176,-0.127 0.157692,-0.127 0.07567,0 0.141817,0.05292 0.157692,0.127 l 0.379941,1.770063 1.769798,0.380206 c 0.07488,0.01588 0.127794,0.08149 0.127794,0.157427 0,0.0762 -0.05292,0.141817 -0.127794,0.157692 z m 6.137011,-11.299561 c 0,-0.113771 0.07964,-0.21246 0.191029,-0.236537 l 2.655358,-0.569913 0.569913,-2.655094 c 0.02408,-0.111389 0.122502,-0.190764 0.236537,-0.190764 0.114036,0 0.212196,0.07938 0.236538,0.190764 l 0.569912,2.655094 2.655094,0.569913 c 0.111125,0.02408 0.191029,0.122766 0.191029,0.236537 0,0.113771 -0.0799,0.212196 -0.191029,0.236273 l -2.655094,0.570177 -0.569912,2.654565 c -0.02434,0.111389 -0.122502,0.191294 -0.236538,0.191294 -0.114035,0 -0.21246,-0.07964 -0.236537,-0.191294 l -0.569913,-2.654565 -2.655358,-0.570177 c -0.11139,-0.02408 -0.191029,-0.122502 -0.191029,-0.236273 z m 7.3279,12.568767 c 0.206904,0.5207 0.01058,0.962819 -0.227542,1.407054 -0.04075,0.07673 -0.09102,0.143669 -0.139965,0.209021 -0.04392,0.05874 -0.0852,0.114035 -0.116681,0.171714 -0.0217,0.03969 -0.03201,0.106628 -0.02513,0.170657 0.03836,0.388673 7.93e-4,0.786606 -0.112184,1.182687 -0.04736,0.164836 -0.17092,0.305329 -0.266964,0.394494 -0.205581,0.192087 -0.325173,0.395287 -0.37465,0.639762 -0.07091,0.348457 -0.316706,0.56859 -0.730515,0.65458 -0.207962,0.04313 -0.369623,0.135995 -0.525727,0.301625 -0.192881,0.204523 -0.414867,0.308504 -0.6604,0.308504 -0.09446,0 -0.192881,-0.01614 -0.291306,-0.04789 -0.247915,-0.0799 -0.443971,-0.08705 -0.638175,-0.02355 -0.41619,0.135732 -0.774436,0.03466 -1.039283,-0.289983 -0.126736,-0.155046 -0.301625,-0.251619 -0.567796,-0.31406 -0.362744,-0.08467 -0.591079,-0.334698 -0.6604,-0.722048 -0.03651,-0.201084 -0.13044,-0.368036 -0.296334,-0.525198 -0.307181,-0.290777 -0.399785,-0.619919 -0.27596,-0.978429 0.07646,-0.222515 0.11086,-0.395553 0.04471,-0.567796 -0.17198,-0.448469 -0.01746,-0.848784 0.156104,-1.180836 0.05927,-0.112448 0.128323,-0.217487 0.195262,-0.319616 0.05424,-0.08202 0.105304,-0.159544 0.151342,-0.240771 0.01958,-0.0344 0.0299,-0.09208 0.02408,-0.13679 -0.05159,-0.398991 -0.0079,-0.81915 0.13044,-1.247775 0.04022,-0.125941 0.13282,-0.254793 0.274902,-0.383381 0.171979,-0.155575 0.277812,-0.335756 0.324114,-0.550862 0.06456,-0.295805 0.205581,-0.492125 0.432594,-0.60034 0.124619,-0.05927 0.24765,-0.113506 0.381265,-0.130704 0.180181,-0.02302 0.30427,-0.134144 0.447939,-0.262202 l 0.059,-0.05239 c 0.08308,-0.0725 0.173567,-0.131762 0.261409,-0.189177 0.03678,-0.02408 0.07355,-0.04815 0.109272,-0.07303 l 0.03863,-0.02672 0.04657,0.0048 c 0.04657,0.0048 0.09049,0.0071 0.132292,0.0095 0.09604,0.0053 0.186531,0.01032 0.27649,0.03889 0.262995,0.08308 0.509587,0.0852 0.778668,0.0066 0.27649,-0.08096 0.537634,-0.03572 0.746919,0.12991 l 0.02408,0.01905 c 0.07091,0.0553 0.150813,0.118269 0.210873,0.199496 0.09895,0.133615 0.242888,0.219075 0.428096,0.254 0.445823,0.08414 0.706173,0.354807 0.772319,0.804598 0.03281,0.219075 0.17145,0.374121 0.315912,0.508794 0.280194,0.26035 0.359833,0.582083 0.236802,0.955146 l -0.0029,0.0093 c -0.05583,0.169863 -0.108744,0.330465 -0.04815,0.483394 z m 7.227887,9.342173 -1.770062,0.380206 -0.379942,1.770063 c -0.01588,0.07408 -0.08176,0.127264 -0.157956,0.127264 -0.07594,0 -0.141552,-0.05318 -0.157427,-0.127264 l -0.380471,-1.770063 -1.770063,-0.380206 c -0.07382,-0.01588 -0.126735,-0.08149 -0.126735,-0.157427 0,-0.0762 0.05292,-0.141817 0.126735,-0.157957 l 1.770063,-0.379941 0.380471,-1.769798 c 0.01587,-0.07461 0.08149,-0.127529 0.157427,-0.127529 0.0762,0 0.142081,0.05292 0.157956,0.127529 l 0.379942,1.769798 1.770062,0.379941 c 0.07435,0.01614 0.127529,0.08176 0.127529,0.157957 0,0.07594 -0.05318,0.141552 -0.127529,0.157427 z"
         id="path4234"
         style="fill:url(#SVGID_95_);stroke-width:0.264583" />
      <path
         fill="url(#SVGID_96_)"
         d="m 50.621406,30.939843 c 0.01852,-0.05318 0.03969,-0.113771 0.03519,-0.150283 l -0.0016,-0.01217 c -0.01085,-0.09075 -0.02672,-0.214577 -0.07091,-0.262467 -0.200025,-0.215635 -0.448469,-0.484452 -0.504296,-0.878681 -0.02778,-0.195792 -0.147902,-0.314854 -0.356394,-0.354542 -0.03281,-0.0061 -0.06641,-0.01376 -0.09895,-0.02275 -0.254794,-0.07117 -0.438944,-0.180975 -0.577321,-0.34581 -0.198702,-0.236803 -0.38047,-0.293423 -0.6223,-0.200555 -0.112448,0.04313 -0.234156,0.06482 -0.360627,0.06482 -0.159543,0 -0.327289,-0.03228 -0.529166,-0.102923 -0.154517,-0.05371 -0.241036,-0.04233 -0.326496,0.04868 -0.193146,0.2032 -0.500327,0.479425 -0.937419,0.538427 -0.140494,0.01905 -0.220662,0.0971 -0.269346,0.261144 -0.0085,0.0291 -0.01693,0.059 -0.02487,0.08837 -0.06403,0.228865 -0.136789,0.488421 -0.361685,0.658548 -0.30136,0.2286 -0.329671,0.542925 -0.351896,0.907257 0.636058,-0.4826 1.316567,-0.726811 2.025386,-0.726811 0.297391,0 0.605366,0.04286 0.915193,0.128058 1.041929,0.28628 1.783027,0.972873 2.205302,2.043113 0.03731,-0.06588 0.07012,-0.127529 0.09975,-0.191294 0.131763,-0.280723 0.193675,-0.503237 0.0979,-0.747448 -0.08652,-0.219604 -0.08493,-0.453231 0.0045,-0.714375 z"
         id="path4243"
         style="fill:url(#SVGID_96_);stroke-width:0.264583" />
      <path
         fill="url(#SVGID_97_)"
         d="m 45.922671,33.229282 c 0.09684,0 0.17436,0.06059 0.223837,0.106098 0.357188,0.32729 0.771261,0.54663 1.230048,0.651934 0.556684,0.128058 1.094317,0.0926 1.596761,-0.10504 0.406664,-0.159808 0.744008,-0.388673 1.032668,-0.699294 0.0013,-0.0026 0.0053,-0.01879 0.0048,-0.02593 -0.05292,-0.180446 -0.108215,-0.340519 -0.167217,-0.484716 -0.257439,-0.626269 -0.700616,-1.094582 -1.318683,-1.392238 -0.709083,-0.341312 -1.431925,-0.380735 -2.13995,-0.116417 -0.343165,0.128059 -0.646113,0.310357 -0.926042,0.556948 l -0.01138,0.01032 c -0.140494,0.123825 -0.169862,0.168275 -0.123031,0.266965 0.02672,0.05662 0.04604,0.114035 0.06509,0.169333 0.02064,0.05927 0.03916,0.115094 0.06509,0.164306 0.04974,0.09551 0.104775,0.191823 0.158221,0.284956 0.06747,0.117211 0.137054,0.238919 0.198437,0.363538 0.04233,0.08652 0.02328,0.209021 -0.02064,0.291835 0.04868,-0.03413 0.09657,-0.0426 0.132027,-0.0426 z m 1.456531,-1.957916 c 0.110067,-0.02461 0.219604,-0.03731 0.325967,-0.03731 0.602456,0 1.067593,0.386027 1.214173,1.007533 0.169862,0.719931 -0.232834,1.3589 -0.978165,1.553633 l -0.0098,0.0021 c -0.0926,0.01614 -0.18415,0.02434 -0.273579,0.02434 -0.632089,0 -1.125537,-0.398463 -1.256771,-1.015207 -0.157956,-0.738981 0.244475,-1.370012 0.978165,-1.535112 z"
         id="path4252"
         style="fill:url(#SVGID_97_);stroke-width:0.264583" />
      <path
         fill="url(#SVGID_98_)"
         d="m 26.041615,18.206241 c 0.350308,-0.353748 0.594783,-0.785813 0.664633,-1.321329 0.0299,-0.228865 0.0021,-0.469371 -0.08943,-0.6858 -0.03228,-0.04419 -0.06879,-0.08784 -0.108215,-0.13044 -0.140758,0.355335 -0.233892,0.71411 -0.42545,1.008063 -0.451379,0.690297 -1.137973,1.062037 -1.935427,1.216554 -0.20955,0.04075 -0.42254,0.06747 -0.630767,0.06747 -0.389202,0 -0.763323,-0.09287 -1.073414,-0.362479 -0.0217,-0.01852 -0.04075,-0.03757 -0.06085,-0.05609 -0.08678,-0.03175 -0.163777,-0.08969 -0.217752,-0.169598 -0.04472,-0.06509 -0.08281,-0.133615 -0.117211,-0.203994 -0.400844,-0.56224 -0.417512,-1.206235 0.06377,-1.920081 0.178593,-0.264584 0.383381,-0.488421 0.608277,-0.683419 0.679185,-0.675481 1.521883,-1.004888 2.228321,-1.218671 0.135995,-0.04128 0.272785,-0.07726 0.411956,-0.110331 0.465667,-0.160338 0.942181,-0.292894 1.417373,-0.420953 0.645054,-0.173302 1.2954,-0.327289 1.950773,-0.455612 0.731308,-0.14314 1.46976,-0.24765 2.205831,-0.368829 -0.0013,-0.01191 -0.0029,-0.02355 -0.0045,-0.03572 -0.04022,2.64e-4 -0.08017,5.29e-4 -0.120385,5.29e-4 -0.227807,0 -0.455348,-0.0042 -0.68289,-0.0042 -0.224631,0 -0.449262,0.004 -0.6731,0.01984 -1.141942,0.0799 -2.287587,0.149754 -3.404394,0.436827 -0.7493,0.192352 -1.512093,0.345281 -2.244725,0.588698 -0.683154,0.226483 -1.332441,0.553244 -1.999456,0.82894 -1.014942,0.418835 -1.872985,1.054629 -2.553758,1.909762 -0.347134,0.435769 -0.559859,0.948796 -0.473869,1.525852 0.118269,0.794544 0.898525,1.628246 1.688835,1.773502 0.523082,0.09578 1.058334,0.195263 1.585913,0.195263 0.03969,0 0.07858,-5.29e-4 0.118004,-0.0019 0.345017,-0.01005 0.685535,-0.04128 1.020498,-0.09657 0.354806,-0.108479 0.707231,-0.222515 1.052777,-0.345546 0.576527,-0.205846 1.25386,-0.494771 1.798638,-0.979752 z"
         id="path4261"
         style="fill:url(#SVGID_98_);stroke-width:0.264583" />
    </g>
  </g>
</svg>
