<?xml version="1.0" encoding="UTF-8" standalone="no"?>
<!-- Generator: Adobe Illustrator 15.0.0, SVG Export Plug-In . SVG Version: 6.00 Build 0)  -->

<svg
   xmlns:dc="http://purl.org/dc/elements/1.1/"
   xmlns:cc="http://creativecommons.org/ns#"
   xmlns:rdf="http://www.w3.org/1999/02/22-rdf-syntax-ns#"
   xmlns:svg="http://www.w3.org/2000/svg"
   xmlns="http://www.w3.org/2000/svg"
   xmlns:sodipodi="http://sodipodi.sourceforge.net/DTD/sodipodi-0.dtd"
   xmlns:inkscape="http://www.inkscape.org/namespaces/inkscape"
   version="1.1"
   id="Calque_1"
   x="0px"
   y="0px"
   width="280.81503"
   height="175.94901"
   viewBox="0 0 280.81502 175.94901"
   enable-background="new 0 0 595.28 419.53"
   xml:space="preserve"
   inkscape:version="0.48.5 r10040"
   sodipodi:docname="logo ok.svg"
   inkscape:export-filename="/home/lock/Projet/siril/pixmaps/siril_logo.svg.png"
   inkscape:export-xdpi="46"
   inkscape:export-ydpi="46"><metadata
     id="metadata31"><rdf:RDF><cc:Work
         rdf:about=""><dc:format>image/svg+xml</dc:format><dc:type
           rdf:resource="http://purl.org/dc/dcmitype/StillImage" /><dc:title></dc:title></cc:Work></rdf:RDF></metadata><defs
     id="defs29" /><sodipodi:namedview
     pagecolor="#ffffff"
     bordercolor="#666666"
     borderopacity="1"
     objecttolerance="10"
     gridtolerance="10"
     guidetolerance="10"
     inkscape:pageopacity="0"
     inkscape:pageshadow="2"
     inkscape:window-width="1366"
     inkscape:window-height="719"
     id="namedview27"
     showgrid="false"
     fit-margin-top="0"
     fit-margin-left="0"
     fit-margin-right="0"
     fit-margin-bottom="0"
     inkscape:zoom="2.2501371"
     inkscape:cx="220.33371"
     inkscape:cy="70.026879"
     inkscape:window-x="0"
     inkscape:window-y="0"
     inkscape:window-maximized="1"
     inkscape:current-layer="Calque_1" /><path
     d="m 22.516984,144.574 c -7.248,0 -13.1319995,-5.885 -13.1319995,-13.139 V 45.053 H 172.75098 v 5.354 c 0.315,0 0.612,-0.025 0.963,-0.025 2.844,0 5.636,0.204 8.421,0.521 V 22.517 C 182.13498,10.082 172.03198,0 159.60098,0 H 22.516984 C 10.083984,0 -1.5514478e-5,10.082 -1.5514478e-5,22.517 v 108.918 c 0,12.451 10.082999514478,22.527 22.516999514478,22.527 h 89.478996 c -1.633,-3.003 -3.057,-6.142 -4.236,-9.389 H 22.516984 z M 148.32798,16.812 h 15.021 v 12.68 h -15.021 v -12.68 z m -26.29,0 h 15.027 v 12.68 h -15.027 v -12.68 z m -28.160996,0 h 15.027996 v 12.68 H 93.876984 v -12.68 z"
     id="path3"
     inkscape:connector-curvature="0" /><path
     d="m 83.952984,70.968 -30.791,30.833 -15.258,-15.276 c -1.221,-1.195 -2.862,-1.929 -4.695,-1.929 -3.689,0 -6.678,2.977 -6.678,6.644 0,1.844 0.744,3.5 1.954,4.705 l 19.973,19.98 c 1.187,1.191 2.861,1.942 4.704,1.942 1.836,0 3.5,-0.751 4.69,-1.942 l 35.478,-35.505 c 1.229,-1.203 1.998,-2.875 1.998,-4.721 0,-3.663 -2.998,-6.638 -6.678,-6.638 -1.843,0 -3.5,0.742 -4.697,1.907 z"
     id="path5"
     inkscape:connector-curvature="0"
     style="fill:#13120d" /><g
     id="g7"
     transform="translate(-166.50402,-57.679)"><path
       d="m 307.14,183.059 c -0.318,-0.393 -0.384,-0.924 -0.171,-1.382 l 5.643,-12.248 -6.887,-11.585 c -0.255,-0.435 -0.249,-0.976 0.024,-1.396 0.273,-0.42 0.766,-0.647 1.259,-0.589 l 13.392,1.582 8.899,-10.13 c 0.329,-0.377 0.842,-0.536 1.327,-0.401 0.487,0.128 0.854,0.52 0.953,1.016 l 2.63,13.22 12.385,5.33 c 0.463,0.19 0.773,0.637 0.798,1.141 0.026,0.5 -0.231,0.971 -0.677,1.218 l -11.759,6.593 -1.242,13.421 c -0.015,0.223 -0.092,0.418 -0.204,0.6 -0.152,0.228 -0.368,0.406 -0.635,0.51 -0.468,0.181 -1.003,0.08 -1.367,-0.257 l -9.903,-9.16 -13.148,2.973 c -0.492,0.113 -0.997,-0.068 -1.317,-0.456 z"
       id="path9"
       inkscape:connector-curvature="0"
       style="fill:#951b81" /><path
       d="m 426.002,106.952 c 0.285,-0.441 0.422,-0.98 0.352,-1.542 -0.157,-1.266 -1.306,-2.167 -2.572,-2.012 -0.508,0.069 -51.219,6.765 -87.164,50.735 -0.81,0.99 -0.661,2.445 0.328,3.247 0.983,0.811 2.44,0.661 3.244,-0.32 34.737,-42.492 83.668,-49.015 84.157,-49.073 0.702,-0.091 1.295,-0.485 1.655,-1.035 z"
       id="path11"
       inkscape:connector-curvature="0" /><path
       d="m 446.948,126.979 c 0.229,-0.353 0.366,-0.78 0.371,-1.233 0.008,-1.276 -1.021,-2.32 -2.292,-2.326 -66.002,-0.509 -100.593,34.974 -102.034,36.489 -0.876,0.922 -0.842,2.376 0.077,3.263 0.921,0.879 2.381,0.844 3.266,-0.079 0.339,-0.358 34.755,-35.547 98.655,-35.058 0.82,0.009 1.542,-0.41 1.957,-1.056 z"
       id="path13"
       inkscape:connector-curvature="0" /><path
       d="m 428.083,149.159 c 0.219,-0.329 0.354,-0.723 0.37,-1.149 0.062,-1.274 -0.925,-2.353 -2.2,-2.411 -42.538,-1.94 -72.248,16.922 -73.495,17.728 -1.066,0.688 -1.382,2.117 -0.688,3.188 0.691,1.071 2.121,1.378 3.191,0.69 0.294,-0.188 29.784,-18.866 70.784,-16.992 0.851,0.041 1.609,-0.389 2.038,-1.054 z"
       id="path15"
       inkscape:connector-curvature="0" /></g><g
     id="g17"
     transform="matrix(1.0392053,0,0,1.0392053,-181.37132,-66.838463)"><path
       d="m 328.204,233.628 c 34.378,0 62.348,-27.968 62.348,-62.344 0,-34.38 -27.97,-62.348 -62.348,-62.348 -34.377,0 -62.344,27.968 -62.344,62.348 0,34.376 27.967,62.344 62.344,62.344 z m 0,-120.072 c 31.833,0 57.727,25.895 57.727,57.728 0,7.677 -1.517,15.003 -4.251,21.713 -3.819,1.312 -8.83,2.401 -8.83,-0.934 0,-5.389 -5.391,-6.928 -6.931,-2.309 -1.541,4.618 -3.847,0.77 -8.464,-0.771 -4.62,-1.536 -13.086,-3.078 -13.857,4.621 -0.77,7.694 10.776,25.399 2.307,22.319 -8.465,-3.078 -1.535,-10.775 -8.465,-8.464 -6.926,2.307 -5.389,-2.312 -6.156,-4.621 -0.77,-2.308 -2.31,-5.39 -6.928,-1.54 -4.619,3.85 -10.774,-1.538 -13.084,-5.385 -2.307,-3.851 -10.777,-4.621 -11.547,3.847 -0.771,8.468 -5.386,2.308 -5.386,0 0,-2.148 -6.678,-8.301 -16.917,-1.055 -1.851,-3.41 -3.358,-7.036 -4.501,-10.814 1.646,-0.604 4.011,-1.217 6.791,-1.217 5.391,0 10.012,-2.307 10.012,-6.925 0,-4.619 -0.773,-6.928 3.076,-10.777 3.849,-3.846 6.154,-11.546 -1.542,-12.314 -7.695,-0.77 -10.004,-0.77 -9.237,-6.159 0.538,-3.75 -1.907,-6.375 -4.486,-6.847 9.81,-17.919 28.841,-30.096 50.669,-30.096 z"
       id="path19"
       inkscape:connector-curvature="0" /><path
       d="m 299.725,152.81 c 0,0 6.931,0 6.931,-6.159 0,-6.159 3.077,-5.386 2.31,-10.005 -0.772,-4.616 -1.543,-5.389 -5.389,-3.081 -3.852,2.308 -5.391,1.538 -8.47,5.389 -3.077,3.85 -2.308,14.628 4.618,13.856 z"
       id="path21"
       inkscape:connector-curvature="0" /></g><rect
     x="12.452985"
     y="9.4270029"
     width="205.884"
     height="57.792"
     id="rect23"
     style="fill:none" /><text
     font-size="42.6763"
     id="text25"
     style="font-size:42.67630005px;fill:#951b81;font-family:HelveticaNeue-CondensedBold"
     x="12.452985"
     y="39.898602">Siril</text>
</svg>