<?xml version="1.0" encoding="UTF-8" standalone="no"?>
<svg
   xmlns:svg="http://www.w3.org/2000/svg"
   xmlns="http://www.w3.org/2000/svg"
   xmlns:sodipodi="http://sodipodi.sourceforge.net/DTD/sodipodi-0.dtd"
   xmlns:inkscape="http://www.inkscape.org/namespaces/inkscape"
   width="300"
   height="300"
   viewBox="0 0 79.374998 79.375002"
   version="1.1"
   id="svg1171"
   inkscape:version="1.1-dev (8d970f1b26, 2020-07-30)"
   sodipodi:docname="siril_logo.svg">
  <defs
     id="defs1167">
    <linearGradient
       id="SVGID_90_"
       gradientUnits="userSpaceOnUse"
       x1="116.083"
       y1="174.95461"
       x2="116.083"
       y2="3.0790999"
       gradientTransform="matrix(0.26458333,0,0,0.26458333,0.84029853,0.0422393)">
      <stop
         offset="0.0306"
         style="stop-color:#8765A9"
         id="stop11967" />
      <stop
         offset="0.2255"
         style="stop-color:#485BA6"
         id="stop11969" />
      <stop
         offset="1"
         style="stop-color:#003952"
         id="stop11971" />
    </linearGradient>
    <linearGradient
       id="SVGID_89_"
       gradientUnits="userSpaceOnUse"
       x1="201.17191"
       y1="174.95461"
       x2="201.17191"
       y2="3.0792"
       gradientTransform="matrix(0.26458333,0,0,0.26458333,0.84029853,0.0422393)">
      <stop
         offset="0.0306"
         style="stop-color:#8765A9"
         id="stop11958" />
      <stop
         offset="0.2255"
         style="stop-color:#485BA6"
         id="stop11960" />
      <stop
         offset="1"
         style="stop-color:#003952"
         id="stop11962" />
    </linearGradient>
    <linearGradient
       id="SVGID_88_"
       gradientUnits="userSpaceOnUse"
       x1="202.3027"
       y1="174.95261"
       x2="202.3027"
       y2="3.0817001"
       gradientTransform="matrix(0.26458333,0,0,0.26458333,0.84029853,0.0422393)">
      <stop
         offset="0.0306"
         style="stop-color:#8765A9"
         id="stop11949" />
      <stop
         offset="0.2255"
         style="stop-color:#485BA6"
         id="stop11951" />
      <stop
         offset="1"
         style="stop-color:#003952"
         id="stop11953" />
    </linearGradient>
    <linearGradient
       id="SVGID_87_"
       gradientUnits="userSpaceOnUse"
       x1="149.85249"
       y1="174.95461"
       x2="149.85249"
       y2="3.0796001"
       gradientTransform="matrix(0.26458333,0,0,0.26458333,0.84029853,0.0422393)">
      <stop
         offset="0.0306"
         style="stop-color:#8765A9"
         id="stop11940" />
      <stop
         offset="0.2255"
         style="stop-color:#485BA6"
         id="stop11942" />
      <stop
         offset="1"
         style="stop-color:#003952"
         id="stop11944" />
    </linearGradient>
    <linearGradient
       id="SVGID_86_"
       gradientUnits="userSpaceOnUse"
       x1="113.5439"
       y1="174.6973"
       x2="113.5439"
       y2="3.155"
       gradientTransform="matrix(0.26458333,0,0,0.26458333,0.84029853,0.0422393)">
      <stop
         offset="0.0306"
         style="stop-color:#8765A9"
         id="stop11931" />
      <stop
         offset="0.2255"
         style="stop-color:#485BA6"
         id="stop11933" />
      <stop
         offset="1"
         style="stop-color:#003952"
         id="stop11935" />
    </linearGradient>
    <linearGradient
       id="SVGID_85_"
       gradientUnits="userSpaceOnUse"
       x1="114.9131"
       y1="174.94341"
       x2="114.9131"
       y2="3.0841"
       gradientTransform="matrix(0.26458333,0,0,0.26458333,0.84029853,0.0422393)">
      <stop
         offset="0.0306"
         style="stop-color:#8765A9"
         id="stop11922" />
      <stop
         offset="0.2255"
         style="stop-color:#485BA6"
         id="stop11924" />
      <stop
         offset="1"
         style="stop-color:#003952"
         id="stop11926" />
    </linearGradient>
    <linearGradient
       id="SVGID_84_"
       gradientUnits="userSpaceOnUse"
       x1="201.19431"
       y1="174.9614"
       x2="201.19431"
       y2="3.0664999"
       gradientTransform="matrix(0.26458333,0,0,0.26458333,0.84029853,0.0422393)">
      <stop
         offset="0.0306"
         style="stop-color:#8765A9"
         id="stop11913" />
      <stop
         offset="0.2255"
         style="stop-color:#485BA6"
         id="stop11915" />
      <stop
         offset="1"
         style="stop-color:#003952"
         id="stop11917" />
    </linearGradient>
    <linearGradient
       id="SVGID_83_"
       gradientUnits="userSpaceOnUse"
       x1="200.0576"
       y1="174.9556"
       x2="200.0576"
       y2="3.0764999"
       gradientTransform="matrix(0.26458333,0,0,0.26458333,0.84029853,0.0422393)">
      <stop
         offset="0.0306"
         style="stop-color:#8765A9"
         id="stop11904" />
      <stop
         offset="0.2255"
         style="stop-color:#485BA6"
         id="stop11906" />
      <stop
         offset="1"
         style="stop-color:#003952"
         id="stop11908" />
    </linearGradient>
  </defs>
  <sodipodi:namedview
     id="base"
     pagecolor="#ffffff"
     bordercolor="#666666"
     borderopacity="1.0"
     inkscape:pageopacity="0.0"
     inkscape:pageshadow="2"
     inkscape:zoom="2.07"
     inkscape:cx="71.014493"
     inkscape:cy="150"
     inkscape:document-units="mm"
     inkscape:current-layer="layer1"
     showgrid="false"
     units="px"
     inkscape:window-width="1456"
     inkscape:window-height="759"
     inkscape:window-x="0"
     inkscape:window-y="23"
     inkscape:window-maximized="1" />
  <g
     inkscape:label="Layer 1"
     inkscape:groupmode="layer"
     id="layer1">
    <g
       id="g1346"
       transform="translate(-0.80139875,0.0708707)">
      <path
         fill="#f2f2f2"
         d="m 27.201789,54.454331 c -1.18639,-1.777206 -3.53642,-2.881313 -6.13304,-2.881313 -2.47253,0 -4.76832,1.027113 -5.99202,2.68023 -0.0878,0.118798 -0.0749,0.284162 0.0302,0.388143 0.0577,0.05662 0.13282,0.0852 0.20876,0.0852 0.063,0 0.12647,-0.01984 0.17965,-0.06059 1.47003,-1.121305 3.43059,-1.738577 5.52106,-1.738577 2.1844,0 4.2799,0.699822 5.74887,1.920345 0.0553,0.04577 0.1225,0.06853 0.1897,0.06853 0.0714,0 0.14235,-0.0254 0.19871,-0.0762 0.10954,-0.09895 0.13017,-0.262995 0.0482,-0.385762 z"
         id="path11898"
         style="stroke-width:0.264583" />
      <path
         fill="#f2f2f2"
         d="m 50.146989,51.286475 c -1.39118,-2.083859 -4.14946,-3.378465 -7.19773,-3.378465 -2.90274,0 -5.59752,1.204383 -7.03262,3.142986 -0.0881,0.118797 -0.0749,0.284427 0.0302,0.388143 0.0574,0.05662 0.13282,0.08546 0.20822,0.08546 0.0632,0 0.12674,-0.02011 0.18018,-0.06085 1.74493,-1.331119 4.07194,-2.06428 6.55241,-2.06428 2.59186,0 5.07815,0.831057 6.82255,2.28018 0.0556,0.04551 0.12276,0.06853 0.18997,0.06853 0.0714,0 0.14208,-0.02566 0.19844,-0.07646 0.1098,-0.09842 0.13043,-0.262467 0.0484,-0.385233 z"
         id="path11900"
         style="stroke-width:0.264583" />
      <path
         fill="#f2f2f2"
         d="m 61.027179,57.910583 c -1.55284,-2.326746 -4.63338,-3.7719 -8.03936,-3.7719 -3.24326,0 -6.25343,1.344877 -7.85548,3.509433 -0.0876,0.118798 -0.0749,0.284427 0.0302,0.38788 0.0574,0.05662 0.13308,0.08546 0.20875,0.08546 0.0627,0 0.12648,-0.02011 0.17992,-0.06085 1.96242,-1.497277 4.57915,-2.321454 7.36759,-2.321454 2.91359,0 5.70997,0.934508 7.67186,2.564341 0.0553,0.04577 0.12276,0.06853 0.1897,0.06853 0.0717,0 0.14208,-0.0254 0.19897,-0.0762 0.10927,-0.09869 0.12991,-0.262731 0.0479,-0.385233 z"
         id="path11902"
         style="stroke-width:0.264583" />
      <path
         fill="url(#SVGID_83_)"
         d="m 53.661709,31.501991 c -0.52229,-0.11377 -0.99245,-0.360098 -1.43774,-0.753268 -0.15108,-0.133086 -0.14976,-0.27305 -0.0908,-0.374386 -0.096,0.05874 -0.22199,0.02937 -0.31618,-0.08149 -0.031,-0.03625 -0.0762,-0.09208 -0.11007,-0.157163 -0.11774,-0.225954 -0.23389,-0.452967 -0.35216,-0.684212 -0.0344,0.06138 -0.0683,0.12356 -0.0974,0.186795 -0.12303,0.265113 -0.18574,0.490273 -0.0942,0.727605 0.11854,0.306652 0.037,0.587375 -0.0415,0.859102 -0.0423,0.14552 -0.0103,0.256645 0.10372,0.360891 0.2622,0.239448 0.40614,0.488157 0.4527,0.782109 0.0429,0.270933 0.17119,0.325173 0.26353,0.34237 0.42068,0.07858 0.70855,0.325438 0.93477,0.556684 0.11747,0.120121 0.27252,0.132027 0.45614,0.04313 0.0616,-0.0299 0.12965,-0.0463 0.19103,-0.0463 0.0122,0 0.0243,5.29e-4 0.0365,0.0019 l 0.0373,0.0042 c 0.1987,0.02196 0.40349,0.04445 0.60484,0.08678 0.1688,0.03545 0.27278,0.0079 0.36433,-0.09975 0.018,-0.02196 0.0384,-0.0381 0.0545,-0.05107 0.007,-0.0063 0.0159,-0.01191 0.0217,-0.01931 0.22595,-0.269081 0.53763,-0.360362 0.81148,-0.424656 0.11006,-0.02593 0.17118,-0.06853 0.20452,-0.142875 0.0402,-0.09075 0.0696,-0.17145 0.0894,-0.246856 0.0699,-0.264319 0.17356,-0.445558 0.33628,-0.587904 l 0.0278,-0.02434 c 0.0852,-0.07355 0.17278,-0.149489 0.204,-0.228071 0.0744,-0.187854 0.1143,-0.396875 0.12462,-0.657225 -0.0389,0.03043 -0.078,0.0598 -0.11827,0.08811 -0.80698,0.565414 -1.70498,0.747447 -2.66092,0.53922 z"
         id="path11911"
         style="fill:url(#SVGID_83_);stroke-width:0.264583" />
      <path
         fill="url(#SVGID_84_)"
         d="m 54.121559,30.278029 c 0.0294,0 0.0579,-0.0024 0.0844,-0.0071 0.19473,-0.03466 0.38946,-0.186796 0.50826,-0.395552 0.0947,-0.167217 0.12277,-0.343694 0.0744,-0.472281 l -0.006,-0.01561 -10e-4,-0.01667 c -0.0296,-0.3175 -0.42571,-0.564092 -0.74771,-0.564092 -0.041,0 -0.0807,0.0042 -0.11721,0.01191 -0.40058,0.08599 -0.62283,0.566738 -0.57679,0.848784 0.0614,0.378089 0.49662,0.610658 0.78184,0.610658 z"
         id="path11920"
         style="fill:url(#SVGID_84_);stroke-width:0.264583" />
      <path
         fill="url(#SVGID_85_)"
         d="m 30.780279,15.05655 c 0.74295,-0.144198 1.27318,-0.473604 1.6219,-1.007269 0.10583,-0.16166 0.18124,-0.373327 0.26088,-0.597429 0.0423,-0.118269 0.086,-0.240771 0.13731,-0.365919 0.0119,-0.02963 0.0278,-0.05715 0.046,-0.08281 -0.17409,-0.103452 -0.38496,-0.154516 -0.64293,-0.154516 -0.16537,0 -0.34528,0.02064 -0.54981,0.06244 -0.73183,0.150284 -1.24566,0.472811 -1.57056,0.986103 -0.0905,0.142875 -0.15875,0.319352 -0.23125,0.506147 -0.0304,0.07885 -0.0622,0.160603 -0.0963,0.242359 -0.005,0.01217 -0.0148,0.05424 -0.0217,0.08493 -0.008,0.03466 -0.0164,0.0717 -0.0265,0.11139 -0.0135,0.05106 -0.0365,0.0979 -0.0651,0.1397 0.16484,0.08916 0.36248,0.13335 0.60008,0.13335 0.15954,-2.65e-4 0.33549,-0.01931 0.53789,-0.05847 z"
         id="path11929"
         style="fill:url(#SVGID_85_);stroke-width:0.264583" />
      <path
         fill="url(#SVGID_86_)"
         d="m 29.707129,13.658756 c 0.42942,-0.679185 1.09511,-1.028171 1.85738,-1.18454 0.21034,-0.04313 0.42677,-0.07144 0.63923,-0.07144 0.35851,0 0.70776,0.0807 1.00303,0.305594 0.0537,0.04128 0.10478,0.08308 0.15293,0.126206 0.0921,0.03254 0.17304,0.09393 0.22781,0.179123 0.0392,0.06165 0.0728,0.126735 0.10345,0.193146 0.381,0.55536 0.35534,1.198562 -0.0569,1.835679 -0.18018,0.2794 -0.3937,0.517789 -0.63103,0.725223 -0.16589,0.160602 -0.35481,0.312208 -0.5678,0.452702 -0.70273,0.46355 -1.50812,0.772848 -2.40241,0.926041 -0.6903,0.210873 -1.38959,0.398198 -2.08651,0.585259 -0.55933,0.149754 -1.13903,0.221985 -1.71,0.32676 -0.4564,0.08361 -0.91334,0.14949 -1.37001,0.231246 0.004,0.01058 0.007,0.01799 0.0114,0.01799 0.0212,0 0.0421,0 0.063,0 0.24738,0 0.4953,0.01984 0.74268,0.01984 0.19844,0 0.39688,0.0032 0.59426,-0.01085 0.81571,-0.05715 1.63724,-0.09842 2.44157,-0.234157 1.13745,-0.192087 2.26298,-0.443177 3.3581,-0.833173 1.09378,-0.388937 2.16032,-0.809889 3.1062,-1.497012 0.64215,-0.466725 1.21894,-0.983986 1.57163,-1.718469 0.2577,-0.536839 0.1524,-1.382183 -0.19976,-1.785408 -0.68527,-0.785019 -1.58062,-1.067859 -2.58392,-1.098815 -0.0754,-0.0026 -0.15055,-0.0034 -0.22569,-0.0034 -0.52626,0 -1.04616,0.05847 -1.55575,0.1778 -0.11615,0.03969 -0.23125,0.0807 -0.34449,0.124618 -0.77047,0.299773 -1.50892,0.587111 -2.08677,1.085586 -0.16166,0.162454 -0.31035,0.344223 -0.44185,0.551391 -0.2802,0.440532 -0.34528,1.021292 -0.13626,1.473465 0.0317,0.04154 0.0677,0.08308 0.10609,0.125148 0.019,-0.08202 0.0315,-0.150283 0.0577,-0.211667 0.11563,-0.274108 0.20559,-0.565679 0.36275,-0.813858 z"
         id="path11938"
         style="fill:url(#SVGID_86_);stroke-width:0.264583" />
      <path
         fill="url(#SVGID_87_)"
         d="m 40.488899,0.8571557 c -17.78397,0 -32.2008505,14.4168813 -32.2008505,32.2008503 0,4.2799 0.83714,8.363744 2.3532105,12.09966 1.642,-2.176991 4.00499,-3.542506 6.63098,-3.542506 2.41856,0 4.61275,1.157817 6.22697,3.040592 1.06098,-0.289984 2.18599,-0.446617 3.35121,-0.446617 2.44026,0 4.7035,0.684213 6.56987,1.85129 1.18931,-1.130565 2.98953,-1.85129 5.0038,-1.85129 1.41103,0 2.71542,0.354542 3.77984,0.954617 1.77456,-2.682611 4.78182,-4.446852 8.19282,-4.446852 3.71396,0 6.94849,2.091531 8.63547,5.182658 1.42584,-1.059921 3.20384,-1.690423 5.13319,-1.690423 2.1799,0 4.16692,0.80354 5.66896,2.123017 1.83383,-4.047596 2.85538,-8.541809 2.85538,-13.274411 0,-17.783968 -14.41714,-32.2005853 -32.20085,-32.2005853 z M 18.707869,28.049443 c -0.0159,0.07329 -0.0804,0.125942 -0.15557,0.125942 -0.0749,0 -0.1397,-0.05265 -0.15531,-0.125942 l -0.37545,-1.746779 -1.74678,-0.374914 c -0.073,-0.01588 -0.12567,-0.0807 -0.12567,-0.155575 0,-0.07488 0.0524,-0.1397 0.12567,-0.155575 l 1.74678,-0.374915 0.37545,-1.747044 c 0.0156,-0.07303 0.0804,-0.125412 0.15531,-0.125412 0.0751,0 0.1397,0.05212 0.15557,0.125412 l 0.37492,1.747044 1.74731,0.374915 c 0.073,0.01588 0.12567,0.0807 0.12567,0.155575 0,0.07488 -0.0524,0.1397 -0.12567,0.155575 l -1.74731,0.374914 z m 8.28755,6.228821 -2.62017,0.562504 -0.56251,2.620434 c -0.0236,0.109802 -0.12091,0.188383 -0.23362,0.188383 -0.11219,0 -0.20955,-0.07858 -0.23284,-0.188383 l -0.56277,-2.620434 -2.62043,-0.562504 c -0.1098,-0.02355 -0.18812,-0.12065 -0.18812,-0.233098 0,-0.112448 0.0783,-0.20955 0.18812,-0.233098 l 2.62043,-0.562768 0.56277,-2.620169 c 0.0233,-0.110067 0.12065,-0.188383 0.23284,-0.188383 0.11271,0 0.21008,0.07858 0.23362,0.188383 l 0.56251,2.620169 2.62017,0.562768 c 0.11006,0.02355 0.18838,0.12065 0.18838,0.233098 -2.7e-4,0.112448 -0.0783,0.209815 -0.18838,0.233098 z m 10.63889,-24.170481 c -0.22066,0.03651 -0.44185,0.07144 -0.66278,0.106098 -0.49451,0.07779 -1.00568,0.158486 -1.50072,0.255588 -0.3757,0.07329 -0.76411,0.159808 -1.15966,0.255587 1.09405,0.09551 1.94045,0.499533 2.57915,1.231106 0.4744,0.54319 0.59637,1.583267 0.26617,2.271448 -0.41804,0.870215 -1.0996,1.441715 -1.71185,1.886215 -1.02632,0.745596 -2.19948,1.194858 -3.21839,1.557073 -1.0033,0.357187 -2.09444,0.62865 -3.43376,0.854604 -0.72417,0.122237 -1.46183,0.172508 -2.17541,0.221456 -0.10319,0.0069 -0.20584,0.01376 -0.30877,0.02117 -0.18256,0.01296 -0.38153,0.01905 -0.62547,0.01905 -0.12541,0 -0.25083,-0.0016 -0.37677,-0.0032 -0.12197,-0.0013 -0.24368,-0.107421 -0.36592,-0.107421 l -0.0611,-0.104246 c -5.3e-4,0 -10e-4,0 -0.002,0 -0.18997,0 -0.35851,-0.01588 -0.42095,-0.194998 l -0.005,0.03916 -0.007,0.0064 c -0.0423,-0.122766 -0.0288,-0.245268 0.0373,-0.357716 0.0659,-0.111919 0.17727,-0.183356 0.30559,-0.206111 l 0.40693,-0.06932 c 0.31989,-0.05689 0.64056,-0.111919 0.96071,-0.170921 0.17277,-0.03122 0.34713,-0.05953 0.51646,-0.08758 0.40376,-0.06721 0.78608,-0.130175 1.15835,-0.229923 l 0.0183,-0.0045 c 0.099,-0.02672 0.19817,-0.05318 0.29739,-0.0799 -0.33152,-0.03784 -0.65828,-0.09737 -0.97816,-0.156105 l -0.0169,-0.0034 c -0.95356,-0.17489 -1.88146,-1.146704 -2.02671,-2.122223 -0.0955,-0.640821 0.0926,-1.262856 0.55959,-1.848908 0.71173,-0.894292 1.61978,-1.573477 2.69796,-2.019036 0.21801,-0.08996 0.44053,-0.188383 0.65537,-0.283633 0.43365,-0.192087 0.88186,-0.390789 1.34832,-0.545571 0.52096,-0.173037 1.05621,-0.3013603 1.57427,-0.4249213 0.22066,-0.05292 0.44926,-0.10742 0.67072,-0.16457 1.09167,-0.280459 2.20794,-0.358246 3.28744,-0.433388 l 0.15188,-0.01058 c 0.20187,-0.01429 0.41645,-0.02064 0.69532,-0.02064 0.11404,0 0.22754,0.0011 0.34078,0.0021 0.11113,7.94e-4 0.22252,-0.068 0.33311,-0.068 0.0386,0 0.0773,-0.07064 0.11563,-0.07064 0.001,0 0.003,0 0.004,0 0.22463,0 0.41433,0.238125 0.44159,0.461698 l 0.002,0.05477 0.002,0.03307 c 0.0288,0.237067 -0.13415,0.4720173 -0.36989,0.5109103 z m 6.5487,17.181248 -1.74678,0.374915 -0.37491,1.747043 c -0.0156,0.07302 -0.0807,0.125677 -0.15531,0.125677 -0.0751,0 -0.13996,-0.05239 -0.15558,-0.125677 l -0.37544,-1.747043 -1.74704,-0.374915 c -0.073,-0.01588 -0.12568,-0.08043 -0.12568,-0.15531 0,-0.07514 0.0524,-0.139965 0.12568,-0.155575 l 1.74704,-0.374915 0.37544,-1.746779 c 0.0156,-0.07355 0.0804,-0.125677 0.15558,-0.125677 0.0746,0 0.1397,0.05212 0.15531,0.125677 l 0.37518,1.746779 1.74678,0.374915 c 0.0733,0.01588 0.12594,0.08043 0.12594,0.155575 -2.6e-4,0.07488 -0.0527,0.139435 -0.12621,0.15531 z m 6.05658,-11.151394 c 0,-0.112448 0.0786,-0.20955 0.18865,-0.233098 l 2.62017,-0.562504 0.5625,-2.620433 c 0.0236,-0.109802 0.12092,-0.188383 0.2331,-0.188383 0.11271,0 0.20955,0.07858 0.23336,0.188383 l 0.56277,2.620433 2.62017,0.562504 c 0.10954,0.02355 0.18838,0.12065 0.18838,0.233098 0,0.112448 -0.0788,0.20955 -0.18838,0.233098 l -2.62017,0.562769 -0.56277,2.620169 c -0.0238,0.109802 -0.12065,0.188383 -0.23336,0.188383 -0.11218,0 -0.20955,-0.07858 -0.2331,-0.188383 l -0.5625,-2.620169 -2.62017,-0.562769 c -0.11007,-0.02355 -0.18865,-0.12065 -0.18865,-0.233098 z m 7.23159,12.404196 c 0.20426,0.513821 0.0103,0.949854 -0.22463,1.388798 -0.0402,0.07541 -0.0902,0.141817 -0.13811,0.20611 -0.0431,0.05768 -0.0839,0.112448 -0.11536,0.169334 -0.0217,0.03889 -0.0315,0.105304 -0.0251,0.168275 0.0381,0.383646 7.9e-4,0.776287 -0.11086,1.167077 -0.046,0.162454 -0.16828,0.301625 -0.26247,0.389466 -0.20346,0.189442 -0.32094,0.390261 -0.37015,0.631561 -0.0701,0.343694 -0.31247,0.561181 -0.72125,0.645583 -0.20479,0.0426 -0.36486,0.134144 -0.51859,0.297392 -0.1905,0.202142 -0.40984,0.3048 -0.65167,0.3048 -0.0937,0 -0.18997,-0.01614 -0.28733,-0.04736 -0.24474,-0.07911 -0.43815,-0.08573 -0.63024,-0.02328 -0.4109,0.133615 -0.76412,0.03387 -1.02553,-0.286279 -0.12514,-0.153194 -0.29765,-0.248708 -0.56012,-0.309827 -0.35798,-0.08361 -0.5834,-0.3302 -0.65167,-0.712523 -0.036,-0.198438 -0.12885,-0.363273 -0.29263,-0.518583 -0.30294,-0.286544 -0.39423,-0.611452 -0.27225,-0.9652 0.0759,-0.219869 0.1098,-0.390525 0.0445,-0.560388 -0.17013,-0.442648 -0.0177,-0.837671 0.15399,-1.165489 0.0582,-0.110861 0.12647,-0.214842 0.19288,-0.315384 0.0532,-0.08096 0.10371,-0.157427 0.14896,-0.237331 0.0193,-0.03413 0.0294,-0.09102 0.0238,-0.135202 -0.0511,-0.393965 -0.008,-0.808302 0.12885,-1.231371 0.0399,-0.12409 0.13123,-0.251354 0.2712,-0.37809 0.16933,-0.153722 0.27384,-0.331522 0.31961,-0.543718 0.0635,-0.2921 0.2032,-0.485775 0.42704,-0.592402 0.12277,-0.05847 0.24421,-0.112184 0.37624,-0.129382 0.1778,-0.02249 0.30004,-0.131762 0.44212,-0.258498 l 0.0582,-0.05186 c 0.0823,-0.0717 0.17092,-0.130175 0.25796,-0.186531 0.0365,-0.02381 0.0725,-0.04789 0.10795,-0.07197 l 0.0376,-0.02646 0.0463,0.0048 c 0.0458,0.0048 0.0892,0.0071 0.13097,0.0095 0.0942,0.0053 0.18389,0.01032 0.27226,0.03836 0.25982,0.08229 0.5035,0.0844 0.76835,0.0066 0.27358,-0.07991 0.53102,-0.03545 0.73739,0.128058 l 0.0243,0.01879 c 0.0696,0.0545 0.1487,0.116417 0.2077,0.19685 0.0974,0.131763 0.23971,0.216165 0.42254,0.250561 0.44027,0.08281 0.69691,0.350043 0.76253,0.79375 0.032,0.216164 0.16854,0.369093 0.31168,0.502179 0.27649,0.257175 0.35507,0.57441 0.23363,0.94271 l -0.003,0.0087 c -0.055,0.168539 -0.10716,0.327025 -0.0474,0.477837 z m 7.13317,9.219671 -1.74731,0.374914 -0.37491,1.747044 c -0.0159,0.07329 -0.0807,0.125677 -0.15558,0.125677 -0.0749,0 -0.13943,-0.05239 -0.15557,-0.125677 l -0.37492,-1.747044 -1.74704,-0.374914 c -0.0733,-0.01588 -0.12568,-0.08043 -0.12568,-0.155575 0,-0.07514 0.0521,-0.1397 0.12568,-0.155575 l 1.74704,-0.374915 0.37492,-1.746779 c 0.0161,-0.07329 0.0807,-0.125677 0.15557,-0.125677 0.0749,0 0.1397,0.05212 0.15558,0.125677 l 0.37491,1.746779 1.74731,0.374915 c 0.073,0.01588 0.12541,0.08043 0.12541,0.155575 0,0.07488 -0.0524,0.1397 -0.12541,0.155575 z"
         id="path11947"
         style="fill:url(#SVGID_87_);stroke-width:0.264583" />
      <path
         fill="url(#SVGID_88_)"
         d="m 56.992289,27.974302 c 0.0185,-0.05239 0.0394,-0.111919 0.0349,-0.148167 l -0.002,-0.01217 c -0.0111,-0.08943 -0.027,-0.211931 -0.0701,-0.259027 -0.19738,-0.212989 -0.44239,-0.478102 -0.49768,-0.867039 -0.0275,-0.193411 -0.14579,-0.311415 -0.3519,-0.350044 -0.0325,-0.0061 -0.0653,-0.01376 -0.0974,-0.02249 -0.25215,-0.07011 -0.43312,-0.178593 -0.56965,-0.341312 -0.19579,-0.233892 -0.37571,-0.289454 -0.6141,-0.198173 -0.11112,0.04233 -0.23071,0.06429 -0.35586,0.06429 -0.15769,0 -0.32359,-0.03254 -0.52229,-0.1016 -0.15266,-0.05318 -0.23759,-0.04154 -0.32306,0.04789 -0.19023,0.20029 -0.49291,0.47334 -0.92445,0.531548 -0.13864,0.01852 -0.21828,0.09578 -0.26591,0.257969 -0.008,0.02858 -0.0164,0.05794 -0.0249,0.08705 -0.0627,0.225954 -0.1344,0.482071 -0.35639,0.650346 -0.29792,0.225425 -0.3257,0.535516 -0.3474,0.89482 0.62786,-0.475985 1.29911,-0.71702 1.99893,-0.71702 0.29342,0 0.59769,0.04233 0.90302,0.12647 1.0287,0.282311 1.75975,0.960173 2.17647,2.01639 0.0368,-0.06509 0.0696,-0.125942 0.0992,-0.188648 0.12911,-0.276754 0.19102,-0.496887 0.0955,-0.737658 -0.0852,-0.216694 -0.0836,-0.447146 0.005,-0.705115 z"
         id="path11956"
         style="fill:url(#SVGID_88_);stroke-width:0.264583" />
      <path
         fill="url(#SVGID_89_)"
         d="m 52.354929,30.233843 c 0.0958,0 0.17198,0.0598 0.22093,0.104775 0.35269,0.323057 0.76094,0.539486 1.21417,0.643467 0.54954,0.126206 1.0795,0.09128 1.57586,-0.103717 0.40138,-0.157956 0.73449,-0.383645 1.01971,-0.690033 7.9e-4,-0.0026 0.005,-0.01878 0.004,-0.02566 -0.0521,-0.178065 -0.10689,-0.336286 -0.1651,-0.478367 -0.25374,-0.618067 -0.69136,-1.080294 -1.30175,-1.373981 -0.69983,-0.336815 -1.41288,-0.375709 -2.11138,-0.11483 -0.33866,0.126471 -0.63738,0.306123 -0.91387,0.549805 l -0.0114,0.01032 c -0.13838,0.122238 -0.16748,0.165894 -0.12144,0.263261 0.0265,0.05609 0.0458,0.112448 0.0646,0.167216 0.0198,0.05847 0.0386,0.113507 0.064,0.161925 0.0492,0.09419 0.10345,0.189442 0.1561,0.280988 0.0664,0.115887 0.13494,0.235744 0.19579,0.35851 0.0421,0.08546 0.023,0.206111 -0.0209,0.288132 0.0482,-0.03334 0.0953,-0.04181 0.13044,-0.04181 z m 1.43749,-1.931987 c 0.10821,-0.02434 0.21669,-0.03678 0.32199,-0.03678 0.59426,0 1.05331,0.381 1.19804,0.994304 0.16721,0.710671 -0.22993,1.340908 -0.96494,1.532996 l -0.01,0.0021 c -0.091,0.01588 -0.18203,0.02381 -0.27014,0.02381 -0.62362,0 -1.10992,-0.393171 -1.2401,-1.001977 -0.1561,-0.728927 0.24104,-1.351756 0.9652,-1.514475 z"
         id="path11965"
         style="fill:url(#SVGID_89_);stroke-width:0.264583" />
      <path
         fill="url(#SVGID_90_)"
         d="m 32.734759,15.407916 c 0.34581,-0.34925 0.58711,-0.775493 0.6559,-1.304131 0.0294,-0.225954 0.002,-0.463285 -0.0886,-0.677069 -0.0317,-0.04366 -0.0677,-0.08652 -0.10663,-0.128852 -0.1389,0.350838 -0.23071,0.705115 -0.42016,0.994834 -0.44503,0.681302 -1.12289,1.048014 -1.91002,1.200943 -0.20691,0.03995 -0.41672,0.06641 -0.62283,0.06641 -0.38391,0 -0.75274,-0.09208 -1.05913,-0.357717 -0.0209,-0.01826 -0.04,-0.03704 -0.0603,-0.0553 -0.0852,-0.03148 -0.1614,-0.08837 -0.21484,-0.167216 -0.0437,-0.06429 -0.0818,-0.132028 -0.11589,-0.201613 -0.39529,-0.554831 -0.41222,-1.190096 0.0632,-1.894681 0.17569,-0.260879 0.37862,-0.482071 0.60061,-0.674688 0.66939,-0.666485 1.50177,-0.991393 2.19842,-1.202796 0.13388,-0.04048 0.26987,-0.07593 0.40666,-0.108743 0.45932,-0.158221 0.92975,-0.28919 1.39912,-0.415131 0.63579,-0.171186 1.27847,-0.323321 1.92458,-0.450057 0.72178,-0.1410223 1.45071,-0.2442103 2.17726,-0.3638023 -0.002,-0.01191 -0.003,-0.02355 -0.005,-0.03545 -0.0394,2.65e-4 -0.0794,2.65e-4 -0.1188,2.65e-4 -0.22437,0 -0.44926,-0.004 -0.6739,-0.004 -0.22145,0 -0.44317,0.004 -0.6641,0.01932 -1.12739,0.07911 -2.25795,0.148167 -3.35968,0.4312713 -0.74004,0.189706 -1.49278,0.340783 -2.21588,0.58076 -0.6739,0.223573 -1.31472,0.5461 -1.973,0.817827 -1.00172,0.413543 -1.84812,1.040871 -2.52042,1.885156 -0.34264,0.430212 -0.55219,0.93636 -0.46752,1.505744 0.11668,0.784225 0.88741,1.606814 1.66687,1.750218 0.5162,0.09472 1.04405,0.192617 1.56528,0.192617 0.0386,0 0.0775,-5.29e-4 0.11589,-0.0016 0.34025,-0.01005 0.67706,-0.04101 1.00779,-0.09525 0.35005,-0.107157 0.69797,-0.219605 1.03902,-0.341048 0.56939,-0.202671 1.23825,-0.487627 1.77562,-0.966259 z"
         id="path11974"
         style="fill:url(#SVGID_90_);stroke-width:0.264583" />
      <g
         id="g11986"
         transform="matrix(0.26458333,0,0,0.26458333,0.84029853,0.0422393)">
        <path
           fill="#333333"
           d="m 71.542,296.065 c -16.469,0 -21.097,-7.74 -21.628,-8.651 -0.986,-1.822 -0.304,-4.174 1.518,-5.161 1.821,-0.986 4.097,-0.303 5.084,1.442 0.151,0.151 0.91,1.214 2.883,2.276 3.795,2.049 8.729,2.504 12.144,2.504 5.008,0 8.803,-1.062 10.928,-3.035 1.668,-1.518 2.048,-3.415 2.048,-4.705 0,-2.808 -0.835,-4.933 -2.656,-6.678 -2.353,-2.353 -6.45,-4.098 -12.217,-5.236 -4.175,-0.911 -7.817,-2.353 -10.701,-4.325 -2.428,-1.67 -4.325,-3.718 -5.69,-6.147 -2.201,-3.794 -2.201,-7.209 -2.201,-8.119 0,-4.022 1.898,-8.044 5.16,-10.928 1.594,-1.442 3.567,-2.58 5.768,-3.416 2.277,-0.834 4.78,-1.214 7.361,-1.214 14.797,0 19.123,6.981 19.578,7.816 0.986,1.822 0.38,4.174 -1.441,5.16 -1.821,0.987 -4.099,0.379 -5.084,-1.366 -0.152,-0.152 -0.835,-0.986 -2.505,-1.973 -1.821,-0.911 -5.085,-2.05 -10.548,-2.05 -4.175,0 -6.678,1.442 -8.12,2.732 -1.594,1.442 -2.58,3.416 -2.58,5.388 v 0.152 c 0,0.303 0,2.2 1.366,4.401 0.834,1.366 1.973,2.504 3.49,3.49 1.973,1.29 4.555,2.276 7.664,2.96 7.286,1.441 12.521,3.794 16.013,7.209 3.263,3.188 4.934,7.285 4.934,12.142 0,3.946 -1.595,7.589 -4.479,10.321 -3.569,3.342 -9.032,5.011 -16.089,5.011 z"
           id="path11976"
           style="fill:#4d4d4d" />
        <path
           fill="#333333"
           d="m 108.041,295.155 c -2.05,0 -3.795,-1.67 -3.795,-3.795 v -52.058 c 0,-2.049 1.745,-3.794 3.795,-3.794 2.125,0 3.794,1.746 3.794,3.794 v 52.058 c 0,2.125 -1.669,3.795 -3.794,3.795 z"
           id="path11978"
           style="fill:#4d4d4d" />
        <path
           fill="#333333"
           d="m 127.771,295.155 c -2.125,0 -3.794,-1.746 -3.794,-3.795 v -52.058 c 0,-2.125 1.669,-3.794 3.794,-3.794 h 22.538 c 0.303,0 2.125,0 4.478,0.607 3.34,0.835 6.299,2.504 8.499,4.705 1.745,1.669 3.036,3.719 3.946,6.071 1.062,2.581 1.518,5.54 1.518,8.803 0,7.133 -3.036,12.673 -8.727,15.936 -1.366,0.759 -2.885,1.442 -4.553,1.897 3.263,2.808 6.223,6.374 8.574,10.548 1.973,3.339 4.098,3.339 4.402,3.339 2.048,-0.228 3.945,1.138 4.248,3.187 0.305,2.049 -1.139,4.022 -3.187,4.325 -0.53,0.076 -2.276,0.229 -4.629,-0.531 -2.049,-0.759 -5.009,-2.429 -7.361,-6.527 -2.655,-4.553 -5.919,-8.119 -9.714,-10.548 -2.656,-1.745 -4.629,-2.276 -4.779,-2.276 -1.973,-0.38 -3.265,-2.125 -3.036,-4.098 0.152,-1.973 1.821,-3.415 3.795,-3.415 5.387,0 9.562,-0.835 12.521,-2.504 3.339,-1.897 4.856,-4.857 4.856,-9.333 0,-3.036 -0.531,-5.54 -1.67,-7.513 -0.834,-1.442 -1.973,-2.581 -3.49,-3.491 -2.655,-1.518 -5.464,-1.594 -5.691,-1.594 h -18.744 v 48.264 c -0.001,2.05 -1.669,3.795 -3.794,3.795 z"
           id="path11980"
           style="fill:#4d4d4d" />
        <path
           fill="#333333"
           d="m 188.706,295.155 c -2.049,0 -3.795,-1.67 -3.795,-3.795 v -52.058 c 0,-2.049 1.746,-3.794 3.795,-3.794 2.125,0 3.795,1.746 3.795,3.794 v 52.058 c 0,2.125 -1.67,3.795 -3.795,3.795 z"
           id="path11982"
           style="fill:#4d4d4d" />
        <path
           fill="#333333"
           d="m 241.522,295.155 h -33.087 c -2.05,0 -3.794,-1.67 -3.794,-3.795 v -52.058 c 0,-2.125 1.744,-3.794 3.794,-3.794 2.125,0 3.794,1.669 3.794,3.794 v 48.264 h 29.293 c 2.124,0 3.794,1.669 3.794,3.794 0,2.125 -1.67,3.795 -3.794,3.795 z"
           id="path11984"
           style="fill:#4d4d4d" />
      </g>
    </g>
  </g>
</svg>
