<?xml version="1.0" encoding="UTF-8" standalone="no"?>
<svg
   xmlns:dc="http://purl.org/dc/elements/1.1/"
   xmlns:cc="http://creativecommons.org/ns#"
   xmlns:rdf="http://www.w3.org/1999/02/22-rdf-syntax-ns#"
   xmlns:svg="http://www.w3.org/2000/svg"
   xmlns="http://www.w3.org/2000/svg"
   xmlns:xlink="http://www.w3.org/1999/xlink"
   xmlns:sodipodi="http://sodipodi.sourceforge.net/DTD/sodipodi-0.dtd"
   xmlns:inkscape="http://www.inkscape.org/namespaces/inkscape"
   width="300"
   height="300"
   viewBox="0 0 79.374998 79.375002"
   version="1.1"
   id="svg1171"
   inkscape:version="1.0.1 (3bc2e813f5, 2020-09-07)"
   sodipodi:docname="siril_logo.svg">
  <metadata
     id="metadata56">
    <rdf:RDF>
      <cc:Work
         rdf:about="">
        <dc:format>image/svg+xml</dc:format>
        <dc:type
           rdf:resource="http://purl.org/dc/dcmitype/StillImage" />
        <dc:title></dc:title>
      </cc:Work>
    </rdf:RDF>
  </metadata>
  <defs
     id="defs1167">
    <linearGradient
       id="SVGID_90_"
       gradientUnits="userSpaceOnUse"
       x1="116.083"
       y1="174.95461"
       x2="116.083"
       y2="3.0790999"
       gradientTransform="matrix(0.26458333,0,0,0.26458333,0.03889978,0.11311)">
      <stop
         offset="0.0306"
         style="stop-color:#8765A9"
         id="stop11967" />
      <stop
         offset="0.2255"
         style="stop-color:#485BA6"
         id="stop11969" />
      <stop
         offset="1"
         style="stop-color:#003952"
         id="stop11971" />
    </linearGradient>
    <linearGradient
       id="SVGID_89_"
       gradientUnits="userSpaceOnUse"
       x1="201.17191"
       y1="174.95461"
       x2="201.17191"
       y2="3.0792"
       gradientTransform="matrix(0.26458333,0,0,0.26458333,0.03889978,0.11311)">
      <stop
         offset="0.0306"
         style="stop-color:#8765A9"
         id="stop11958" />
      <stop
         offset="0.2255"
         style="stop-color:#485BA6"
         id="stop11960" />
      <stop
         offset="1"
         style="stop-color:#003952"
         id="stop11962" />
    </linearGradient>
    <linearGradient
       id="SVGID_88_"
       gradientUnits="userSpaceOnUse"
       x1="202.3027"
       y1="174.95261"
       x2="202.3027"
       y2="3.0817001"
       gradientTransform="matrix(0.26458333,0,0,0.26458333,0.03889978,0.11311)">
      <stop
         offset="0.0306"
         style="stop-color:#8765A9"
         id="stop11949" />
      <stop
         offset="0.2255"
         style="stop-color:#485BA6"
         id="stop11951" />
      <stop
         offset="1"
         style="stop-color:#003952"
         id="stop11953" />
    </linearGradient>
    <linearGradient
       id="SVGID_87_"
       gradientUnits="userSpaceOnUse"
       x1="149.85249"
       y1="174.95461"
       x2="149.85249"
       y2="3.0796001"
       gradientTransform="matrix(0.26458333,0,0,0.26458333,0.03889978,0.11311)">
      <stop
         offset="0.0306"
         style="stop-color:#8765A9"
         id="stop11940" />
      <stop
         offset="0.2255"
         style="stop-color:#485BA6"
         id="stop11942" />
      <stop
         offset="1"
         style="stop-color:#003952"
         id="stop11944" />
    </linearGradient>
    <linearGradient
       id="SVGID_86_"
       gradientUnits="userSpaceOnUse"
       x1="113.5439"
       y1="174.6973"
       x2="113.5439"
       y2="3.155"
       gradientTransform="matrix(0.26458333,0,0,0.26458333,0.03889978,0.11311)">
      <stop
         offset="0.0306"
         style="stop-color:#8765A9"
         id="stop11931" />
      <stop
         offset="0.2255"
         style="stop-color:#485BA6"
         id="stop11933" />
      <stop
         offset="1"
         style="stop-color:#003952"
         id="stop11935" />
    </linearGradient>
    <linearGradient
       id="SVGID_85_"
       gradientUnits="userSpaceOnUse"
       x1="114.9131"
       y1="174.94341"
       x2="114.9131"
       y2="3.0841"
       gradientTransform="matrix(0.26458333,0,0,0.26458333,0.03889978,0.11311)">
      <stop
         offset="0.0306"
         style="stop-color:#8765A9"
         id="stop11922" />
      <stop
         offset="0.2255"
         style="stop-color:#485BA6"
         id="stop11924" />
      <stop
         offset="1"
         style="stop-color:#003952"
         id="stop11926" />
    </linearGradient>
    <linearGradient
       id="SVGID_84_"
       gradientUnits="userSpaceOnUse"
       x1="201.19431"
       y1="174.9614"
       x2="201.19431"
       y2="3.0664999"
       gradientTransform="matrix(0.26458333,0,0,0.26458333,0.03889978,0.11311)">
      <stop
         offset="0.0306"
         style="stop-color:#8765A9"
         id="stop11913" />
      <stop
         offset="0.2255"
         style="stop-color:#485BA6"
         id="stop11915" />
      <stop
         offset="1"
         style="stop-color:#003952"
         id="stop11917" />
    </linearGradient>
    <linearGradient
       id="SVGID_83_"
       gradientUnits="userSpaceOnUse"
       x1="200.0576"
       y1="174.9556"
       x2="200.0576"
       y2="3.0764999"
       gradientTransform="matrix(0.26458333,0,0,0.26458333,0.03889978,0.11311)">
      <stop
         offset="0.0306"
         style="stop-color:#8765A9"
         id="stop11904" />
      <stop
         offset="0.2255"
         style="stop-color:#485BA6"
         id="stop11906" />
      <stop
         offset="1"
         style="stop-color:#003952"
         id="stop11908" />
    </linearGradient>
    <linearGradient
       inkscape:collect="always"
       xlink:href="#linearGradient1329"
       id="linearGradient1242-3"
       x1="165.66393"
       y1="233.73611"
       x2="191.96703"
       y2="233.73611"
       gradientUnits="userSpaceOnUse"
       gradientTransform="matrix(0.60310489,0,0,0.60310489,-135.59766,-86.38909)" />
    <linearGradient
       id="linearGradient1329"
       gradientUnits="userSpaceOnUse"
       x1="93.903297"
       y1="187.2495"
       x2="93.903297"
       y2="13.0833"
       gradientTransform="translate(177.01576,331.2197)">
      <stop
         offset="0.0306"
         style="stop-color:#8765A9"
         id="stop1323" />
      <stop
         offset="0.51529998"
         style="stop-color:#485BA6"
         id="stop1325" />
      <stop
         offset="1"
         style="stop-color:#003952"
         id="stop1327" />
    </linearGradient>
    <clipPath
       clipPathUnits="userSpaceOnUse"
       id="clipPath1549">
      <path
         style="display:inline;fill:url(#linearGradient1553);fill-opacity:1;stroke:none;stroke-width:0.0112982px;stroke-linecap:butt;stroke-linejoin:miter;stroke-miterlimit:4;stroke-dasharray:none;stroke-dashoffset:0;stroke-opacity:1;marker:none;marker-start:none;marker-mid:none;marker-end:none;paint-order:normal;enable-background:new"
         d="M 64,294.99999 A 59.999995,59.999995 0 0 1 4.00001,235 59.999995,59.999995 0 0 1 64,175 a 59.999995,59.999995 0 0 1 60,60 59.999995,59.999995 0 0 1 -60,59.99999 z"
         id="path1551"
         inkscape:connector-curvature="0" />
    </clipPath>
    <linearGradient
       inkscape:collect="always"
       xlink:href="#linearGradient1947"
       id="linearGradient1949"
       x1="35.892578"
       y1="274"
       x2="47.892578"
       y2="274"
       gradientUnits="userSpaceOnUse"
       gradientTransform="translate(230.10742,-322)" />
    <linearGradient
       inkscape:collect="always"
       id="linearGradient1947">
      <stop
         style="stop-color:#deddda;stop-opacity:1"
         offset="0"
         id="stop1943" />
      <stop
         style="stop-color:#ffffff;stop-opacity:0;"
         offset="1"
         id="stop1945" />
    </linearGradient>
    <linearGradient
       inkscape:collect="always"
       xlink:href="#linearGradient1947"
       id="linearGradient1953"
       gradientUnits="userSpaceOnUse"
       gradientTransform="matrix(0.72222222,0,0,0.72222222,234.07758,-292.88889)"
       x1="35.892578"
       y1="274"
       x2="46.969505"
       y2="274" />
    <linearGradient
       inkscape:collect="always"
       xlink:href="#linearGradient1947"
       id="linearGradient1964"
       gradientUnits="userSpaceOnUse"
       gradientTransform="matrix(0.52777778,0,0,0.52777778,240.05669,-172.61111)"
       x1="35.892578"
       y1="274"
       x2="46.969505"
       y2="274" />
    <linearGradient
       inkscape:collect="always"
       xlink:href="#linearGradient1947"
       id="linearGradient1968"
       gradientUnits="userSpaceOnUse"
       gradientTransform="matrix(0.52777778,0,0,0.52777778,238.05669,-207.61111)"
       x1="35.892578"
       y1="274"
       x2="46.969505"
       y2="274" />
    <linearGradient
       inkscape:collect="always"
       xlink:href="#linearGradient1947"
       id="linearGradient1972"
       gradientUnits="userSpaceOnUse"
       gradientTransform="matrix(0.72222222,0,0,0.72222222,249.07758,-276.88889)"
       x1="35.892578"
       y1="274"
       x2="46.969505"
       y2="274" />
  </defs>
  <sodipodi:namedview
     id="base"
     pagecolor="#ffffff"
     bordercolor="#666666"
     borderopacity="1.0"
     inkscape:pageopacity="0.0"
     inkscape:pageshadow="2"
     inkscape:zoom="2.2262228"
     inkscape:cx="174.21817"
     inkscape:cy="152.6271"
     inkscape:document-units="mm"
     inkscape:current-layer="layer1"
     showgrid="false"
     units="px"
     inkscape:window-width="1920"
     inkscape:window-height="1028"
     inkscape:window-x="0"
     inkscape:window-y="0"
     inkscape:window-maximized="1"
     inkscape:document-rotation="0"
     inkscape:snap-object-midpoints="true"
     inkscape:snap-center="true"
     inkscape:snap-text-baseline="true"
     inkscape:snap-page="true">
    <inkscape:grid
       type="xygrid"
       id="grid911" />
  </sodipodi:namedview>
  <g
     inkscape:label="Layer 1"
     inkscape:groupmode="layer"
     id="layer1">
    <rect
       style="fill:none;stroke-width:0.529167;stroke-linecap:square;stroke-linejoin:round;stroke-dasharray:2.11667, 2.11667000000000005"
       id="rect913"
       width="79.375"
       height="79.375"
       x="0"
       y="0" />
    <g
       id="g1011"
       transform="matrix(1.9999997,0,0,1.9999997,-69.46908,-30.341965)">
      <path
         id="path1335"
         style="display:inline;fill:#543d6c;fill-opacity:1;stroke:none;stroke-width:0.264583px;stroke-linecap:butt;stroke-linejoin:miter;stroke-opacity:1;enable-background:new"
         d="m 38.753426,30.323231 a 15.875,15.875 0 0 0 -0.05013,1.256771 15.875,15.875 0 0 0 0.972551,5.469951 v -0.527617 l 29.96303,-0.451652 0.0181,0.472839 a 15.875,15.875 0 0 0 0.796319,-4.963521 15.875,15.875 0 0 0 -0.05012,-1.256771 z" />
      <rect
         style="display:inline;fill:#d5d3cf;fill-opacity:1;stroke:none;stroke-width:0.00298932px;stroke-linecap:butt;stroke-linejoin:miter;stroke-miterlimit:4;stroke-dasharray:none;stroke-dashoffset:0;stroke-opacity:1;marker:none;marker-start:none;marker-mid:none;marker-end:none;paint-order:normal;enable-background:new"
         id="rect978-5"
         width="29.633333"
         height="30.1625"
         x="39.761662"
         y="16.234169"
         rx="14.816667"
         ry="14.816667" />
      <path
         style="display:inline;fill:url(#linearGradient1242-3);fill-opacity:1;stroke-width:0.529167;stroke-linecap:square;stroke-linejoin:round;stroke-dasharray:2.11667, 2.11667;enable-background:new"
         id="path411-3"
         transform="rotate(-90)"
         sodipodi:type="arc"
         sodipodi:cx="-31.050835"
         sodipodi:cy="54.5783"
         sodipodi:rx="15.875"
         sodipodi:ry="15.875"
         sodipodi:start="4.3527968"
         sodipodi:end="1.8994391"
         sodipodi:open="true"
         sodipodi:arc-type="arc"
         d="m -36.637129,39.718659 a 15.875,15.875 0 0 1 18.187725,5.204614 15.875,15.875 0 0 1 0.292735,18.915487 15.875,15.875 0 0 1 -18.017961,5.764931" />
      <path
         fill="url(#SVGID_95_)"
         d="m 63.444091,21.640135 -1.327415,0.285089 -0.285089,1.327546 c -0.0119,0.05556 -0.06099,0.09551 -0.118401,0.09551 -0.05689,0 -0.106098,-0.03982 -0.117872,-0.09551 l -0.28522,-1.327546 -1.327547,-0.285089 c -0.05556,-0.01191 -0.09525,-0.06112 -0.09525,-0.118136 0,-0.05702 0.03969,-0.106231 0.09525,-0.118269 l 1.327547,-0.284956 0.28522,-1.327547 c 0.01178,-0.0557 0.06099,-0.09538 0.117872,-0.09538 0.05741,0 0.106495,0.03968 0.118401,0.09538 l 0.285089,1.327547 1.327415,0.284956 c 0.05583,0.01204 0.09565,0.06125 0.09565,0.118269 0,0.05689 -0.03982,0.106098 -0.09565,0.118136 z"
         id="path1665-8"
         style="display:inline;fill:#ffffff;fill-opacity:1;stroke-width:0.264583;enable-background:new"
         sodipodi:nodetypes="cccscccscccscccsc" />
      <g
         id="g1545"
         clip-path="url(#clipPath1549)"
         style="display:inline;enable-background:new"
         transform="matrix(0.26458333,0,0,0.26458333,37.644967,-31.126248)">
        <circle
           style="opacity:1;fill:#ffffff;fill-opacity:1;stroke-width:2;stroke-linecap:square;stroke-linejoin:round;stroke-dasharray:8, 8"
           id="path1518"
           cx="13"
           cy="263"
           r="9" />
        <circle
           style="opacity:1;fill:#ffffff;fill-opacity:1;stroke-width:2;stroke-linecap:square;stroke-linejoin:round;stroke-dasharray:8, 8"
           id="circle1520"
           cx="32"
           cy="267.5"
           r="18.5" />
        <circle
           style="opacity:1;fill:#ffffff;fill-opacity:1;stroke-width:2;stroke-linecap:square;stroke-linejoin:round;stroke-dasharray:8, 8"
           id="circle1522"
           cx="50"
           cy="260"
           r="10" />
        <circle
           style="opacity:1;fill:#ffffff;fill-opacity:1;stroke-width:2.00001;stroke-linecap:square;stroke-linejoin:round;stroke-dasharray:8.00001, 8.00001"
           id="circle1524"
           cx="70"
           cy="264"
           r="18" />
        <circle
           style="opacity:1;fill:#ffffff;fill-opacity:1;stroke-width:2;stroke-linecap:square;stroke-linejoin:round;stroke-dasharray:8.00001, 8.00001"
           id="circle1526"
           cx="112"
           cy="262"
           r="12" />
        <circle
           style="opacity:1;fill:#ffffff;fill-opacity:1;stroke-width:1.99999;stroke-linecap:square;stroke-linejoin:round;stroke-dasharray:8.00005, 8.00005"
           id="circle1528"
           cx="94"
           cy="267"
           r="17" />
        <path
           id="path1531"
           style="display:inline;opacity:1;fill:#ffffff;fill-opacity:1;stroke:none;stroke-width:0.0112982px;stroke-linecap:butt;stroke-linejoin:miter;stroke-miterlimit:4;stroke-dasharray:none;stroke-dashoffset:0;stroke-opacity:1;marker:none;marker-start:none;marker-mid:none;marker-end:none;paint-order:normal;enable-background:new"
           d="M 6.458984,264 A 59.999995,59.999995 0 0 0 64,307 59.999995,59.999995 0 0 0 121.54102,264 Z" />
        <circle
           style="opacity:1;fill:url(#linearGradient1949);fill-opacity:1;stroke-width:2.00001;stroke-linecap:square;stroke-linejoin:round;stroke-dasharray:8.00001, 8.00001"
           id="circle1941"
           cx="284"
           cy="-48"
           r="18"
           transform="rotate(90)" />
        <circle
           style="opacity:1;fill:url(#linearGradient1953);fill-opacity:1;stroke-width:2.00001;stroke-linecap:square;stroke-linejoin:round;stroke-dasharray:8, 8"
           id="circle1951"
           cx="273"
           cy="-95"
           r="13"
           transform="rotate(90)" />
        <circle
           style="opacity:1;fill:url(#linearGradient1964);fill-opacity:1;stroke-width:2.00001;stroke-linecap:square;stroke-linejoin:round;stroke-dasharray:8.00002, 8.00002"
           id="circle1962"
           cx="268.5"
           cy="-28"
           r="9.5"
           transform="rotate(90)" />
        <circle
           style="opacity:1;fill:url(#linearGradient1968);fill-opacity:1;stroke-width:2.00001;stroke-linecap:square;stroke-linejoin:round;stroke-dasharray:8.00002, 8.00002"
           id="circle1966"
           cx="266.5"
           cy="-63"
           r="9.5"
           transform="rotate(90)" />
        <circle
           style="opacity:1;fill:url(#linearGradient1972);fill-opacity:1;stroke-width:2.00001;stroke-linecap:square;stroke-linejoin:round;stroke-dasharray:8, 8"
           id="circle1970"
           cx="288"
           cy="-79"
           r="13"
           transform="rotate(90)" />
      </g>
      <path
         fill="url(#SVGID_95_)"
         d="m 47.833674,30.371385 -1.327414,0.285089 -0.285089,1.327546 c -0.0119,0.05556 -0.06099,0.09551 -0.118401,0.09551 -0.05689,0 -0.106098,-0.03982 -0.117872,-0.09551 l -0.28522,-1.327546 -1.327547,-0.285089 c -0.05556,-0.01191 -0.09525,-0.06112 -0.09525,-0.118136 0,-0.05702 0.03969,-0.106231 0.09525,-0.118269 l 1.327547,-0.284956 0.28522,-1.327547 c 0.01178,-0.0557 0.06099,-0.09538 0.117872,-0.09538 0.05741,0 0.106495,0.03968 0.118401,0.09538 l 0.285089,1.327547 1.327414,0.284956 c 0.05583,0.01204 0.09565,0.06125 0.09565,0.118269 0,0.05689 -0.03982,0.106097 -0.09565,0.118136 z"
         id="path1760"
         style="display:inline;fill:#ffffff;fill-opacity:1;stroke-width:0.264583;enable-background:new"
         sodipodi:nodetypes="cccscccscccscccsc" />
      <path
         fill="url(#SVGID_95_)"
         d="m 43.938674,25.959693 -0.663731,0.14255 -0.142549,0.663797 c -0.0059,0.02778 -0.0305,0.04776 -0.0592,0.04776 -0.02845,0 -0.05305,-0.0199 -0.05894,-0.04776 l -0.142615,-0.663797 -0.663797,-0.14255 c -0.02778,-0.006 -0.04763,-0.03056 -0.04763,-0.05907 0,-0.02851 0.01985,-0.05312 0.04763,-0.05914 l 0.663797,-0.142481 0.142615,-0.663797 c 0.0059,-0.02785 0.0305,-0.04769 0.05894,-0.04769 0.02871,0 0.05325,0.01984 0.0592,0.04769 l 0.14255,0.663797 0.66373,0.142483 c 0.02792,0.006 0.04783,0.03063 0.04783,0.05914 0,0.02845 -0.01991,0.05305 -0.04783,0.05907 z"
         id="path1762"
         style="display:inline;fill:#ffffff;fill-opacity:1;stroke-width:0.264583;enable-background:new"
         sodipodi:nodetypes="cccscccscccscccsc" />
      <path
         fill="url(#SVGID_95_)"
         d="m 54.786591,28.87011 -0.663731,0.14255 -0.14255,0.663797 c -0.006,0.02778 -0.0305,0.04776 -0.0592,0.04776 -0.02845,0 -0.05305,-0.0199 -0.05894,-0.04776 L 53.719555,29.01266 53.055758,28.87011 c -0.02778,-0.006 -0.04763,-0.03056 -0.04763,-0.05907 0,-0.02851 0.01985,-0.05312 0.04763,-0.05914 l 0.663797,-0.142483 0.142615,-0.663798 c 0.0059,-0.02785 0.0305,-0.04769 0.05894,-0.04769 0.02871,0 0.05325,0.01984 0.0592,0.04769 l 0.14255,0.663798 0.663731,0.142483 c 0.02792,0.006 0.04783,0.03063 0.04783,0.05914 0,0.02845 -0.01991,0.05305 -0.04783,0.05907 z"
         id="path1764"
         style="display:inline;fill:#ffffff;fill-opacity:1;stroke-width:0.264583;enable-background:new"
         sodipodi:nodetypes="cccscccscccscccsc" />
      <path
         fill="url(#SVGID_95_)"
         d="m 67.751174,31.25136 -0.663731,0.14255 -0.14255,0.663797 c -0.006,0.02778 -0.0305,0.04776 -0.0592,0.04776 -0.02845,0 -0.05305,-0.0199 -0.05894,-0.04776 L 66.68414,31.39391 66.020343,31.25136 c -0.02778,-0.006 -0.04763,-0.03056 -0.04763,-0.05907 0,-0.02851 0.01984,-0.05312 0.04763,-0.05914 l 0.663797,-0.142483 0.142613,-0.663798 c 0.0059,-0.02785 0.0305,-0.04769 0.05894,-0.04769 0.02871,0 0.05325,0.01984 0.0592,0.04769 l 0.14255,0.663798 0.663731,0.142483 c 0.02792,0.006 0.04783,0.03063 0.04783,0.05914 0,0.02845 -0.0199,0.05305 -0.04783,0.05907 z"
         id="path1766"
         style="display:inline;fill:#ffffff;fill-opacity:1;stroke-width:0.264583;enable-background:new"
         sodipodi:nodetypes="cccscccscccscccsc" />
      <path
         sodipodi:type="spiral"
         style="display:inline;fill:none;fill-rule:evenodd;stroke:#ffffff;stroke-width:2.60581;enable-background:new"
         id="path1785-7"
         sodipodi:cx="51.911522"
         sodipodi:cy="201.97768"
         sodipodi:expansion="3.22"
         sodipodi:revolution="2.8893099"
         sodipodi:radius="22.4011"
         sodipodi:argument="-15.595445"
         sodipodi:t0="0.62832493"
         transform="matrix(0.15229058,0,0,0.15231735,43.233085,-8.4514239)"
         d="m 49.403146,206.32231 c -3.505381,-0.88934 -5.011654,-4.88838 -4.073862,-8.14489 1.462447,-5.0784 7.312541,-7.21178 12.072503,-5.70917 7.079979,2.235 10.001533,10.46421 7.739014,17.14735 -3.23901,9.56755 -14.450147,13.45884 -23.533471,10.20947 -3.187003,-1.14009 -6.071064,-3.06103 -8.396974,-5.5155" />
      <path
         sodipodi:type="spiral"
         style="display:inline;fill:none;fill-rule:evenodd;stroke:#ffffff;stroke-width:2.60581;enable-background:new"
         id="path1789-9"
         sodipodi:cx="-52.328533"
         sodipodi:cy="-201.9706"
         sodipodi:expansion="3.22"
         sodipodi:revolution="2.8893099"
         sodipodi:radius="22.4011"
         sodipodi:argument="-15.595445"
         sodipodi:t0="0.62832493"
         transform="matrix(-0.15229058,0,0,-0.15231735,43.233085,-8.1868399)"
         d="m -54.836909,-197.62596 c -3.505381,-0.88935 -5.011654,-4.88838 -4.073862,-8.14489 1.462447,-5.0784 7.312541,-7.21178 12.072503,-5.70917 7.079979,2.235 10.001533,10.46421 7.739014,17.14735 -3.23901,9.56755 -14.450147,13.45884 -23.533471,10.20946 -3.187003,-1.14008 -6.071064,-3.06103 -8.396974,-5.51549" />
      <g
         id="g1857"
         transform="matrix(0.25556787,0.06847921,-0.06847921,0.25556787,54.478035,-35.110417)"
         style="display:inline;enable-background:new">
        <circle
           style="opacity:1;fill:none;fill-opacity:1;stroke:#ffffff;stroke-width:1.5;stroke-linecap:round;stroke-linejoin:round;stroke-miterlimit:4;stroke-dasharray:none"
           id="path1835"
           cx="88"
           cy="223.5"
           r="6.5" />
        <circle
           style="opacity:1;fill:none;fill-opacity:1;stroke:#ffffff;stroke-width:1.5;stroke-linecap:round;stroke-linejoin:round;stroke-miterlimit:4;stroke-dasharray:none"
           id="circle1839"
           cx="88"
           cy="229.5"
           r="6.5" />
        <circle
           style="opacity:1;fill:none;fill-opacity:1;stroke:#ffffff;stroke-width:1.5;stroke-linecap:round;stroke-linejoin:round;stroke-miterlimit:4;stroke-dasharray:none"
           id="path1841"
           cx="88"
           cy="226.5"
           r="1.5" />
      </g>
    </g>
    <g
       id="g11986"
       transform="matrix(0.26458333,0,0,0.26458333,0.6908049,1.1714433)">
      <path
         fill="#333333"
         d="m 71.542,296.065 c -16.469,0 -21.097,-7.74 -21.628,-8.651 -0.986,-1.822 -0.304,-4.174 1.518,-5.161 1.821,-0.986 4.097,-0.303 5.084,1.442 0.151,0.151 0.91,1.214 2.883,2.276 3.795,2.049 8.729,2.504 12.144,2.504 5.008,0 8.803,-1.062 10.928,-3.035 1.668,-1.518 2.048,-3.415 2.048,-4.705 0,-2.808 -0.835,-4.933 -2.656,-6.678 -2.353,-2.353 -6.45,-4.098 -12.217,-5.236 -4.175,-0.911 -7.817,-2.353 -10.701,-4.325 -2.428,-1.67 -4.325,-3.718 -5.69,-6.147 -2.201,-3.794 -2.201,-7.209 -2.201,-8.119 0,-4.022 1.898,-8.044 5.16,-10.928 1.594,-1.442 3.567,-2.58 5.768,-3.416 2.277,-0.834 4.78,-1.214 7.361,-1.214 14.797,0 19.123,6.981 19.578,7.816 0.986,1.822 0.38,4.174 -1.441,5.16 -1.821,0.987 -4.099,0.379 -5.084,-1.366 -0.152,-0.152 -0.835,-0.986 -2.505,-1.973 -1.821,-0.911 -5.085,-2.05 -10.548,-2.05 -4.175,0 -6.678,1.442 -8.12,2.732 -1.594,1.442 -2.58,3.416 -2.58,5.388 v 0.152 c 0,0.303 0,2.2 1.366,4.401 0.834,1.366 1.973,2.504 3.49,3.49 1.973,1.29 4.555,2.276 7.664,2.96 7.286,1.441 12.521,3.794 16.013,7.209 3.263,3.188 4.934,7.285 4.934,12.142 0,3.946 -1.595,7.589 -4.479,10.321 -3.569,3.342 -9.032,5.011 -16.089,5.011 z"
         id="path11976"
         style="fill:#4d4d4d" />
      <path
         fill="#333333"
         d="m 108.041,295.155 c -2.05,0 -3.795,-1.67 -3.795,-3.795 v -52.058 c 0,-2.049 1.745,-3.794 3.795,-3.794 2.125,0 3.794,1.746 3.794,3.794 v 52.058 c 0,2.125 -1.669,3.795 -3.794,3.795 z"
         id="path11978"
         style="fill:#4d4d4d" />
      <path
         fill="#333333"
         d="m 127.771,295.155 c -2.125,0 -3.794,-1.746 -3.794,-3.795 v -52.058 c 0,-2.125 1.669,-3.794 3.794,-3.794 h 22.538 c 0.303,0 2.125,0 4.478,0.607 3.34,0.835 6.299,2.504 8.499,4.705 1.745,1.669 3.036,3.719 3.946,6.071 1.062,2.581 1.518,5.54 1.518,8.803 0,7.133 -3.036,12.673 -8.727,15.936 -1.366,0.759 -2.885,1.442 -4.553,1.897 3.263,2.808 6.223,6.374 8.574,10.548 1.973,3.339 4.098,3.339 4.402,3.339 2.048,-0.228 3.945,1.138 4.248,3.187 0.305,2.049 -1.139,4.022 -3.187,4.325 -0.53,0.076 -2.276,0.229 -4.629,-0.531 -2.049,-0.759 -5.009,-2.429 -7.361,-6.527 -2.655,-4.553 -5.919,-8.119 -9.714,-10.548 -2.656,-1.745 -4.629,-2.276 -4.779,-2.276 -1.973,-0.38 -3.265,-2.125 -3.036,-4.098 0.152,-1.973 1.821,-3.415 3.795,-3.415 5.387,0 9.562,-0.835 12.521,-2.504 3.339,-1.897 4.856,-4.857 4.856,-9.333 0,-3.036 -0.531,-5.54 -1.67,-7.513 -0.834,-1.442 -1.973,-2.581 -3.49,-3.491 -2.655,-1.518 -5.464,-1.594 -5.691,-1.594 h -18.744 v 48.264 c -0.001,2.05 -1.669,3.795 -3.794,3.795 z"
         id="path11980"
         style="fill:#4d4d4d" />
      <path
         fill="#333333"
         d="m 188.706,295.155 c -2.049,0 -3.795,-1.67 -3.795,-3.795 v -52.058 c 0,-2.049 1.746,-3.794 3.795,-3.794 2.125,0 3.795,1.746 3.795,3.794 v 52.058 c 0,2.125 -1.67,3.795 -3.795,3.795 z"
         id="path11982"
         style="fill:#4d4d4d" />
      <path
         fill="#333333"
         d="m 241.522,295.155 h -33.087 c -2.05,0 -3.794,-1.67 -3.794,-3.795 v -52.058 c 0,-2.125 1.744,-3.794 3.794,-3.794 2.125,0 3.794,1.669 3.794,3.794 v 48.264 h 29.293 c 2.124,0 3.794,1.669 3.794,3.794 0,2.125 -1.67,3.795 -3.794,3.795 z"
         id="path11984"
         style="fill:#4d4d4d" />
    </g>
  </g>
</svg>
