<?xml version="1.0" encoding="UTF-8" standalone="no"?>
<svg
   xmlns:dc="http://purl.org/dc/elements/1.1/"
   xmlns:cc="http://creativecommons.org/ns#"
   xmlns:rdf="http://www.w3.org/1999/02/22-rdf-syntax-ns#"
   xmlns:svg="http://www.w3.org/2000/svg"
   xmlns="http://www.w3.org/2000/svg"
   width="32.0px"
   height="32.0px"
   id="Capa_1"
   data-name="Capa 1"
   viewBox="0 0 31.01 29.83"
   version="1.1">
  <metadata
     id="metadata23">
    <rdf:RDF>
      <cc:Work
         rdf:about="">
        <dc:format>image/svg+xml</dc:format>
        <dc:type
           rdf:resource="http://purl.org/dc/dcmitype/StillImage" />
        <dc:title>rotate dark</dc:title>
      </cc:Work>
    </rdf:RDF>
  </metadata>
  <defs
     id="defs4">
    <style
       id="style2">.cls-1{fill:#fff;}.cls-2{fill:#424a60;stroke:#e7eced;stroke-miterlimit:10;stroke-width:0.71px;}.cls-3{fill:#efce4a;}.cls-4{fill:#1a9172;}.cls-5{fill:#25ae88;}</style>
  </defs>
  <title
     id="title6">rotate dark</title>
  <path
     class="cls-1"
     d="m 22.632889,15.90502 a 7.542939,7.542939 0 0 1 -1.276023,0.113195 v 0 A 7.5120675,7.5120675 0 0 1 20.091135,15.90502 l -0.226392,1.317184 a 12.348604,12.348604 0 0 0 1.502414,0.123486 9.1585481,9.1585481 0 0 0 1.502413,-0.123486 z"
     id="path8"
     style="fill:#545454;stroke-width:1.02905" />
  <path
     class="cls-1"
     d="M 22.828408,0.15025952 22.602017,1.467444 a 7.0798664,7.0798664 0 0 1 2.387397,0.9055643 L 25.627425,1.17931 A 8.6646039,8.6646039 0 0 0 22.828408,0.15025952 Z"
     id="path10"
     style="fill:#545454;stroke-width:1.02905" />
  <path
     class="cls-1"
     d="M 19.823581,0.16055002 A 8.3147268,8.3147268 0 0 0 17.003983,1.1896005 l 0.668883,1.1834078 a 7.0181233,7.0181233 0 0 1 2.387397,-0.8746928 z"
     id="path12"
     style="fill:#545454;stroke-width:1.02905" />
  <path
     class="cls-1"
     d="m 26.965191,13.394137 a 7.0695759,7.0695759 0 0 1 -1.944905,1.63619 l 0.668882,1.152536 a 8.7572184,8.7572184 0 0 0 2.294783,-1.924324 z"
     id="path14"
     style="fill:#545454;stroke-width:1.02905" />
  <path
     class="cls-1"
     d="m 29.743627,8.6605059 h -1.029051 a 7.1416094,7.1416094 0 0 1 -0.432201,2.5005921 l 1.245151,0.463072 a 8.6851849,8.6851849 0 0 0 0.524816,-2.9842451 z"
     id="path16"
     style="fill:#545454;stroke-width:1.02905" />
  <path
     class="cls-1"
     d="m 27.96337,3.1036341 -1.029051,0.8541118 a 7.2856764,7.2856764 0 0 1 1.286313,2.2021677 L 29.465783,5.6968409 A 8.4176318,8.4176318 0 0 0 27.96337,3.1036341 Z"
     id="path18"
     style="fill:#545454;stroke-width:1.02905" />
  <path
     class="cls-1"
     d="m 14.698911,3.1345056 a 8.5719894,8.5719894 0 0 0 -1.492123,2.6137879 l 1.255441,0.4527821 a 7.398872,7.398872 0 0 1 1.265732,-2.2124582 z"
     id="path20"
     style="fill:#545454;stroke-width:1.02905" />
  <path
     class="cls-1"
     d="m 15.748542,13.404428 -1.02905,0.864402 a 8.8086709,8.8086709 0 0 0 2.305073,1.924324 l 0.668882,-1.152536 a 7.2548049,7.2548049 0 0 1 -1.944905,-1.63619 z"
     id="path22"
     style="fill:#545454;stroke-width:1.02905" />
  <path
     class="cls-1"
     d="m 14.019738,8.701668 h -1.327475 a 8.5102463,8.5102463 0 0 0 0.524815,2.932793 l 1.245151,-0.452782 A 7.460615,7.460615 0 0 1 14.019738,8.701668 Z"
     id="path24"
     style="fill:#545454;stroke-width:1.02905" />
  <polygon
     class="cls-2"
     points="20.2,4.7 20.26,4.7 20.23,4.64 "
     id="polygon46"
     style="fill:none"
     transform="matrix(1.0290503,0,0,1.0290503,0.53917675,0.15025952)" />
  <path
     class="cls-3"
     d="m 20.482174,6.7156008 a 0.66888272,0.66888272 0 0 1 -0.504235,0.3704581 l -1.944905,0.2984246 1.420089,1.4612515 a 0.68946373,0.68946373 0 0 1 0.185229,0.5762682 l -0.329296,2.0580998 1.677352,-0.926145 a 0.65859222,0.65859222 0 0 1 0.648302,0 l 1.677352,0.926145 -0.329296,-2.0580998 A 0.65859222,0.65859222 0 0 1 23.167995,8.845735 L 24.598375,7.3844835 22.66376,7.0860589 A 0.65859222,0.65859222 0 0 1 22.159526,6.7156008 l -0.81295,-1.7185141 h -0.06174 z"
     id="path48"
     style="fill:#f2e8ad;stroke-width:1.02905" />
  <path
     class="cls-4"
     d="M 26.481537,6.4892097 A 0.63801121,0.63801121 0 0 0 26.111079,6.3039807 L 25.483358,6.2113661 23.240029,5.861489 22.848989,5.0382487 21.953716,3.1139246 A 0.66888272,0.66888272 0 0 0 21.068732,2.794919 0.68946373,0.68946373 0 0 0 20.749727,3.1139246 L 19.844162,5.0382487 19.453123,5.861489 17.693447,6.1393326 16.582073,6.3039807 a 0.65859222,0.65859222 0 0 0 -0.524816,0.4527821 0.64830172,0.64830172 0 0 0 0.154358,0.6688827 L 17.693447,8.94864 18.310877,9.5763607 17.961,11.634461 17.806643,12.550316 a 0.67917323,0.67917323 0 0 0 0.555687,0.761497 0.71004474,0.71004474 0 0 0 0.432201,-0.07203 l 2.552045,-1.420089 2.562335,1.420089 a 0.66888272,0.66888272 0 0 0 0.905565,-0.257262 0.63801121,0.63801121 0 0 0 0.07203,-0.432201 L 24.742442,11.634461 24.392565,9.5763607 25.483358,8.4546959 26.512409,7.4256455 a 0.66888272,0.66888272 0 0 0 -0.03087,-0.9364358 z m -3.27238,2.3976873 a 0.65859222,0.65859222 0 0 0 -0.185229,0.5762682 l 0.329296,2.0580998 -1.677352,-0.926145 a 0.65859222,0.65859222 0 0 0 -0.648302,0 l -1.677352,0.926145 0.329296,-2.0580998 A 0.68946373,0.68946373 0 0 0 19.494285,8.886897 l -1.43038,-1.5024135 1.944906,-0.2984246 a 0.66888272,0.66888272 0 0 0 0.473363,-0.3704581 l 0.802659,-1.7185141 v -0.072033 0.072033 l 0.81295,1.7185141 a 0.65859222,0.65859222 0 0 0 0.504234,0.3704581 l 1.996358,0.2984246 z"
     id="path50"
     style="fill:#f2e375;stroke-width:1.02905" />
  <path
     class="cls-1"
     d="m 18.475525,28.922507 a 4.8982796,4.8982796 0 0 1 -0.771787,0.07203 v 0 a 3.9206818,3.9206818 0 0 1 -0.771788,-0.07203 l -0.144067,0.802659 a 7.0387044,7.0387044 0 0 0 0.926145,0.08232 5.4128048,5.4128048 0 0 0 0.915855,-0.08232 z"
     id="path52"
     style="fill:#545454;stroke-width:1.02905" />
  <path
     class="cls-1"
     d="m 18.599012,19.270014 -0.174939,0.80266 a 4.3631735,4.3631735 0 0 1 1.461251,0.524815 l 0.411621,-0.710044 a 5.3304808,5.3304808 0 0 0 -1.697933,-0.617431 z"
     id="path54"
     style="fill:#545454;stroke-width:1.02905" />
  <path
     class="cls-1"
     d="m 16.757011,19.270014 a 5.4745478,5.4745478 0 0 0 -1.728804,0.59685 l 0.41162,0.710044 a 4.4043355,4.4043355 0 0 1 1.461251,-0.545396 z"
     id="path56"
     style="fill:#545454;stroke-width:1.02905" />
  <path
     class="cls-1"
     d="m 21.140766,27.389222 a 4.4454975,4.4454975 0 0 1 -1.193699,1.02905 l 0.40133,0.710045 a 5.4128048,5.4128048 0 0 0 1.42009,-1.183408 z"
     id="path58"
     style="fill:#545454;stroke-width:1.02905" />
  <path
     class="cls-1"
     d="m 22.828408,24.4873 h -0.638011 a 4.538112,4.538112 0 0 1 -0.267553,1.553866 l 0.761497,0.288134 a 5.3201903,5.3201903 0 0 0 0.319006,-1.83171 z"
     id="path60"
     style="fill:#545454;stroke-width:1.02905" />
  <path
     class="cls-1"
     d="m 21.747906,21.070853 -0.617431,0.524815 a 4.5278215,4.5278215 0 0 1 0.782079,1.358347 l 0.761497,-0.277844 a 5.0629277,5.0629277 0 0 0 -0.926145,-1.605318 z"
     id="path62"
     style="fill:#545454;stroke-width:1.02905" />
  <path
     class="cls-1"
     d="m 13.618408,21.091434 a 5.4128048,5.4128048 0 0 0 -0.915855,1.605318 l 0.771788,0.277844 a 4.3425925,4.3425925 0 0 1 0.771788,-1.358347 z"
     id="path64"
     style="fill:#545454;stroke-width:1.02905" />
  <path
     class="cls-1"
     d="m 14.307872,27.389222 -0.627721,0.524815 a 5.4128048,5.4128048 0 0 0 1.368637,1.21428 l 0.401329,-0.710045 a 4.4454975,4.4454975 0 0 1 -1.142245,-1.02905 z"
     id="path66"
     style="fill:#545454;stroke-width:1.02905" />
  <path
     class="cls-1"
     d="m 13.206788,24.507881 h -0.823241 a 5.2790283,5.2790283 0 0 0 0.329297,1.821419 l 0.761497,-0.288134 a 4.579274,4.579274 0 0 1 -0.267553,-1.533285 z"
     id="path68"
     style="fill:#545454;stroke-width:1.02905" />
  <polygon
     class="cls-2"
     points="16.66,21.46 16.69,21.46 16.67,21.42 "
     id="polygon70"
     style="fill:none"
     transform="matrix(1.0290503,0,0,1.0290503,0.53917675,0.15025952)" />
  <path
     class="cls-3"
     d="m 17.178922,23.283311 a 0.41162014,0.41162014 0 0 1 -0.308715,0.236681 l -1.183408,0.174939 0.874693,0.895274 a 0.42191064,0.42191064 0 0 1 0.102905,0.360167 l -0.19552,1.234861 1.029051,-0.565978 a 0.38074863,0.38074863 0 0 1 0.391039,0 l 1.02905,0.565978 -0.20581,-1.234861 a 0.43220114,0.43220114 0 0 1 0.113196,-0.360167 l 0.874692,-0.895274 -1.193698,-0.174939 A 0.42191064,0.42191064 0 0 1 18.197682,23.283311 L 17.703738,22.25426 v 0 z"
     id="path72"
     style="fill:#f2e8ad;stroke-width:1.02905" />
  <path
     class="cls-4"
     d="M 20.842341,23.118663 A 0.45278215,0.45278215 0 0 0 20.61595,23.015758 l -0.380748,-0.06174 -1.378928,-0.216101 -0.236681,-0.504235 -0.555688,-1.173117 a 0.41162014,0.41162014 0 0 0 -0.740916,0 l -0.545397,1.173117 -0.246972,0.504235 -1.080503,0.216101 -0.679173,0.102905 a 0.39103913,0.39103913 0 0 0 -0.319005,0.267553 0.42191064,0.42191064 0 0 0 0.09261,0.42191 l 0.905564,0.926146 0.380749,0.391039 -0.2161,1.306894 -0.09262,0.555687 a 0.42191064,0.42191064 0 0 0 0.60714,0.421911 l 1.564156,-0.864403 1.574447,0.864403 a 0.41162014,0.41162014 0 0 0 0.555687,-0.164648 0.36016762,0.36016762 0 0 0 0,-0.257263 l -0.09261,-0.555687 -0.164648,-1.358347 0.668883,-0.689463 0.607139,-0.627721 a 0.42191064,0.42191064 0 0 0 0,-0.576268 z m -2.0581,1.471542 a 0.43220114,0.43220114 0 0 0 -0.113196,0.360167 l 0.20581,1.234861 -1.02905,-0.565978 a 0.38074863,0.38074863 0 0 0 -0.391039,0 l -1.029051,0.565978 0.19552,-1.234861 A 0.42191064,0.42191064 0 0 0 16.52033,24.590205 l -0.874693,-0.895274 1.183408,-0.174939 a 0.41162014,0.41162014 0 0 0 0.308715,-0.236681 l 0.493944,-1.029051 v 0 0 l 0.493944,1.029051 a 0.42191064,0.42191064 0 0 0 0.308715,0.236681 l 1.193699,0.174939 z"
     id="path74"
     style="fill:#f2e375;stroke-width:1.02905" />
  <path
     class="cls-1"
     d="m 9.1008766,18.693746 a 6.5344697,6.5344697 0 0 1 -1.1010839,0.144067 v 0 a 6.3801121,6.3801121 0 0 1 -1.0290503,-0.09261 l -0.2675531,1.121665 a 11.000548,11.000548 0 0 0 1.2966034,0.102905 7.6972966,7.6972966 0 0 0 1.2966034,-0.102905 z"
     id="path76"
     style="fill:#545454;stroke-width:1.02905" />
  <path
     class="cls-1"
     d="M 9.2655246,5.1205728 9.0700051,6.2525281 A 6.3286596,6.3286596 0 0 1 11.128106,6.9934444 L 11.704374,5.964394 A 7.3062574,7.3062574 0 0 0 9.2655246,5.1205728 Z"
     id="path78"
     style="fill:#545454;stroke-width:1.02905" />
  <path
     class="cls-1"
     d="M 6.6826083,5.1308633 A 7.3268384,7.3268384 0 0 0 4.2437589,6.0261371 L 4.8303176,7.0551874 A 6.0611065,6.0611065 0 0 1 6.8884183,6.3039807 Z"
     id="path80"
     style="fill:#545454;stroke-width:1.02905" />
  <path
     class="cls-1"
     d="m 12.83633,16.532741 a 6.3080786,6.3080786 0 0 1 -1.677352,1.409799 l 0.565977,1.02905 a 7.5120675,7.5120675 0 0 0 1.986067,-1.656771 z"
     id="path82"
     style="fill:#545454;stroke-width:1.02905" />
  <path
     class="cls-1"
     d="m 15.203145,12.457701 h -0.895273 a 6.1743021,6.1743021 0 0 1 -0.380749,2.150715 l 1.02905,0.40133 a 7.3165479,7.3165479 0 0 0 0.442492,-2.572626 z"
     id="path84"
     style="fill:#545454;stroke-width:1.02905" />
  <path
     class="cls-1"
     d="m 13.690441,7.6623271 -0.874692,0.7409163 a 6.1743021,6.1743021 0 0 1 1.101083,1.8934516 L 14.997335,9.8953658 A 7.2856764,7.2856764 0 0 0 13.690441,7.6623271 Z"
     id="path86"
     style="fill:#545454;stroke-width:1.02905" />
  <path
     class="cls-1"
     d="m 2.2679823,7.6931986 a 7.398872,7.398872 0 0 0 -1.28631286,2.24333 L 2.0621722,10.327567 A 6.2772071,6.2772071 0 0 1 3.1529656,8.4238244 Z"
     id="path88"
     style="fill:#545454;stroke-width:1.02905" />
  <path
     class="cls-1"
     d="m 3.1632561,16.543031 -0.8746928,0.730626 a 7.35771,7.35771 0 0 0 1.9860672,1.667061 l 0.5762681,-1.02905 A 6.3183691,6.3183691 0 0 1 3.1632561,16.543031 Z"
     id="path90"
     style="fill:#545454;stroke-width:1.02905" />
  <path
     class="cls-1"
     d="M 1.6814236,12.488573 H 0.53917778 a 7.4091625,7.4091625 0 0 0 0.45278216,2.552045 L 2.0210102,14.649578 A 6.5035982,6.5035982 0 0 1 1.6814236,12.488573 Z"
     id="path92"
     style="fill:#545454;stroke-width:1.02905" />
  <polygon
     class="cls-2"
     points="7.22,8.88 7.28,8.88 7.25,8.82 "
     id="polygon94"
     style="fill:none"
     transform="matrix(1.0290503,0,0,1.0290503,0.53917675,0.15025952)" />
  <path
     class="cls-3"
     d="m 7.2794575,10.770059 a 0.6071397,0.6071397 0 0 1 -0.4424917,0.329296 l -1.6670615,0.257262 1.2245699,1.306894 a 0.54539668,0.54539668 0 0 1 0.1543575,0.493944 l -0.2778436,1.739096 1.450961,-0.80266 a 0.56597769,0.56597769 0 0 1 0.5453967,0 l 1.4509607,0.80266 -0.2778433,-1.739096 A 0.54539668,0.54539668 0 0 1 9.5948207,12.663511 L 10.819391,11.40807 9.1626196,11.099355 A 0.57626819,0.57626819 0 0 1 8.7304184,10.770059 L 8.0306642,9.2882266 h -0.061743 z"
     id="path96"
     style="fill:#f2e8ad;stroke-width:1.02905" />
  <path
     class="cls-4"
     d="M 12.414419,10.543668 A 0.52481568,0.52481568 0 0 0 12.095413,10.38931 L 11.560307,10.306986 9.6256922,10.008561 9.2861056,9.2882266 8.5143179,7.6417461 A 0.57626819,0.57626819 0 0 0 7.7528206,7.3639025 0.6071397,0.6071397 0 0 0 7.474977,7.6417461 L 6.7031893,9.2882266 6.3636027,10.008561 4.8508986,10.234952 3.8938818,10.38931 a 0.57626819,0.57626819 0 0 0 -0.4630726,0.380749 0.6071397,0.6071397 0 0 0 0.1337765,0.586558 l 1.2863129,1.306894 0.5248157,0.545397 -0.3292961,1.83171 -0.1337765,0.782078 a 0.57626819,0.57626819 0 0 0 0.8438212,0.596849 l 2.2021678,-1.214279 2.2330393,1.214279 a 0.57626819,0.57626819 0 0 0 0.843822,-0.596849 l -0.133777,-0.782078 -0.298425,-1.83171 0.946727,-0.967307 0.864402,-0.884984 a 0.57626819,0.57626819 0 0 0 0,-0.812949 z m -2.8195983,2.0581 a 0.54539668,0.54539668 0 0 0 -0.1543575,0.493944 l 0.2778433,1.739095 -1.4509607,-0.802659 a 0.56597769,0.56597769 0 0 0 -0.5453967,0 l -1.450961,0.802659 0.2778436,-1.739095 A 0.54539668,0.54539668 0 0 0 6.3944742,12.663511 L 5.1699043,11.356617 6.8369658,11.099355 A 0.6071397,0.6071397 0 0 0 7.2794575,10.770059 L 7.9689212,9.2882266 v -0.051452 0.051452 l 0.6997542,1.4818324 a 0.57626819,0.57626819 0 0 0 0.4322012,0.329296 l 1.6670614,0.257262 z"
     id="path98"
     style="fill:#f2e375;stroke-width:1.02905" />
</svg>
