<?xml version="1.0" encoding="UTF-8" standalone="no"?>
<svg
   xmlns:dc="http://purl.org/dc/elements/1.1/"
   xmlns:cc="http://creativecommons.org/ns#"
   xmlns:rdf="http://www.w3.org/1999/02/22-rdf-syntax-ns#"
   xmlns:svg="http://www.w3.org/2000/svg"
   xmlns="http://www.w3.org/2000/svg"
   width="32.0px"
   height="32.0px"
   id="Capa_1"
   data-name="Capa 1"
   viewBox="0 0 31.01 29.83"
   version="1.1">
  <metadata
     id="metadata23">
    <rdf:RDF>
      <cc:Work
         rdf:about="">
        <dc:format>image/svg+xml</dc:format>
        <dc:type
           rdf:resource="http://purl.org/dc/dcmitype/StillImage" />
        <dc:title>rotate dark</dc:title>
      </cc:Work>
    </rdf:RDF>
  </metadata>
  <defs
     id="defs4">
    <style
       id="style2">.cls-1{fill:#fff;}.cls-2{fill:#424a60;stroke:#e7eced;stroke-miterlimit:10;stroke-width:0.71px;}.cls-3{fill:#efce4a;}.cls-4{fill:#1a9172;}.cls-5{fill:#25ae88;}</style>
  </defs>
  <title
     id="title6">rotate dark</title>
  <path
     class="cls-3"
     d="m 0.1613208,28.579505 a 1.89,1.89 0 0 0 1.7399999,1.16 H 25.82132 a 1.89,1.89 0 0 0 1.91,-1.89 v -5.66 a 1.89,1.89 0 0 0 -1.88,-1.89 1.89,1.89 0 0 0 -1.89,1.89 v 3.78 H 6.4413207 l 8.6499993,-8.71 a 1.89,1.89 0 0 0 0.09,-2.56 L 6.0013207,3.9395055 H 23.93132 v 1.25 a 1.88,1.88 0 0 0 1.89,1.89 1.88,1.88 0 0 0 1.91,-1.89 v -3.16 a 1.89,1.89 0 0 0 -1.88,-1.89000002 H 1.9013207 a 1.89,1.89 0 0 0 -1.7099999,1.10000002 1.89,1.89 0 0 0 0.27,2 L 11.18132,15.829505 l -10.6199992,10.69 a 1.89,1.89 0 0 0 -0.4,2.06 z"
     id="path52"
     style="fill:#353535;fill-opacity:1" />
  <polygon
     class="cls-4"
     points="76.69,11.06 76.67,11.01 76.64,11.06 "
     id="polygon54"
     style="fill:none"
     transform="translate(-50.98868,0.15950548)" />
  <path
     class="cls-1"
     d="m 24.28574,12.859505 a 0.69,0.69 0 0 1 -0.52,0.38 l -2,0.3 1.48,1.49 a 0.65,0.65 0 0 1 0.18,0.58 l -0.33,2.06 1.71,-0.95 a 0.7,0.7 0 0 1 0.66,0 l 1.72,0.95 -0.34,-2.06 a 0.65,0.65 0 0 1 0.18,-0.58 l 1.46,-1.5 -2,-0.3 a 0.67,0.67 0 0 1 -0.51,-0.38 l -0.79,-1.75 h -0.06 z"
     id="path56"
     style="fill:#f2e8ad" />
  <path
     class="cls-2"
     d="m 30.37574,12.579505 a 0.75,0.75 0 0 0 -0.38,-0.18 l -0.64,-0.1 -2.29,-0.35 -0.4,-0.85 -0.91,-1.9999995 a 0.69,0.69 0 0 0 -0.91,-0.33 0.64,0.64 0 0 0 -0.32,0.33 l -0.92,1.9999995 -0.4,0.85 -1.8,0.28 -1.13,0.17 a 0.67,0.67 0 0 0 -0.54,0.46 0.68,0.68 0 0 0 0.15,0.69 l 1.52,1.55 0.62,0.64 -0.35,2.17 -0.15,0.93 a 0.69,0.69 0 0 0 0.56,0.79 0.75,0.75 0 0 0 0.44,-0.08 l 2.66,-1.44 2.61,1.44 a 0.69,0.69 0 0 0 0.93,-0.27 0.74,0.74 0 0 0 0.08,-0.44 l -0.16,-0.93 -0.35,-2.17 1.11,-1.14 1,-1.05 a 0.7,0.7 0 0 0 -0.03,-0.97 z m -3.35,2.45 a 0.65,0.65 0 0 0 -0.18,0.58 l 0.34,2.07 -1.72,-0.95 a 0.7,0.7 0 0 0 -0.66,0 l -1.71,0.95 0.33,-2.06 a 0.65,0.65 0 0 0 -0.18,-0.58 l -1.46,-1.5 2,-0.3 a 0.69,0.69 0 0 0 0.52,-0.38 l 0.82,-1.76 0.06,-0.07 v 0.06 l 0.83,1.76 a 0.67,0.67 0 0 0 0.51,0.38 l 2,0.3 z"
     id="path58"
     style="fill:#f7d719" />
</svg>
