<?xml version="1.0" encoding="UTF-8" standalone="no"?>
<svg
   xmlns:dc="http://purl.org/dc/elements/1.1/"
   xmlns:cc="http://creativecommons.org/ns#"
   xmlns:rdf="http://www.w3.org/1999/02/22-rdf-syntax-ns#"
   xmlns:svg="http://www.w3.org/2000/svg"
   xmlns="http://www.w3.org/2000/svg"
   xmlns:sodipodi="http://sodipodi.sourceforge.net/DTD/sodipodi-0.dtd"
   xmlns:inkscape="http://www.inkscape.org/namespaces/inkscape"
   width="32.0px"
   height="32.0px"
   id="Capa_1"
   data-name="Capa 1"
   viewBox="0 0 32 32"
   version="1.1"
   sodipodi:docname="sum_dark.svg"
   inkscape:version="1.0.1 (3bc2e813f5, 2020-09-07)">
  <defs
     id="defs11" />
  <sodipodi:namedview
     pagecolor="#ffffff"
     bordercolor="#666666"
     borderopacity="1"
     objecttolerance="10"
     gridtolerance="10"
     guidetolerance="10"
     inkscape:pageopacity="0"
     inkscape:pageshadow="2"
     inkscape:window-width="1920"
     inkscape:window-height="1028"
     id="namedview9"
     showgrid="false"
     inkscape:zoom="17.98396"
     inkscape:cx="20.117974"
     inkscape:cy="19.827111"
     inkscape:window-x="0"
     inkscape:window-y="0"
     inkscape:window-maximized="1"
     inkscape:current-layer="Capa_1" />
  <metadata
     id="metadata23">
    <rdf:RDF>
      <cc:Work
         rdf:about="">
        <dc:format>image/svg+xml</dc:format>
        <dc:type
           rdf:resource="http://purl.org/dc/dcmitype/StillImage" />
        <dc:title>sum</dc:title>
      </cc:Work>
    </rdf:RDF>
  </metadata>
  <title
     id="title6">sum</title>
  <path
     class="cls-3"
     d="M 0.16789461,30.762084 A 1.9746253,2.0350448 0 0 0 1.9858035,32.011107 H 26.976828 a 1.9746253,2.0350448 0 0 0 1.995521,-2.035045 v -6.094367 a 1.9746253,2.0350448 0 0 0 -1.964178,-2.035045 1.9746253,2.0350448 0 0 0 -1.974625,2.035045 v 4.070089 H 6.7290834 L 15.766389,18.57335 a 1.9746253,2.0350448 0 0 0 0.09403,-2.756463 L 6.2693823,4.23113 H 25.002203 V 5.5770592 A 1.9641776,2.0242774 0 0 0 26.976828,7.612104 1.9641776,2.0242774 0 0 0 28.972349,5.5770592 V 2.1745503 A 1.9746253,2.0350448 0 0 0 27.008171,0.13950548 H 1.9858035 A 1.9746253,2.0350448 0 0 0 0.19923786,1.3239231 1.9746253,2.0350448 0 0 0 0.4813272,3.4774097 L 11.681318,17.033607 0.58580473,28.543993 a 1.9746253,2.0350448 0 0 0 -0.41791012,2.218091 z"
     id="path52"
     style="fill:#ffffff;fill-opacity:1;stroke-width:1.06064" />
  <polygon
     class="cls-4"
     points="76.69,11.06 76.67,11.01 76.64,11.06 "
     id="polygon54"
     style="fill:none"
     transform="matrix(1.0447753,0,0,1.0767433,-53.272363,0.16104035)" />
  <path
     class="cls-1"
     d="m 25.372492,13.83568 a 0.72089496,0.74295288 0 0 1 -0.543283,0.409162 l -2.089551,0.323023 1.546268,1.604348 a 0.67910395,0.69988314 0 0 1 0.188059,0.624511 l -0.344776,2.218091 1.786566,-1.022906 a 0.73134271,0.75372031 0 0 1 0.689552,0 l 1.797013,1.022906 -0.355223,-2.218091 a 0.67910395,0.69988314 0 0 1 0.188059,-0.624511 l 1.525372,-1.615115 -2.08955,-0.323023 a 0.69999945,0.72141801 0 0 1 -0.532836,-0.409163 l -0.825372,-1.8843 H 26.2501 Z"
     id="path56"
     style="fill:#f2e8ad;stroke-width:1.06064" />
  <path
     class="cls-2"
     d="m 31.735173,13.534192 a 0.78358147,0.80755748 0 0 0 -0.397014,-0.193814 l -0.668656,-0.107675 -2.392536,-0.37686 -0.41791,-0.915231 -0.950745,-2.1534865 A 0.72089496,0.74295288 0 0 0 25.957566,9.4318002 0.66865619,0.68911571 0 0 0 25.623238,9.7871255 l -0.961193,2.1534865 -0.41791,0.915231 -1.880596,0.301488 -1.180596,0.183047 a 0.69999945,0.72141801 0 0 0 -0.564179,0.495302 0.7104472,0.73218544 0 0 0 0.156717,0.742953 l 1.588058,1.668952 0.647761,0.689115 -0.365672,2.336533 -0.156716,1.001372 a 0.72089496,0.74295288 0 0 0 0.585074,0.850627 0.78358147,0.80755748 0 0 0 0.459701,-0.08614 l 2.779103,-1.55051 2.726863,1.55051 a 0.72089496,0.74295288 0 0 0 0.971641,-0.29072 0.77313372,0.79679004 0 0 0 0.08358,-0.473767 L 29.92771,19.273233 29.562039,16.9367 l 1.1597,-1.227487 1.044776,-1.13058 a 0.73134271,0.75372031 0 0 0 -0.03134,-1.044441 z m -3.499997,2.638021 a 0.67910395,0.69988314 0 0 0 -0.188059,0.624511 l 0.355223,2.228858 -1.797013,-1.022906 a 0.73134271,0.75372031 0 0 0 -0.689552,0 l -1.786566,1.022906 0.344776,-2.218091 A 0.67910395,0.69988314 0 0 0 24.285926,16.18298 l -1.525372,-1.615115 2.08955,-0.323023 a 0.72089496,0.74295288 0 0 0 0.543283,-0.409162 l 0.856716,-1.895068 0.06269,-0.07537 v 0.0646 l 0.867163,1.895068 a 0.69999945,0.72141801 0 0 0 0.532836,0.409163 l 2.08955,0.323023 z"
     id="path58"
     style="fill:#f7d719;stroke-width:1.06064" />
</svg>
