<?xml version="1.0" encoding="UTF-8" standalone="no"?>
<svg
   xmlns:dc="http://purl.org/dc/elements/1.1/"
   xmlns:cc="http://creativecommons.org/ns#"
   xmlns:rdf="http://www.w3.org/1999/02/22-rdf-syntax-ns#"
   xmlns:svg="http://www.w3.org/2000/svg"
   xmlns="http://www.w3.org/2000/svg"
   xmlns:sodipodi="http://sodipodi.sourceforge.net/DTD/sodipodi-0.dtd"
   xmlns:inkscape="http://www.inkscape.org/namespaces/inkscape"
   width="32.0px"
   height="32.0px"
   version="1.1"
   id="Capa_1"
   x="0px"
   y="0px"
   viewBox="0 0 32 32"
   style="enable-background:new 0 0 32 32;"
   xml:space="preserve"
   sodipodi:docname="wcs-grid.svg"
   inkscape:version="1.0.2 (e86c870879, 2021-01-15)"><g
   id="g1012"
   transform="matrix(0.1924951,0,0,0.19250552,0,0.09874092)"><path
     style="fill:#010002"
     d="M 83.119,166.233 C 37.286,166.233 0,128.951 0,83.122 0,37.293 37.286,0.004 83.119,0.004 c 45.833,0 83.119,37.29 83.119,83.119 0,45.829 -37.287,83.11 -83.119,83.11 z m 0,-158.626 c -41.641,0 -75.515,33.874 -75.515,75.515 0,41.634 33.874,75.508 75.515,75.508 41.641,0 75.515,-33.874 75.515,-75.508 0,-41.641 -33.875,-75.515 -75.515,-75.515 z"
     id="path998" /><path
     style="fill:#010002"
     d="m 83.119,166.189 c -2.101,0 -3.802,-1.7 -3.802,-3.802 V 4.303 c 0,-2.101 1.7,-3.802 3.802,-3.802 2.101,0 3.802,1.7 3.802,3.802 v 158.084 c -0.001,2.101 -1.701,3.802 -3.802,3.802 z"
     id="path1000" /><path
     style="fill:#010002"
     d="M 153.841,51.067 H 13.31 c -2.101,0 -3.802,-1.7 -3.802,-3.802 0,-2.101 1.7,-3.802 3.802,-3.802 h 140.531 c 2.101,0 3.802,1.7 3.802,3.802 -0.001,2.102 -1.701,3.802 -3.802,3.802 z"
     id="path1002" /><path
     style="fill:#010002"
     d="M 153.258,123.776 H 13.384 c -2.101,0 -3.802,-1.7 -3.802,-3.802 0,-2.101 1.7,-3.802 3.802,-3.802 h 139.874 c 2.101,0 3.802,1.7 3.802,3.802 -0.001,2.101 -1.701,3.802 -3.802,3.802 z"
     id="path1004" /><path
     style="fill:#010002"
     d="M 161.771,86.924 H 4.463 c -2.101,0 -3.802,-1.7 -3.802,-3.802 0,-2.101 1.7,-3.802 3.802,-3.802 h 157.308 c 2.101,0 3.802,1.7 3.802,3.802 -0.001,2.102 -1.701,3.802 -3.802,3.802 z"
     id="path1006" /><path
     style="fill:#010002"
     d="m 68.383,164.273 c -1.058,0 -2.109,-0.438 -2.859,-1.299 C -11.064,75.511 66.107,3.419 66.898,2.699 c 1.559,-1.403 3.95,-1.299 5.365,0.252 1.415,1.551 1.303,3.958 -0.245,5.368 -2.989,2.733 -72.389,67.86 -0.776,149.649 1.385,1.574 1.225,3.98 -0.353,5.361 -0.724,0.632 -1.615,0.944 -2.506,0.944 z"
     id="path1008" /><path
     style="fill:#010002"
     d="m 96.131,164.704 c -1.032,0 -2.061,-0.416 -2.81,-1.24 -1.415,-1.552 -1.303,-3.958 0.245,-5.368 2.989,-2.732 72.396,-67.86 0.776,-149.649 -1.385,-1.574 -1.225,-3.98 0.353,-5.361 1.578,-1.381 3.98,-1.233 5.365,0.356 76.595,87.462 -0.583,159.554 -1.374,160.275 -0.728,0.66 -1.641,0.987 -2.555,0.987 z"
     id="path1010" /></g><sodipodi:namedview
   pagecolor="#ffffff"
   bordercolor="#666666"
   borderopacity="1"
   objecttolerance="10"
   gridtolerance="10"
   guidetolerance="10"
   inkscape:pageopacity="0"
   inkscape:pageshadow="2"
   inkscape:window-width="1920"
   inkscape:window-height="1028"
   id="namedview21"
   showgrid="false"
   inkscape:zoom="17.140892"
   inkscape:cx="16.711218"
   inkscape:cy="14.417594"
   inkscape:window-x="0"
   inkscape:window-y="0"
   inkscape:window-maximized="1"
   inkscape:current-layer="Capa_1"
   inkscape:document-rotation="0" /><metadata
   id="metadata39"><rdf:RDF><cc:Work
       rdf:about=""><dc:format>image/svg+xml</dc:format><dc:type
         rdf:resource="http://purl.org/dc/dcmitype/StillImage" /><dc:title></dc:title></cc:Work></rdf:RDF></metadata><defs
   id="defs37" />

<g
   id="g4">
</g>
<g
   id="g6">
</g>
<g
   id="g8">
</g>
<g
   id="g10">
</g>
<g
   id="g12">
</g>
<g
   id="g14">
</g>
<g
   id="g16">
</g>
<g
   id="g18">
</g>
<g
   id="g20">
</g>
<g
   id="g22">
</g>
<g
   id="g24">
</g>
<g
   id="g26">
</g>
<g
   id="g28">
</g>
<g
   id="g30">
</g>
<g
   id="g32">
</g>
</svg>
